<mxfile host="Electron" agent="Mozilla/5.0 (Windows NT 10.0; Win64; x64) AppleWebKit/537.36 (KHTML, like Gecko) draw.io/24.7.5 Chrome/126.0.6478.183 Electron/31.3.0 Safari/537.36" version="24.7.5">
  <diagram name="Page-1" id="NlZsGVZ15Yl0hM_gua9_">
    <mxGraphModel dx="3315" dy="1129" grid="1" gridSize="10" guides="1" tooltips="1" connect="1" arrows="1" fold="1" page="1" pageScale="1" pageWidth="850" pageHeight="1100" math="0" shadow="0">
      <root>
        <mxCell id="0" />
        <mxCell id="1" parent="0" />
        <mxCell id="BZYS89L6aoN4rrawujdk-1" value="" style="rounded=0;whiteSpace=wrap;html=1;fillColor=#DEF2DD;strokeColor=#82b366;" vertex="1" parent="1">
          <mxGeometry x="-990" y="10" width="720" height="240" as="geometry" />
        </mxCell>
        <mxCell id="naRv0cA1vl7b-i_oqYkt-1" value="" style="shape=image;verticalLabelPosition=bottom;labelBackgroundColor=default;verticalAlign=top;aspect=fixed;imageAspect=0;image=data:image/png,iVBORw0KGgoAAAANSUhEUgAAAwEAAAGtCAYAAABOXnipAAAAAXNSR0IArs4c6QAAAARnQU1BAACxjwv8YQUAAAAJcEhZcwAAFxEAABcRAcom8z8AAP+lSURBVHhe7J0FeFVJtrbpuTNz/5m5PXJn7ky70DRtuEOAIME9aHANDsHd3d3d3d3dNcTd3d3z/WvVOTs5pA90AlGy3nnWk3NqV9WuvRN6vq+0BARBEARBEARBKFaICRAEQRAEQRCEYoaYAEEQBEEQBEEoZogJEARBEARBEIRihpgAQRAEQRAEQShmiAkQBEEQBEEQhGKGmABBEARBEARBKGaICRAEQRAEQRCEYoaYAEEQBEEQBEEoZogJEARBEARBEIRihpgAQRAEQRAEQShmiAkQBEEQBEEQhGKGmABBEARBEARBKGaICRAEQRAEQRCEYoaYAEEQBEEQBEEoZnzwJiA2NhZhYWFISEjQpxRtUlJSEB4ejpiYGH1K7uDp6alCEARBEARB+PD5YE1Aeno69u7di06dOqno2rUrzp8/j7S0NH2O7MOC29fXR/+t4HB2dsbgwYPVs3Ts2BEbN27MNXOzYMECLF68WP9NEARBEARB+JD5YE3A9u3bUatWLezbtw8vX77E6tWr0aJFC/j7+yM5ORmJiYkqH5sFHi3gHnaGf3J+TfRzXhbb/fr1Uz3lkZGRKp3x8PCEo6Oj/puuLhbl/NOD8np5eal0rt/GxuZXgj0qKgovXrxAdHS0+m5Y3s/PT/X4a3B69+7dYWVlBVtbWxw5cgRz5sxBSEiIPgeozb549epVhtFJTU1FUlKSegYfHx/V9ri4OHVNg+vlCAoKQmBgoD5Vh52dnarTEH5v/H4M7ysIgiAIgiAULT5IE8Bitm7dujh69Kg+RYeHh4fq1V+/fj0OHz6s0lgAT548WQleFrajRo1C//79YWFhgQsXLigx3rhxY3z//fcYOnQIrl+/rozCokWLMkYYRo8eraYcMWw2uA5Oa9euHTZt2qR62du3b6+MBJsQ5u7du+jVq5e6F/989uyZSufeeC7L99+1a5dKYyIiItCgQQPs3r1bn6KDDQMHm56ePXuib9++yihwe0JDQ1VdHD169sCJEycwceLEDHPChmDKlCm4efMmTp48iR07dqh0buOgQYOU6eB2r1q1SqXzOxo4cKCKLl26qPcjCIIgCIIgFD0+SBPw4sVz1KlTB+7u7uo7i2RDRowYgaVLl6nPLIRbtmyJR48eKSHMQpvLuXu4w97eXvWir1mzBj16dIe3t7cyEYcOHVJl+DoL6j59+mDevHmqB75Hjx7KHHAP+t69e/Dll18qscyjCFzm+PHjqg5zc3McPHgQAQEBWL58OXr37q1GDJo3b64MgKur62u97fwMbFxq1qypxD4bGe69Z27duoVWrVqpUQC+L5uNlStXqhGGkiVLYsWKFeqZ+F6dO3dWxoR5/PgxzMzM1DSjWbNmYdy4cSqd34+V1Uj1vPfv31fluW1sMLitXA+3vVmzZhnmRxAEQRAEQSg6fJAmgHvVTU1N37jQlcUuC3smPj5eza9nE8CCvkP79hgyZIhaT6BNx2HBO3jwIPWZYZG8bJnORDCnTp1S4prFMc/Z37RZJ7K5Thbn3CPPjBw5Evv374eTkxPKlCmjpvNwO7hMmzZt1P179uyBPXv2qPzGcHBwUAK/c+dOJMKbKqHOhqBq1apYu3atEux8T+7h5+lGjRo1Unk0eMSARy/Y/CxcuBBjx45V6TNnzsSMGTPU9CEW98+fP1fpGi4uLuoeo0ZZqdEOrp/fsZubmz6HIAiCIAiCUFT4IE0Az3/n6UBZp6vcu3dP9a5PmjRJCWeGe7hZNHNvOsNTiXgaEffoDx06VE394XUFg4cMVtcZNgHcI65x+vRp1fvP02iGDx+Obdu2qXSe8mPR1SKjt5zLsaHgaTXVq1dXIwoXL17EuXPnlHHhnvt+/fpkTGMyHMHgUQZuqyGtW7fCxo0b1DSeJk2a4NKlSzh79qyqj3v++T20bt1aTWnS4ClRPCLB74an+/D0JoYNwPQZ09Wc/6ZNm/7KBLD5MDGppUYRtDbz+9TWVgiCIAiCIAhFhw/SBLBg5rn1PLWHe+NZELOwZnHLQp2vaQt9WcB//vnnamoM5+URAO5B5x77hg0bqqk7PE2IhTNPm2FBf+DAAWUceIEu94Rr04F4IS5PmdmwYYNqBxsL7uHXpvXwXHo2CDy/n8uzCeDPPCef5+vz+gQLiy50730qv6EJ4HzcZl4nwM/z5MkT9XzcNmtra2UC+Ce3j43Gw4cP1dQgnu5jOBLAcK9/lSpV1BQkbUE09+yPHz9efR45coQyLHwfbhuvI+Bn4LULPNLAIyRPnz7Fzp071XQpQRAEQRAEoWjxQZoAhqe1LCKxz2K7Q4cOaNu2reolZ3hHH56+061bNzUXngWvm7ub2sGncxddOvfs8/x9FuI8954X8PLuQseOHVN1L1myRL8w2EJNqdGmDnE6GwuG5+hPmzYtY0chnsZz5swZ9fnGjRuqfI8ePdUagKtXr6p7sZm4du2aymNoAvgzGxl+Di7Hz8ULjrktDPfQ8yJenk40YEB/NX2HhTsLe23tgFYf70jEaw+0xdEMC/otW7aoz2yUhg0bptrFdfI1hp+HR0h4TQK/P562ZNhGQRAEQRAEoWjwwZoADRbAPP0m61Qa7uHnhb08nYVHDrQe8cSkRJU/63aZvHaAzQOX0+AedhbbGiyIuT6tLh4Z4N59TSjzNcOec66L72W47ahheWNwfdzurFt3Mtxmnraj3YOfy/D+hvCaAL6uwWZCMxQa/LzabkYanIfvHxwcrE8RBEEQBEEQihofvAl4H6SXWxAEQRAEQfgQERMgCIIgCIIgCMUMMQGCIAiCIAiCUMwQEyAIgiAIgiAIxQwxAYIgCIIgCIJQzCh0JiAxMUEdbsU76zC80w3vUKMdSsU72vB13lnn5q2bePnypUrPCyIjI+Dq6vraLjq5AZ8szPv8P3jwQB0SxjsPvSu8ZSkfSlYQ8DkLWXdREgRBEARBEAo/hc4E+Pn5qgO3eBtKhn+ampqqw7wYPsCKD93iPf2trKywZs0alZ5d+KTcrNtevok5c+bghx9+UFtl5ibcbj7Ei08k5v32ed99fq53gQ8+M9zvP7u8785H/A5r1aqFAQMG6FMEQRAEQRCEokKhMwF8Mq65uTmOHDmivrPALVGihDoMizl77qw6wIpFKJ9ku3z5cnXSL5/i6+/vp/IwvI8+H/bF5bUTe7nHvGbNmli0aJE68TYlOUUd8sX5+H4eHh4qH8OfWaDXr19f3UODRyD4lGAeIeCTeflEXW3UgvfO53J8qNa+ffvw/PlzlW4IjypwvWxe+GRiPseADzPjg78YNgNa7zrvyc+nFEdHR6vvfCYBn2R87ty5jAPAvLy81PNxG/gzBx9IdurUqYxyDJ9FwIeY8SnFPr4++lTdwWF86BcfUKadV8D18QgDH072JnOyfft2dUpxs2bNMp6Tn43PTvDx8cGN69fV+/Gmz9o1D08Pde3y5cvqfQcF655BEARBEARByF8KnQngHmo+ZXfu3Lnq+9SpU9GwYUN1Ki9PCVqzdg3GTxiP1JRUZQIaNGiApUuXwnKgJbp0sVAClqfx9O3bB2PGjMGoUaMwbPgwJbh3796F0qVLo1evXtixY4cSrNwbz/m4/pkzZ2YIehbxQ4YMUcaBT+nl8oy1tbUyEpx/+vTpaNq0qbo/w6K5du3aKn3SpEmq3ZqZ0eDn41N315IJ4APMXFycVRu004y5vevXr1ef2ejw6cUPHz5UU2+6WFhg/oL5GGhpiW3btqk83HYW8XwoWJ8+fVR+PrW4Y8eOasSBn4ffCZ8APHrMaNUuNiFcN09H4s/8rrnspUuXlBEYNGiQyjd69Gj1TrSpWBo8RYtHL9g88e9HMzB8yBm3h08jnkd1Dh48GC1btVLGiE0AjxqwweNTkXm0h08+zu6ojCAIgiAIgpB7FMqFwdyD3K9fP9XbzYKdp/B07doVTk5OSthu3bpV5WOxyvkYnlffokVL1UvOn3nOfTKJ0jt37qBSpUqwtbVV+Vgk37t3T33mXvbq1asroc/inOfqs1hl4cx179y5U+XjnvqrV6+qz1xvqVKlSJg/UN+5bJ06ddTIAI9GVKhQIaOXfvfu3dSmFggLC1PfNdgEVK1SRQlzFsyNGjXKGIVg4bxy5Ur1mdc+mJu3w/3793Hx4kU1LYpHStg8aCf2slHh98HCnE0Hj3IwfBIx1xsaGqoMD5sCNgpMdzYha9diy5Yt6tn4eXlEhA0Aj3KwyeHn5HR+J5ox0uBRlNatW6v8/F66dOmC2Bjdicz8e+rfv7/6zLDwnz17tmoflxk3bpxK5/fdpXMXrFq1Sn0XBEEQBEEQ8o9CaQK4h5rFJPeis6BkEdqvfz/VO9+7d++MhbAjRo7ImCbEU1+4d5qnwXCP9ObNm2FpaalMBM9d5yk6XA/Xe+PGDVWGv7NQ555+CwsL1ZPPJoDFd8WKFVUPOU+hqVevHsaN14lXvne7du3UZ4YFPpe/cP68mqozkMyDBq9naNasqVq/oKGNBMydN0+ZGo5169apnnjusR85ciTWrF6t8nIveadOHXH79m01NWjWrFnqXmx8tDUSbCS2k8iPi4tD+w7tcevWLZXO03i4p51HO7gcm53x48er3n3ujefnZoPA9+PnGUnvko0Mv5Ndu3ap+3TtaoETJ46rNhvCwr1y5cp07YQyEz/++GPGlCAW/TzlSGPb1m0qjc0Lv2PNTDE8zWrEiBG/ql8QBEEQBEHIWwqlCeCedJ4u0qJF84ypJsuWL0PLli1VT77Ws86CdsOGDeozT9dhcc0jATwnnnvgWQizoG/Tpo0yAWwOePoLmwyGv3NwL/XJkyfVVB6eI889+tWqVcPUaVPVdBc2Ho2bNFbrAbgXnE0B95wzPH+/cePGasoOj2Bwz7oGp/G8eZ6nr8Emg82K4TQhHpGoW7eummrEopinCjG8roHvxaMZ3E4Wy3zfFStWqGlInMbTh3h+PpsAfjbN4Li5uqnef27fwoULlRDn9vO75XfC74uNBcP34Wk8ffr0Vu+C75OcnKTeJb8TbpcGj7KwkeJ3OmPGDDV1y6S2iRL0XI5NF7dPY+HCBeqZuH38btjIabApmTx5sv6bIAiCIAiCkF8UShPAjCKBzwuCWQAzLNz/9Kc/qfnzDPdY81QYbToJ9zTzgmHuuWfxygt6WRCvXr0aX371Ffbt3asEOJsInnLD02u495rF8V66xkKa1xew4GUxzd81eE487+bDPdw8N//zzz9X01r4XjxtiIUvi2O+/umnn6rpPLywlnvTeX0A31eDhTKLcy7Di5a5153bxDse8WjGsmXL1L3YyHAPPk89YuPBz8LGiJ9tztw5aE0inE0Av4ONGzeqKUKtW7XGlStX1H2cnZyVEWKBz8/E74PXGrDZ4TZzGpsWLs9rAfgni3UeOeDRFx7V4LUGpvVMYe+g26mJ4YXQbEy06UgML9bmd8cjGVwPT7/iZ+N3yObmylVdm/j3w6aC1xJwm2uZ1FJGSRAEQRAEQchfCq0J4Gk3vCiVe68ZFrnz58/PELlsAnjqjza/n+e7cy+zg4OD6uHmxbosdneTkGWRz9NWWIzzvvzcs891s5DlMjy9hoUvC2y+H0/PybpglYUr76BjZ2erRiR4Pj2X4d5sFtoMryFgA8GjEyzyuQdea78h2qJjXlzMwpu3+dRENY9ycA87180imsW4tgMQ18dGgMu81PfOHz9+TO2OxM/MU3x4Sg/D+bk9/JO5fv26uiebnk2bN6n3yYaGe+J5KhIvsubnYMPD9+X7a+/EEP697N+f2ZvP8NoAfmYedWBzxHWxgeF6eYoVwyaJv/Oz8egKPwev9RAEQRAEQRDyn0JrAnIDFp4a3GuuwZ+1qTAMC1/D72+DRyZ4KgwbCm2hrQb3bvM6BMbw3sbgNrztvm8qz+lsgN4FvmfWNjPG7sXtMta2t83f5/ws9Nm4cBsNdxVi08HTgXjUgdvB044EQRAEQRCEguGDNgF5AS/y5d5zwyk+GjyFh3v1iyss7Hl3Ihb6WWHzwaMA2noMQRAEQRAEoeAQE5BDWOhqh2plhYWu4QFdxRF+fsMRAA0eQeBr2R1xEQRBEARBEPIOMQGCIAiCIAiCkAu8bdp0YUNMgCAIgiAIQiGDxWR6+utTj4uSwCx68PsuXu9XTIAgCIIgCEIhhafR8jRbww1OhLzg/UwAl+W1ocbWRRZWxAQIgiAIgiAUMvgcnQkTJqBevfqoUaOG2pmQzz7y8fHR58gfikPvOBssPpyWt5N/V3hXxGrVqqoDZIvKOxMTIAiCIAiCUEjgbbv5NP4//OEP+Oabb9CqVSt12CYfyvnnP/8ZZcqUyTgjKS/hs4f4QNbisKU3b+zyxRdfoEqVKvqUnMMmoGLFCur3VFQQEyAIgiAIglBImD17NkqUKIGBAwfCyckpo1c5Li4ON27cwHfffaeMgHZQaV5RvXp1lC9fXv/tw4anW33//feoVauWPiXnsAmoVKki6tevr08p/IgJEARBEARBKAQ8fvwY//jHP9CsWTOj5xExly9fVtOEQkND1Xc3NzecOHEC4eHh6rsGmwceMbh27dprh4zy5zt3bmPu3LnqlP9169bB0dFRfxWwfmWNXbt24ccff0SpUqXU57179+Lo0aO/uoe9vT02bNig2rN8+XI8ffr0V1NhkpKTcPXaVdjZ2an1DUeOHlH5ly1bpsoz/KxXrlxRIyBz5szB3bt33zilxsHBQU3bGTt2LFasWIGXL17or2TCZxLx4a5cL9e1fv16HD9+HDExMfocr6OZABMTE32KDj4b6vz58+ozv6OlS5di/Pjx2LlzJ/z9/VW6hm4koCKaNGmivj979kydnTRlyhQcOnQIYWFhKj0r3Eb+vfP74PfC79Pw98GwATx27Jh6pqw8f/4cR44cUYey5hQxAYIgCIIgCIWAqVOnqlGAc+fOqe/ZmVvOgpjL8BoCQ3gaD68jqFSpUsYZRizCWfjztKJq1aqhXr16+Oqrr5TxOHXqlMqzZs0alC5dWuX505/+hJ9++kkZAs6riVNuF5uHjz/+GJ999pmaRvPtt9/ij3/8oxKyhoKUzUrNmjXRp08fDB8+HF98+YUS2//85z/x9ddfK7E8a9Ys/Oc//1HpPAXq97//PbZv366vIRMW8//61z9V+7g9P/zwA/7617+qaUuG8PQprovr5fv83//9n6qXRb0x3mQCRo8eraYJcVv4nvwuq1atqt4L/3R1ddXn1JkAfg9mZmbKEH3++efKFPz888/q91O3bl04Ozvrc+vg3wvfg5+3ZMmSqvynn36Kv//979i4caM+l27NQqdOnVT6q1ev9KmAl5eXeoc8ZYzNVk4REyAIgiAIglDAsBBt2bIlidx//aqX+W2waGeR+ejRI32KDhb8bAIqV66M6KgolXb16lUl3CdPnqzEOa8/ePHiBYYMGaJ6ypmIiAg1DYmFO5dl4eri4gJ3d/eMAz8PHz6shGvPnj1VT3RQUJDq1WeDwW3hUQaNkJAQNc3mf/7nf9CrVy91v6jIKFy4cEEJbBbf3Ht+8+ZNdRgri1wWw2XLllX1avBox1/+8hcMGjRItYnbziK8/4ABKv369ev6nFDtYhPDop6fi9/Nnbt3VI+6Md5kArgX/7//+7/VtCit95+fh9dL/L//9//UaIQ2YsMmgNcD8Ptlwc+mivN7eHgoQc/vq23btq8dKjtjxgz1vvj3wSMc/LxsiiwsLNSaEH5mDf4dfPLJJ+qadk/+vbGBe/nypfqeUz54E5CUkoaIuCSJXIhwisj4ZKRlo2dCEARBEITsw9NFateurQSnoVD8LbSRAGMmoF27dqrHWqtvz549SqSePHlSfX8bLGizimKGRxh4FKFcuXLKMBjCIwRNmzZVowLcS82waOY2cG98VnPTtWtX1XY2J4bwNBpup9Zzz89iamqq1kJkhY3D1998rcyBBo86/O53v1NTmLLDm0wAT0/i9vFUHUNY8Dds2FDl14wFp/HoBJsdnrKVlTFjxihDcevWLfWdTRX34rdu3Vp9NyQ4OFiNwLB54no1Vq5cqZ6L6+cpRGwsePrUu/JBm4A7TkHovvY2TKafQy0KkxkS7xM16R3WmXkeI3Y9gmtg9v8DJQiCIAjC2+GeeRZ9FSpUyAMToBsJ4F5pntbyDYn0zZs2qTJZ5/lrsKDl0YCsuwNxLzz3sg8dOlSf8jo8MvHRRx+ptQgMPxebBt46Myu9e/dW04myzpfn6T3c025tba2+cy84T5dh4X379m3V668F3+ebb78h86Gbi8+wuWBR7+npqU95O28yATz/n0V31mlE3BPfsWNHZdi0dQYs1vk5efTE2NoDPj+Af08855+5cPGiek+bN29W37PSr18/ZYQMpxyx4eH1Ivw3wvfiEQfD0ZKc8sGaABufCJQdfwol2m5BiQ5bKbZJ5ErQuzTfAvPlNxAem6h/24IgCIIgvA/co9yoUSM1R19b9Jsd3mYCzM3NXxsJYHixMM8h5/n7f/vb35TwnT59OpmB14V4VhOgrU/gHmju7eb59sY4ePCgag//ZFjg805DnTt3Vt8N4Wk7LL6zPi/Pqed595oJ4HvyHHueIsMjCjzPn6dNacHpvXr1VHmZLl26qPn73KOeHd5kArT1E9qohgYL/g4dOpAYzzQBaWm8O1Alem/1ja7l4GlT/F60nvvde/ao79pajKzwKAS/5ydPnqjvWp08FYvLcfC6jPfhgzUBS8/ZkVglwdp1Jz7qvptil0SuxG6U6LIDf+y5B5de+enftiAIgiAI7wOLPF44y73DLHq1tKywYOXeYW1+vrYmQCujwXvf81QT7jHOOrLAhsPa+iX27duHbt26qfKDBw9SdWu8yQSwmGWBzouYjcFTjrg+bY0BC/y3mYAffij9myaA78nrB7iHn3cgYmFsGJzPzy9Tk/C9uEeepyJlhzeZAJ7zz+sNsh7Q9iYTwPfk3nnDKTwajx4/Uu9l4cKF6vuhw4fU9zdNWeIF1nxvXkOhwb8LfmdffvmlWkDculXrN+54lB0+WBMwds9j3ShAt10SuR1kBkq034btN1z0b1sQBEEQhPeFp4z813/9FwYMGKBP+TXHT5zAJyQAtd2A1q1f95oJ0MQ6T/Ph6So8xei3phcNHDRQTb/heeoaLGZZFGuLUDV4+gn3xrMI1jA0K7yYlsUri3UmN0wA35N3AmrevLn6/lvktgnw9vbWp+gwZgI4jcvztqoBAQEqzfC98Far/HvinnyGf39ct+GIimF+XiTOQt/w3fA2oTw9ibcE5eD6tm3bpr+acz5YEzBmFzmuNmQCuOfamJCVePdgE2C+BVuuOOnftiAIgiAI7wuL0e7duytxx0I4qwBnUcximMVnYKBOaHJPMuffsmWL+q7Bc885nXv0NRPAu83wIWRZxTGPQLDo5jUDGk2aNFaLf431NPMiXJ6vzqbFEN7hhuf48+Jg7Z65YQKY/v37KwGsbZ+qwQaBRzMOHDigTyk4E8BrFvid81QeQ9iQ8Y5HfNCbtk6B5/fz9C/u1c+6dejZs2fVfYcNG6ZP0S0WZoPBawJ4REC7H08fyzpSkV0+3JGA3Y+zbwK67NBFt52/vmYsLPT5uxq59qugOjPqN3a9CIbeBGy9KiZAEARBEHITFnvanH3ujZ84cSLmz5+vdrxhgc3bRGo7zDA+3j5qP3reQ557lXlPe15wq+2mw0I+Sr9FqGYMeISATybm7/369lWCk0U2C0uNRYsWKtHdo0cPtSsN/9TWHfCIAc9/5xGBESNGqC0wJ02apATpv//9b7V4V4OFOG/3mXUXHO715sW1PNc/q1jnKTPcTsOtL/lQNG43b4nJW2PyPXkr0ooVKuDf1A4+TVmDt0blsw2yuyaAp05xr3uFihX0KTrYHHE7jK0J4FGJ778vlWF2OI2NBz8//+Q28AJnfhb+zvVoi4I1uM28voHPMOBtQvmZWPjzOgc2Ddp9+ZyA4cOHqb8Jw+fkz7wego0d58kpxdsEWJBA54WuJOp/z9/b0+fObxHrLP71+ZWo5zUHXd5iHDhPh234XVe9EeD6+Z7G8halEBMgCIIgCHkGH7bFC35ZCPJuPtwDzKKW99k3PCxKg8U59ypz3l9++UVt76mdWMu97do2ltyDzNNI2Fxoh4Bxfp5/nnWXIBa3vAMQ18mjD9xLbrjugEcN2DjwYVh8nevj3Yi0hawabEDYwBhbQ8D75HOvvWZSNHitgmm9ekr4G8JrIfqSaeF78T353k2bNMGD+/f1OXRwTzw/N/e2Zwd+L3wYl+E2owz/Dri3PesOPDxCw+aMjRGfV6Cl9e3bR+0oxLsJselhE8YjDGyY+GwBY/C0ID4/wPCZLC0tXzMe3NPPIwD8vrLC75UNX3Z3QjKk+JoAFuMk+E1nX8C6K47YfccVg3c+xN/77UeJjiTYs+YnEf8HEr8dV93EpuvO2HDNCRbrbuMvvfcaNw6U9qeeu9F7011sv+VCZZzQefUtfKS/76/yF6UQEyAIgiAIeQ73lrMA5C0ysyNoPUgIsnDW5pbzT8N55ob4+vqqen9rYSnv7c/iW1sgnBU2D3y4WGBgoD7l17BAzjq1iXlTOrf5bWcSafc0XAxsSFq68Xrfxpve1ZvqUW3Mco2/G9bB79hwEffb4HUE/ExZzRjDvfyJb6mD63/T7+dtFFMTQEK803b03HAHgZE6B6dx5LEXPhl8iK4bCHUS7n/ougtTDz9HXGLmcEtyahrWXHbA/7ARMJzuQ5//2mcvVl+yV3k0EpJTMe3IC/yxB7WpKI8IiAkQBEEQBEEo0hQ/E8DfO25HmbEn33jg1fSjL3S99dqc/w7b0GDeJaP74rPj67/1vsqTcY+O29Br4x2jjjIuKQWNF15+PX9RCzEBgiAIgiAIRZriORJAAtyShLsxkc7cdgjE/w48mGEEPuq0HYvPvH5anCH7H7jjjyyMuXef4nf0+eDDzBX2WZl/8pWYAEEQBEEQBKHAKH4mgBfpkqifejTz8IWsvPAMwzdWx1Q+FvX/RbH1LXvi33QIwv/23UemgfJ30R2kddnmzQdpbbnuTPWSwSiqU4LEBAiCIAiCIBRpiu1IQP8t94E3rDm5ZuuPvw04oB8JIKHecRtmHc/cqzYrhx954k98H14XwCcUk7jfcuP1PV8NmXfCWtX5q3YVlRATIAiCIAiCUKQphmsCKDpuRymrY3jp9esV2MyovVSWRwHYAHAZEuxVppyBb7huiy1DEpNT0XH1zV+tCWix+Crikn59bHRQdAJqzbogJkAQBEEQBEEoMIrnSIAyAtvQcN4l2HhH6EsA8Ukp2HDFEX/jbUJ5ao+Wn8zA7+h73y334BUSq88NRMYnYcbRF/hvzmM4tYc+/4HKTDjwFBGxmVs6+ZGJGLDtPtTZAprBKIohJkAQBEEQBKFIUzxNAAeL8E7b8cOYExi87QEmkWBvueQq/tyH9/03MABasMgn8V55yhkM3/kQ4/c9Ubv8/IG3+zS273+X7fgvEsv1517C6D2PMXLXY9SYfo7uq68ra/6iFGICBEEQBEEQijTF1wRwsBHoQIKfT/7l6TzmFG87yIvFu8pH+fn0X463nRjM+Q3zctmibgA4xAQIgiAIgiAUaYq3CXgtPgBxnl8hJkAQBEEQBKFIIyZAIuchJkAQBEEQBKFI88GagDG7HqFEq426KT9qT36JXIuuFG03YssVR/3bFgRBEARBEIoSH6wJmHb0Ff7a/wg+HXkSn4yQyNWgd/p3yyPYc/fNpyILgiAIgiAIhZcP1gRMOOuLP497hv+dYY1/TJfI1aB3+pcJz7HrSaj+bQuCIAiC8CHhEJyIDQ/CMOdaMOYWYMy+GoxZV4LeGHzdWLn8jK2Pw+ESmrklfFHhgzUBI0/6o8QIa5SYaIcSEyRyNfidWr3CFvqPgyAIgiAIHxbXXGNQcbUrfjfeFiVG2xRo/G70K/zxLfERhbFy+Rn/NcEW1de54bFPvP4NFg0+WBNgddIPJUa+RIlJ9Ac8USJXg9/pKGtsfSgmQBAEQRA+JCITUtFqlxdpKGuUGE8i15gOyI8gYV1inC16H/LAWZtgnLR+PU69CsYZiva73VFirD6/sXryI/g9kS7qd9QPKWn6F1kEEBMgkfMQEyAIgiAIHyRuYUn4eakzSnAPu/b/++NI5FqRKcjvGGGNWmudMea0F+m612MUxehTXqi4wgklhhspm9fB78fQeND3amvdEJlYdFxA8TUB/Itj5zZB4q1h7N2JCRAEQRCEDxKnkET8tIiE9Si9CSCt9O95DjDf540eh3zQ7WD+Ruu9Pmiy0wtNswSncbSl68bK5VV0p3fAUW61Kz7i98N6knURmYByK10RnpCqf5OFn2JrAv44xR7/mOGE/5vtImEk/jXbGR9Pd8BHxt6fmABBEARB+CBhE/DzYjIB3NM93hZ/mGKHZQ9DkYh0JNP1xHyOhN8IY2XyMnj5bzrFw4B4lFzijBJj9B2m9L7KrxITUCh4owkgx8bituwST9RY6YuaEm+Mqit88PV8N/xusu69ZbxDMQGCIAiC8EHymgkYa4P/nemAW35x4EkukSR/CyKi3hLG8udlRFDw8t/w5DTU3uyu9JDSRmICCg9GTQAJ2d9PtsNPiz1Qe7Ufaq7yQ41VvoUyaurD2LX8ilr8fsgM/GsW/cfAcGqQmABBEARB+CDJagL+McMBV7xjVS94OAng4h5hFLH0LgITU1FHTEDhxLgJsMFfpjmgynIfJbCrk8AtrFFlhQ8FiXEj1/IzTMgIfDPfTUyAIAiCIBQDspqAv5MJuOwlJkALQxMgIwGFlDeZgI9nOCqBXdDi+rei7joS4Kt9UWGpDyovM54nP4JHA0ouoD9y7R1yiAkQBEEQhA+SN5kAnn8flk4iuJhHKEUMvYsAMgEmYgIKJ0XRBHCbKi/zQYN1fjhpE4drzvGYdSkM7bYHoNoK42XyOsQECIIgCELxwZgJuEQmgOfBswAu7hFCEU3vQkxAIaaojgSUXeKD3vuDERmfuc/sMesYVCcTUHW5j9EyeRliAgRBEASh+PBWE5BGQriYRwhFFL0LMQGFmKJoAqpRlFvsjSXXIkF/Yxlsvh+Fist8UG258XJ5GWICBEEQBKH4YMwEXCQTEEfXWAAX9wimiKR34ScmoPBidYJMwIgX+Gii/tArjvGv1PagVZZ7kwngXvW8i2pkNFi4s+Ewdt1YVF5O5ejnRXv+p6aDRwT6HQpEWTIH3GbetrPiMm9Vv7E6cjtqrfIlE6BfGKwFv1MrMgEPxAQIgiAIwoeEURPgGasWwwankgguCpGSdxFEEZkuJqBQY3XCFyWGPycTQH/EE/Qxzhofq92B8tYEsECvREK97lr+7K2fxvPbUXGpN1pu8YdrCB9FocMuMAlNNvqqa1wv11V/va96BjYExurJzWAT8J0yAQbvkd+p1UsyAaH6VgqCIAiC8CFg1AR46E1AFkFcWCMsTTdvn9uc28GLgvnQtPC0NNTcRPpoxAvSl/SuRr5EmZUuSEjNnM5d2PlwTcBxMgHDnuGjCeTQxutj3EsyAfaoQgK9BgvoPIhqJNLLL/bCwMNBuO8Rj4VXw1GBvvM9jeU3jPKLvDDlXCgSycVqHH0Zg8pUlqPcEi9MPR+KJ94JmHAmFOWo3qpkBozVlVthspJMwHzXzHfIwe905DMxAYIgCILwgVGkTUByOkJIQ/kmpuGRfzJueibhllfuxk2Ke97JuOaWiMZbvPH5DGd8MdcFn9HPOuu8cNs1ES/o+nOKZ17JsKN2xCUZzPEuRHzAJsBHbwJeknDVx7gXZALsSJB7kQlg8Zz7UY6EfPc9AXALZZ9IrjEpTQn3yku91KiAsTIc1UjMs1E4/JK9q44UMpNTz5LYX+Spyg8/FoTgGN0wU2B0KgaR0ShL17issTpzI2qt9CET4JL5Djn4nYoJEARBEIQPjtdMwDgyAdMdcJ5MAPeAB5HILszBRiCE4uCLePTZFYFu2yLQfUf2o9v2CHTZGgELKpc1OL0r/VT59Pl77QxHj52R6LkzQv8zEt0prTt91+rjPEeeJby21rOw8OGagGNkAoY+JdHKwzT6GPMcH0+xRZXlZAJWGhe97xpsKsov9oT5dj+89MuczsPY+iei4TofJeTfVLYSXWu0wZfK8nEcOrwjUtCB6mMTUGeVN645Z64VYNzJaPTcG4AydN1YvbkRbAJKziMToL1DDn6nw5+SCQjRt0QQBEEQhA+B103AKzIB9mQC4tT0mkAS2oU5eL4+x4LLsWi3MRxdSYRnN1jos5i33BuBAUaC03uRsbDgvPoynL/3rsiM6EWhXVd5yAi02RiGOedjkETtKmx8wCbAGyWGPKE/4OcoMVYfo5+RCbBBlWWeqEFGoHouRgUyAC03+eKhJ2+ilQmPBCy/HqbyVF1mvGyNFV4ot9ADlgcDEZ2YOZfskkMsTOha1aWeqLzEC9POhbx2nbEPTEKnnf6qfG4/E4cJGYGSc50z3yEHv9NhT7D1vpgAQRAEQfiQMGoC3PUmIOX9IsBIGMv3rhGUqouFV2PQcQv30nMPvU6svy04T2cyAWuvR8LJNwr2Pr8OZ78obL6tE/lanVr9hmFYZ08yDR2oHXMvxCBRTED+YXXMi0zAI/oDfkrCVR+jn5AJeJWrJoDrqUgGoP4ab1y05xlzmaSmpWP93QhUWuKJKiTkjZXXoiyJ+DW3w/UldSy5Fobyi3RtrbKUjAZ9nnc5lIzF639IT30S0Wqzr7rOhsJY/e8aOhNA/zHQ3iEHv9Nhj8gEBOtbIAiCIAjCh4AxE3DOLU63N37yu4V/crr6GURCPYQiVP8zmCIwS973Cc0MLGITsJlMAE/b4R55ntLD03zeEp23RMDqUASWXozAkgu/Dk4fczgCXSifsfKGoaYN0X3ZDHSgdswjEyAjAfmI1TFPlBj8gETrE5QYo49Rj/Hx5JdkAjxILLMof/+osMgDtUh4HzOYy6+x90kUXfNUJsBYWS2qLKU6VnriuovB1qAJqei7359MgIdBPqprsQdW3Qwng6HPqOe2axwar+c1CTwi8Ot7vGvwSETJuY6Z75CD3+nQh2QCgvR3FwRBEAThQyC3TQCL/HCKMArPxCTYxUfiZXwYbOLD4ZYQjxBKj6AIojBWPidhzASwEB96MBJWR6N+M4YeioLl/jcHXzdWLmsMOxSJXvrRADEBBYDVUTIBg+6TaH1Mf8j6sHqEjyflngmoSIK8xgoP7Hr8+uFezBnbGNRd7UUG4O2inK+VW+QOi11+CIimv1w9r/wS0WQ9jzK4v5a/MtVXndq/7UEkUgx2EWLO2cWgzio2Jq+XeZ9QJmAOmQDtHXLwOx3yAFvviQkQBEEQhA8Jp8gkfLeE/3+fN1R5iY+n2ykTwAdk+SdlP3h5ZDAJcxb/z2KDsSr4Knp4rYWp8xRUdhgNE6cJaO+5FHMCTuJWlCeCKT/vqWKsruyGZgYWXtGZgM5bwjHueBSsyWl4x6XAI/Y3IuY3wliZLMH3sQ9LwZQz0ei8NRzt9SZApgPlI1ZHPFBi4F36I36IEqP0MfIBPp74AlWWupP41onpdwkuW3mJO6pSPVvuRyAliwM4T2K84Vo2Cb99n2oUZRe6Ye6lEDV9SOPgsyhUUffIUobqq0TpNejzAcpjSDoVP/ycRx/cUSkb985OmJARKDnbPvMdcvA7HXxPTIAgCIIgfCAkJwBxQemwtU5Eu3leKDvWGd+Mc8JnMxxw1jNWjQT4p+jEfXaCe/Z9E1KwPeQ+GrpNx1f2/VDJeQxauy1AV/eVaO+2GCYuk/CNfX9UpvS5AafhEBetjICx+rIT/mwiKBawCdgSRkYgDHMuRqudjeKRjth8iDgKvteyG9GqDe2pDfMuRIsJyE+sjriTCbhDgvUBCVd9jLxPJuD5e5uAyos9lEBffSvsV73x99zj0GQD/eNZ4Ga0bNaoSvVUIcF+8lXmdKK4pDSMOxmI8gvcjZbhqLDIDaarPHHW9vVpSGwEtj+IQFVqYyUeETBSNieRaQIM3iO/08F3yQQE6u8qCIIgCEJRJCYoDS7Xk/BwawJuLY3DlTmxODEpGgcmRmHThAgsmhyCy0dj4eaRCl8W2qQzWHD7JhoPH4og/pyQivkBZ1DSYQAqOo7GPP9TuBnpCce4WHglJME1PgEPowKwIfgmGrnOwqd2vdDXawPsYiOVEeB6jNX/ttDMwHwyAR1IgHcgAT7rQhTCSBxFkjAPz4eIoIimWHZdZwLMqQ1zxQTkL3lhArj3nXv/y8x3w8zzwYhLfn1i/lPvBLTc6I1yC91UXmN1ZI2KJNSbrPOCjT/99epxD01Cq83eqPCWerj9fJ8Gazxx2/X1HYl4vcAaMihcns3K+xgeMQGCIAiC8OGRGJ0O56tJuL4kFqfGROPEiGicHBWN06OjcX5cDC6Oj8VliqvjYnGWrl+YHYMHxxLg6psKf9IZbzICvNM5m4DVAddUL38T19m4HOGKCMqv5v7TTy1Y7IfTz+cxIRjksxWfkREY4b0THvFJCKD0nBoBYyZgZj6bAL4Pm4ClbALo/uabxATkO1aH3VBiwC2UsLpH4l8fw+/h4/FPSRi7krh2R3US9NkOys+99mXmu2L8qUCExuoO7dJwor/mbrt81XXOq8JYPQbBbSi3wBWWB/xe2/rzokOsus4CPmuZ10KVd0OLjZ54nGVr0gQyKIuuhKAstafyEjYTRspnI0zICJScZZf5Djn4nQ68ja13A/R3EwRBEAShqBAdmIoHW+NwwioSx0dE4eToKJwayxGt4qQKg+9sEkZGkVGIxOXlsbCzSYEvCXgW3j4Jr0cIpV2JcENlp1Go7zIdd6N8Eck9+wlpFOmv5eXwpQgl4e4aF4cBXlvwjUN/rA+6iWAW9lny/lZoZmDeJTIBJMA7kACfeT4KoWm6Hno2A3kdfJ8oiiXXyATQ/c03kgk4LyYgX9GZgJskWO+ScNXH8DtkAp7oTYAbidzsRzUS0hUXumH8yUCEZDEA7mHJ6LHLB2XmuRgt+6bQ1emKTXcytwblZQGLr7J4d0ENI2WMBd+3wzZv2PrTvwAD4pPSsPhKKCovckPVxcbL/laYkHkoOcs28x1y8DsdeItMgL/+ToIgCIIgFAUi/dJwfXk0Dg+OwLGRZAJGU4zKRnA+Mg1HhkbizPQoWD9Ngl+KXoDH64JlCC+MHeq1Az84DMbhUGtEk8A/HmarFgUfCbFGsEF+Lbwp2Ag8igpCbecpanqQdXQEAo3kfVuwaeAoSBOgjQYoE6CNBIgJyF+sDruiRP8bJFrvoMQIfQy7RSbg8TuZgAoLXTDmeADC4l43AIHRKRh2xE+Jdhb1xsq+KSovdoXpKnfcdcvcGjQiPhW99vig3ILsm4BqFGXo/l22e8OZl9cbEE9/dNPOBFH7XVU+Y+XfFhkmQHuHHPxOLW+KCRAEQRCEIkR8VDruborDAcsIHBkegaMjcx5HRkTg4MAInJkTBQfnZPiSEWARzxFEAvxOpB+qOI1FT8+18ItPg1NMLDq4LcVfbTpikNd2eMUn68yCvoxh8CjC/IBz+M5xILYG3VP1Gcv3ptBGBNgE8ILc9iTAZ5AJCEklcU4Cnc1AXgcbgQiKxWQCuA3tqA1zxATkL1aHXcgEXNebgNu6eEcTUJEMgNkaD9jwRDcDgmNSMJqMQfkFJLBzaABY4JenenuT4A8xMBbP6K+44Rp3VFqUszby/dk4DDzgC2/ekNcA7/AkdCKDUJ6uGyv7tlAmYKZN5jvkGElheUNMgCAIgiAUEdJIarw6E4+DQ8NxcHAEDg17v9g/MBxXNsbALTQNPkk6ER5AAnx90C385DhU/Ywm2XQrwgfV7MfiX9ZdYeo0FQ+jAtWaAUPxzuEVR7qKyl+OIH3kNBJDyDB4k4ngnv2sed8UvzIBFPltAkJ5NEBvAnhRsJiAAsDqkDNK9LuqE63Db+li6A18PO4hmQBnEtiuJHJ/O2pQlF/gjFYbPZSYNuSRZzyarfdU4przGSv/tuB6F11+/dTdTXfCUFGJdeNl3hYVF7mg9go3nMuyYxDvNjRgvy/KzHM2Wu5tYUJGpORM68x3yDGCYsA1MQGCIAiCUEQIdk3ByUkR2Ns/DAcGh2H/e8SBIfRzIP0kQ/H4RiJ8eM4/iXA/EvJjvPehouMoXA53RwSJ/UeRQajvNA3/ftUNAzy2wC4mFn6Ul0V/1vCn9FfR0WjlvlAF5+U0Y3mNhWYG5l6MUdNwOKafi0IwCfAwEuhsBvI6+D48ErCITQDdv+3GMMw+JyYgX1EmoO8VnWgddlMXQ66TCXiAKovJBLDIXZK9qLrYRcWaWyFIp18sExSVAieysvufRqDBKndUIEFvrOybguurRnHGJnOv/5jENAw56IeyJNZz0r4aFBUXOsOEyqy7FQr7gET4RWYePHbwWQRqLXOh5yZzkaXsb0WGCdDeIcdwiv5XsfWOn/4OgiAIgiAUVtJTSYzvj8GuPqHYaxmGvSTgcyN29QnD2aXRcAlOVzv5+MSlo7/nJtRynoSHkcEISQA8YpMxwns3PrXtgSX+l1SaFwl13s+Ef7Jo588c3IvvFpeKXh7rUM91Gp5FRajRBe36b4UX100x51I02m0KRbuNoZhGJiCIBHgoCXQ2A3kdIWQC2AgsusomIBRtqA2zqA1iAvIRq0NOZAIu6wTrsBu6GHINH4+9T2LYiUQ2C+LsRQ2KyoucUZN+7n8cjsj4VDgHJ8KBTIBbaBK23Q9D7eWueiNgvA7D4PoqkGhvtcEDLjwBTo8Difdm6z1I0DsZLfemqER1saFYdjVYtcspOAkOgYkIpX9I15xi0HiNzqTwfY2Vf1uwsSg542XmO+QYTtH/ipgAQRAEQSgCRAel4sSUcGzrGYxd/UNzLXaSqdgzNAxPHyTCl4yGd1wa+npugInzZDyKCFG9+ByXwjxQ1Xkc6rpMxc1wH2UE1PQdvh4HNTLgqe/Jd49JQ2+PDTAlE/CUTACX52vZCTYVHLMvRqMtCXCOqQVkAhaSCWAj0ppMwEwxAfmL1UFHlOhzkUTrdZQYek0Xg6+QCbhnMBJgXPi+KSqSkDZZ5orVN0LgHJREYpsEN/10D0nC+tshdI3MAglyY2WzRpl5TphwMuC1P4pjL6IyRh2MlTEWbE6q0fMsuBSkRiZ4YbAj/eSzBnY8CEODVdk3J8YiwwRo75BjGEW/S2QCfPUtFwRBEAShsOL2MBG7BoRie+8Q7Oibe7G9Twi29QjG1T0x8OKRABL3I7x3obLjGFwL80EACXIPEuc8TWhZ4FV8Zd8XrVwX4GaEjxL3e4KfYaH/BTyOClPinU2BbXQczD2Wopn7PFhHx8BXX0d2QhsRmEUmgHvgOaacjUJgMolz0ltB9DOvI5jMBhuOBVfIiND9W20IxQwxAfmLMgG9LuhE65Cruhh0GR+PuYsqi5x0veIknnMUS5zJCDiRMHbGxtuh8CChzYKbxbcrGYGlV4OobmcyAk7Gy+ujKt2/MtWz70nm1qCp5BpnnA1A2bmOStQbK5c1tHtNOxOgtgflNmgGYN/jcJitdkW5eY6q3cbKZydMlrqQCXiR+Q45hlL0vYitt330rRcEQRAEobDy9FgstnQPwtZewdjWO3djs0UQTi2LhHskiX0yAov9L+Fnp+HYGfwUgSTM3WMA71jAKToRY30O4DP7XmjgMgPTfY+jntNUfGXXBx09VuJGuC9CSMDfCPdBNadx6OOxAa4xyfChsh5UR3bCk/Jy8AFhrTaGqJh8NhKBSW83AWwS3hTG8r8teDQglIJNQBu6f4sNIWQCIsUE5CdWBx3IBJzXCdYhV3Qx6NL7mQB9VJjvhHrLXZTQZiPAU29cSIDzzxln/VGJBH6VtxiBSlS+4UoXPPemfx16vMKS0HGLByrMe7uB0KIqGYAKc50w6ogvrMkmswGwp/t7hCXj9KsoNFvrivLZrOttYULvqeT055nvkGMoRd8LYgIEQRAEoQhwZ0c0NnQJxOYeQbkeGzoH4vCscDiHpKlTfi+EuKmFwUO8dsItJhWeJM7ZCPiSOLePjscsvzMo6zgC/7Hrjk9teuD/XlmgrNMInA11QQSZgFUBN/CdgyWW+V1VZTwouHx2gvNyzNCbgJYUk8gEBJAJYHFuXOQD4SlANAUfA8UbNvJP/h5GwdeNlXtT8NQjNhzzyQRwG9gETBcTkL9YHbBHiZ7ndKJ18GVdDLyIj0ffIRPgSCaARS6L5HeLivMd0Xi1K469iIBneHKGEbDzT8DEE/7qus4I/DrKznVA3z1eCIulvy4915yiqU1OqLzQ0WgZw6hGJqbCPEcM2u+Nx55xcNMbEA8yEpfso9FuI/0DnO9gtGxOQ40EsAlQ7/CS7ucQij7nxQQIgiAIQiGH9zO5tCoSa9oHYGO3wFyPtR0CsGdcGBwD0uBLJsAxMgnd3NeguvME3Az3h28cyAzogkcE2BScDnGClfdeNHWdi0Zuc7DU/wq8yDC8ioxGc9f5MHGehLvhga+VzU64s2GgmH4+Ci1JfLdYH4KJZyLhT+0KIskVQILeMFjkh9FP+/hwnIu0w46Qu9gQfB07Qu/ifKQ9HOMj1fVQyhdoUO5tEUh5g+nn3MvRqg3NqQ3TyIiICchHdCbgrE6wKvFKMfACmYDbuWICalCUJyHecoMbzryKzBgRcAtNxgufeAw75I0KJMRZsBuWq6bKOWDZ1SB9S+kfKMWKa0Fq6k7W/FlDGQCqt/cuT9yjv/iM+5IRuOkcg247PJTJ4PsYK5/T4KlPJac/y3yHHEMo+pwTEyAIgiAIRYBLqyOw2twf6y0Ccj243t1jQ+DgnwpvEtseUcBwzz2o5jxerQvg6TzcS88i3ZWCp+34q7Q0PIwIw8PIMNXj703pU31O4Eu7vpjuc0p918plNwxNQHO9AJ+QxQT468U69/47JcRgddBVNHObi1+ch+Nb+wH4yqYvvrUboL63dJuPDSE34ZoQpwyDYfk3hWYC5pAJ4FGApmIC8h+r/WQCepzRidZBF3VheR4fj7qFKgvf3wRoUY4EfftN7rjpFE2CPFlNyeE5+Q89YtFvj5caETDMz/c2WeqEKw6Ze/lHJaTCcp8XypB4Z3NhmP/1cERFul+Xbe647hyt7sMGQN2P/up77/ZEeSPG431CjQRMIxOgvUOOwRS9z2LrLW/9EwiCIAiCUFi5tS0SK839sKaTP9Z2zt1Y1dYP+6aFwjE4Dd6JgH1kIjp5rEQrt0Wwi0xAAIlyLxLoahSAwk0f/NmPIjgOcIlKxjy/8yjpaIn27svwNCICXnSNTUNOQqt7GpuA9cFoti5YmQA/MgEszlnAc5Bcw60oT3TyXI6v7fuhqtNYDPHZjpXBl7E1+DaWB17CQO8tqOQ0hq73R3ev1bgX46PKaXW8KQLoPmw4Zl/WtaEptWEqtUFMQD5itd8WJbqfItF6ASUGntfFgLP42OoGCXG92F5EAv09oxrVVYGEec8dHrjjEqN2CuJ9+tkQ8PcelF5+rj0Jc8rPIn6+PTpucYePwcFjvLC46Rpnda1GlvozgsqWn2ePNhtccd7GYOSB7vfUMw7DD3qTQaD7UHs4r9E63iFMyCyVnPo08x1yDKLodZpMgJf+CQRBEARBKKw8OhKN5e38sMLcHyvb++VqLGvpi0MLwuASka52B3ocHgkz19no5b4Bt8L8sT3wCaZ4H8eWwId4HhFNgj8d7tEk1ilsySScCHFCX4/NJLb7oonrPFwJ9YYPi3q67pLD0MzAlHNRaMoCnGLc6Uj4kjnhXnoeEeDpPdejPNDQdTq+sR+A8b4HcD/Kl/Kkqt5+PmYpnPL4JKbgbpQ3RvvsVUbAzGUGbkd6qWtcDxsLY8FGgKcOzbqoa0NjMgFTxATkL1b7bVCi20mdaLU8p4v+Z/DxyOuosoDEthLKJJhzIZQRIKE/cJ8nnpC1dQ8mI+Cv66G/ZBcF842uqMz3pLzl5thhxmk/pBn8LRx5Fo6qVAeHsfo5KpNBaLHWBSeeRyijwWcKuNJ9XvnEY+wxH2UguDzfw1j5dw2TJU5kAh5nvkOOgRQ9T5EJ8NQ/gSAIgiAIhRXXRwlY1dkPS1v7kBnwzb1o64ulZALO7IiCW7yut/9KiA+qOIxFGfvhqO08BT84DcEXtn1Q2n4wmpLIH+q1G5N8jsHK5wDM3ZfjF8fh+NahP3p5bMC1UF94s6CPerdg48DxJhPA03TsYiPR3mMpviMDsDLwCkhSIYGEP1/jNQ0cLOZZyLPgZ3OwJOgiviIjYOG+Eg7x0SpvVvGvhWYCZooJKDh0JuCETrBantVF/9NkAq7lugngYCPAPfEjDnnhlW98xoiAD/0FbbodTHns1X05Dj0N07cSSElNx4TjPihL5uBtAp7rnnPeD95hSXCkel34QDD/BEwnQ8EGges1Vu59I9MEnNEHvceBFD1PigkQBEEQhCJAdEgqdo4IxIImPljahoR7LsWiFj5Y3dUP9+4mwJ2EticJ8f3B1mo9QC2nSejovgpTfE9gld8tDPbcidouU1DW2Qo/Og3DLy4jVb4u7quxIfA+XkXEw+s9DACHZgImn4tEk/VBKsadjoBvAglzEuhBiemY739W9ezP8jsBPq/VNT4e1yI94BqXAJJXaptTDjYOHGwS/KncFL8jZAT6YWngBVXOX58va/AoAd9rxkVdG8zWBWHSmQgxAfmJzgQc1wlWTcD2P6UzATztJpdNAEdVEuKV5tlhykkftUuQb0QynnvFkTHw1l+zR4PlTsokaPC0oA6bXFGBTEBNI3VqwfV23+6Ou64xVG+KMgFLLwegGhsLeh5jZXIjXjcBp3U/B1L0OCEmQBAEQRCKAGlpwI0dkZjX2AsLW3hjUUufXIl5jbywe3oI7ALS4BpLQjyS7hMagL1Br9RP+4gkuJM450W+TlFpuBMajCNBjtgd+BIHguxwNcQXdhGJSvy7UT6n9wxnqoeDtwVtROKbBfjYUxHwSuC9+4HH0UGo4zIZLVznwSkuDn4JKRjtuw8VnEdhX+hTJfhZ+PtkCU63iY1AI9dZaOg6Ey9jwhBEaVnzcfBIAhuBGRd0bWi4lkwAGRExAfmI1V5rlLA4ihIDSLiS+FfR9wQ+Hn4FVRboe90XknjO5ahKgpwF+9xzfnjiGad6+SvOtVNivdxsW1ju8UBUAv1r1HPVPhK1qC1V59sZrU+LahTl59hi4F4P3HeLwfpbQTBZbI/KdK8aWfLmZtQis1Ry8kN6fyf1Qe9xAEW3o9h600P/FIIgCIIgFGaC3ZOxsb8/ZtX3xILmXpjf7N2Dy89t5IlFbbxx43IcXBMyhTj3yHtReOiFvbM+XDmNgq/xlJ+seQzF/LsGrwtgEzCRTACL74ZrgjD6ZAS843WLgTcF3UFph8FYEXgVsfT9crgbKthb4X9tLDDUewe84lPhT8/CaxsMg/tuw0jgLwg4h+/tB2F78H01GsAnHP8qL6XzKMF0MgFm1Ib61IaJZETEBOQjOhNwRCdYNQHb9ziZgMt5agI4qpCgr73EHm3WO9N3O/Wd08uSCVh7I1DfQh3LrwSgAol7FvlZ68kabBSqUttbrXeC6TIeHbDNUwPAkWkCTqBEPwp+jwMouh0REyAIgiAIRYhHx6Mxt7EnZpt5Yl5TL8xr8m4xl2KmqSf2LQqFfWi6Et5OEbpwNBJvStdCK/u+wSMRzhQTzkSQCQgkExCIUSfD1XQgv8Q0jPDZjcrOY3A1wgPRScDR0Ff4yXYIPn3VA53clsMhJg4BLOZZ3BuEMhGUfi7MCeWdrDDB9yCZhXRlDrLm1UzAtPNsAgJRj9ow4VS4mID8RJmALod1Pdf9SLRy9NFMAInnRSxyWZznTbBgrzDXhkQ7C3U7VJ5vg7pL7XGb/6XoiUpIwYA97ig328ZoHcaCTUCFubZ6Y5H3UWuxA5mABzoD0JeNAL1HNgJdyQTcEBMgCIIgCEWFxLg0nF0eiml1PTCzAZmBRl45jllmXpha2wPrhwXgmXMKXEj4GhP2BRFsAJwoxpMJqE8CnMOKTIAfCXiPhER0dF+GRi6z8ComArxJ491If3Uw2de2fbE+8JYyAJqwZ+HPoYn7QLr2PDoMZm6z0MNrLdzjE9WogWEeDs0ETCUT0IDuX5dMwHgxAfmL1d4XZAIO6nuwj+uiz1F8POwSCei8NwEcLP61z+Xm2KDjFmcERSXrWwg88YxBwxUOqEii3rDcb4VhvXkdmSbgmD7oPfan6HqITIC7/kkEQRAEQSgKxISm4sicYEw1dcc0ihkN2BC8HpxmLH16PQ9VZvUgf9x/klioDACHZgLGno5AvdUBMKUYcTwMfnzycFw8WrkuQFu3RXCMjUUQCXivuFSM9zmIL+z6YGXAVdXbzybAi/KzcWCRz59Z6PtTOMTEoiXV0cFjGZxi41SaF4VmGJQhoDK8QHjKeW6DP+qsCsC4E2FiAvITqz1kAjof0InWviReOXofIRNwkUyAjU5ILyDxnU9Raa4NmqxywP5HIfAKS1S7Au24F4zys1+hGrXHWJnCELXILJWcdJ/e31F96M2AxUEyAW76ty0IgiAIQlEhPjYNp5aGkNB3x+Tabpha102J+zcFG4YpdShfHXdssArAw1fJcEki4R1Fwji88ARPCWIzMOZUhDIAdUmADycT4MsmIDZBGYDmbvNhHx2tBH4Aifa7EZTPZSoqOY3CsVAbBFMap9uS4HeMiUOgXtz7Ubyics1c56GL50o4x8Qro+BJdbNR0MKb0thITD7HbfBHbWrDGDEB+YvV7uco0Wm/TrT2IfHK0eswPh56oUBMAEe1+baoMs8Gbdc5YfopH3Tc5KzMgbG8hSV0JuCeMlAq+D2yGehyAFuviwkQBEEQhKJEfHga/F4m48HWOOweGIpFLb1J5LthkomrLmobhP77FDIJvCB4a68gnJsfg3vHk/DcOhV2YSS+YwB7Et72JMILOtgAOFCMPhWOOqtIgK/0x7DjofAmce4Rl4w+nhtR23kS7pHw56k/niTW+eeu4Cf40XEIKjuNwd7gZ3gUFQRLzy2w8FiFk+EOcI9LUdOBbkb4opbrJAz23g6P2FRlDrgOw/CifDwtaCKZAG5DLWoDm4AEMQH5h9XuZyjRcZ9OtGoCtuchfDzkPCrPtUZNFrncA5/PUZWi4mxrlJ35EpXmvEKNBcbzFZaotdAe3064S+/vsIERoOi8X0yAIAiCIBQREmLS4HIjCTeXx+L0uCicHBWFM+OjcXxUJHYPCMGaTv5q2885jT0xs6E7ZjfyxMJm3ljVwQ/b+wTj6MgInJ0QjdOjo3FyZBTOTovG9R3xeEZmwD5SJ77tSIgXZHAb2JDwYmATEt+1VvhjyLEwMgC66Tzz/M/hZ8dh2B38VPXwczobBJ+4dKwLuoVfnIbjR4ehaOgyE9/bWuL/XnVDfdcZuB3hjwgS95uD7qvdhZb4XVKjBTwKwHUYBhsBNgcTzkaoNlSnNowiIyImIB9RJqDDXp1gVQKWotch/LflSVSY9RwmPBJgRPTmR9TQh7FrhS34PX0x5joZqIOZ77EPRed9ZAJc9W9bEARBEITCSrBTKu5siMWJ0VE4OiwSx62i1GeOU2NJ2I+LxokxUTg8IgKHhoXjwJAwHBwajsPDI3Cc89B1zneS8nA+LnecjMCxYWQkZsbg7rkk2Aalq1EBY+I8v0IzAVYnw1BzpR9qrvAjExAKt9h0tQbgdKgjKjiNxmCv7XCLSVZinYU799yzoN8f8gKt3RbhW/v++NKuDz6364XOHithExMNPzIKfT03UvlRuBjmrkyFu4H4z2oCxp0NR62VvqhGbbASE5C/WO1+ihLt92SIfxUsZHsdxKejr6mRAJNF9qjFi18lfhUs/mvT+yk38yn+RMapRM8Dme+xN0WnvWICBEEQBKEQk5YKuN5JxNmp0Tg0OBJHSeQfsyITMCpS/TQMTjsx+tdhLO8xTtOnHyFTcWxEJK5sjsNLjzQ4RJMgDyuY4HUBPC1oxIkwVCfxXX25HwYd1ZkAnqdvHx2Pdu5LUc91Bp5F6hYMe8Tqgufz+1O8jIrCtqCHGOdzENP9TuFWhB9CqeyB4Fco7TgYAzy2kIFIUfm1soaRYQLOhKPGCl9UXeaHkWIC8herXU9QwnyXEv1KwGrR4wB+RyL23yMvodSkuyg9+Z7EG+LrcTfx5wwDYPAO+XPH3dh6zUX/tgVBEARBKEwkJ6TD5kw8jlpF4ODgCBwhA5BXcXgYxaBwnFsRg2dOabCLAmxD8z/s9WZg2PEwVF3OAtwXlkdC4RpDJoBEu01UHNq6L0E7j6Wwj4qHP4l2bxbuMYC7Pvg7mwMv/kkRSnE5zFMtHuY1A+dCXVW6lj9raAuFx5wKQ7XlPqi01BcjjokJyFd0JmAnPlLidf/r0YOi+z58RIL2d2QSJIyHek899v36/fWi6LhLTIAgCIIgFFJszibg4JBw7B8Yrqb48PSePAuun+81IBxnlsbguVuqMgKvSJjnZ9iSAbChGEomoAqZgCpkAgYcCYELmQDu5b8d5o86rtMw0nsv/Eiwu0an4nlkDF1PVddZ3PvoxX8gi3nKcyTYTq0L+MahP1b734QPpXlQuL0h1JQgitFkAqqyCaA2DBcTkL+M3PGITMAO4yaAg8UtR/e9Em8KYwaAg01A+53YctVZ/7YFQRAEQSgseDxOwqER4djTPwwHWJwPzofg+wwKx95+oTi/IQa2gbqpMdzLnl/Bvfjcgz/yZLjqga9M0f8wmYDodASQMD8T4oQqTmPR330zlvtfRw/PdajvPANW3vuU2L8bFoQn4RG4ExaIQ0E2yizwQmLeOWiR3yUyDSnwpPqNiX8t1JQg+skmoPIyH1Rc4othR8kEJIsJyDfG7HtKJmA7iVa92JfIxSCD0Gkndt2W3YEEQRAEoTAR5pWKk5MjsKtPKPYNCsXegfkXfL89A0Kxn+Lkvljss4vD7lex2JtPsU//s9u+IDUKUIFMQN9DbAJ08/23Bj7Ed3YD8KVtb5RyGISqzmNh4jQJ3zlY0veBqO06BWZus1HLdTK+s7fEtw4D0MZ9CfYGvYR7TLoyAK4k8DmMGQAOzQTw4uRKZALKLfbBEDEB+cvmGy4o0XknSnSh6LZHIreiO0XHHfiH5SHcdwnWv21BEARBEAqapLh03NwQje09QrCbhHiBhCWZgP5hWGMZjArjnfHxVFv8bYpdvsZPi9xhsspPCXA2Aa5RgDcZgQ0B99HBYwVGe+3Hev+7uBLqjYfhYdgS8BBDvHaqtQJN3ebD3H0ZhnruUukvIqPhS2XdKbie3wpeF8BGYASZgIpLvFF2kTeGHAkRE5CfBETGo+OaW/hdx+0o0YGCf0q8f7Tfhj93242pR18iMTlN/7YFQRAEQShoXO4lYkefEGzvHYKd/UILNPb1DsXgAd74/RhblBj3CiXG5l98N98dtVb5ouxib/Q5GAxnEufcS29N2vBlZCzc6LsPiXo2BiqUgE/Hq4h4PI+IUT/5uw+le+rFv0s2g+/jTiZg2IlQlF/shTKLvDD4SLCYgPwmOCoBG644Ytz+pxTPMF7ivWLsvmeYcOAZDj/0pD/mVP1bFgRBEAShoImPTsOFxRHYZBGkDvcqyNhGsYuMyLY+Qagz0hUlJtmgxEQyA/kU3y1wQ/WVPvh5kTd6aSaAxDwHT9UxJurZGHjor/NPwzxc3jDv20IzAUPJBLAB+HGhFywPiwkQBEEQBEEQ8gCnWwnY2jsIm3sEYWuvgo8tFHt6BGNCf1/8ZbSdrpd+TP7El3PdUGWFD35Y6Inu+4PgFJmuxLkTiXQtWNgbhuG1N+XJTriy2aB7DToegp/o/t8v8ES/Q0FiAgRBEARBEITcJTUFuLwqEms7BmJT96BCE1u6BWFt90CMX+uPcZcCMO5cAMbnQzTa5I1fFnuRAPdAVzIBjpEkzrOYgLwKXoTMRmDgsRCUpvt/N98DfQ8GigkQBEEQBEEQcpdA52TsHhqMNR0DsN4isNDEOoo17QNwfzOp43zUwKNPBaPkXHeUIgFusU9vAkiYO9HPvA7NBFgeDVEm5Nt5HuhzIBDxYgIEQRAEQRCE3OTZyVgyAP5Y0ykAazsXougSgFXt/bF9YBCCPVL0rc17hp8IwjdkAkrOc0fnvYFwiCBxTgLdkX7mdfCUIF4b0P8IGZH57via2tHrQICYAEEQBEEQBCH3SIpPw9nFYVjW2g+ryAisLmTBJmCVuR9sr8bpW5z3DDsehK/muCkj0GlPQIGYgL6Hg/DtXDd8Qe3oecBfpgMJgiAIgiAIuUe4bwp2DgnEkpa+WNner1DGUmrbpTWkkPOJIWQCPp/tRkbAHR3IBNiHkzgnE8BmIK+DpwSxEehDJuArMgHcju77/WUkQBAEQRAEQcg9XB7EY3VnPyxp5YPl7XwLZSxq7oO9Y4IQE5Y/5wsNOhaI/8xyxWckwNvtDoBdmE6csxnI61CjAXSvXofIiMxxVe3ouk9MQLEiKT0JCWmJ+m/vTzr97cQmpiGGIq3w/R0JgiAIglAA3N0biYUkspe09sXSNoUzFrXwwdru/vB8maBvdc5xcHDA1atX9d/eDpuAf5P4/oRMQJsCMAF8r55kAj4lE/B/1A4LMQHFh6jUWEzyXYzhXjPhkxSoT30/ohPSMXS/L3rt8IJPeJI+VRAEQRCE4kpqKnBmaRhmN/DColY+WNSycMZCMgELmnrjyclofctzRkBAAKpUqYI//elPOHbsmEpL597RN2B5NBD/mumieuFb7/InE5CevyaAovvBIDIhLvjXDBd03ismoFiQijSsDNyOirYtUc62Gcb7LERs2vsvhomIS0O9pS6oMNsRzoG5N8IgCIIgCELRJCEmDQcmB2FWA08saO5dqGM2tfHi2nCk53BGUGJiIvr164cSJUqoKFWqFFxcXPRXjdP/cAD+Md1ZCfCWO/xgEwo4kAmwJZGe12FPBoDXBnQ9EIj/m+mMf0xzRsfdfmICigMXo26irkMn1HPsgoaO3VDdvh02Be/XX313IskENF/tBpPFLnAJFhMgCIIgCMWdcP8UbBrop0zAvKZehTpm1vPAoRnBSCQ9kxNWrFiRYQC0aNOmDSIiSGm/gb5kAv5GJuB/ZzijhTIB6XBgkU5mIK+DRwP4Xl32B+KfdP+/kQnoICbgw8clyRPmLoNQw94cDRwtKLrCxL4j6jlY4FrUfX2udyM8LhWNVpIJWOQCNzEBgiAIglDs8XdJxrJO3phZ3wNzGntiTqPCG9PqeGDzYH9Eh6bqW//b8BqAv//970r4/+Uvf8Ef/vAHNSWIv0+ePBnJycn6nK/Th0zAX6Y54a/TndB0uy9eFYAJ6LQ/AH+n+/95qhPMd/mKCfiQiUyNxmjvuahs11oZADOnbhTdYebYHdXs2qCT6zC4J3nrc+ecMDIBDVe4ofZiF7iHyJoAQRAEQSjueNslYX5zT0w39cBMEtqzzApvTK7lhtU9fRERmL1Dw1jgm5qaKsE/cOBA1KhRA//4xz8wffp0/POf/8RHH32Ep0+f6nO/Tu9DfvgTie+PpzoqE2AXTiYggkR6WN4HmwBeE9CZTMDH0xzxpylOaCsm4MNmc/ABlLFtgvpkABb7b4K56yAyAD2wJGAz2rpY4sdXDTHWZx7i0uL1JXKGmABBEARBEAwJcE3ConZemGLihhkN3DG9fuGMGRQTq7thyzB/xEVkbzpQamoqVq9erXr8g4ODUbt2bfzxj3/E48ePsX//fowYMQKBgcY3X+lx0A9/nOxAAtwRppu98SI4HW5Ruq078zpcKezJDLTY6Ys/T3FQ7Wi105tMQP5sj5oTxATkEssDt6GCbXOsCNyuevxZ+Neyb497Mc9wOvIKqti1xljvee+8SFhMgCAIgiAIhvD8+v1TAzGmvAsm13bDNFN3TC2EMammG8ZXdcW1HeHAO3SI8+Jg3h3od7/7HW7duqXS3rY7UPcDvviviQ74eLoTPpvvgo77/WF5Ihj9jgVlO/pzHNdHlmtvC75P14MB+Gahq5qOxO1ouUNMwAdNVGoMHsdZK5HvmuiFls79UNPeHNf1awGextkgKCVUfX4XQskENFjuhjpLxAQIgiAIgqDDzykRa/p4Y0wlF4wiMzCqQuGK0RQTqrtiH5mVyOBsrAdISWHVr/+iIzo6GlWrVsV//dd/4caNG/rUN9ONTECJCfb42wxH/GWaAz6aaI/f0ffsRonxdigx2hYlrPQxxs5ovjcG3e/PUx3wd7r/R/S9OZmAODEBxQPHBHe0cu6vTMDVqLv61PcjJCYVpktcUW+ZKzzDxAQIgiAIgqAjyDMJFzaEYvuYAOwcX4hiXAB2TQjArb0RiA3P5oLgxASkR0XpPut7+3NqArrs9yEhb6sMwJ8p+Gd2g/P/bYYDaq93Rac9njDf6YEyy5yN5n1TcB0c/zPdQRmKpts9xQQUFxwT3HLfBESLCRAEQRAE4c0kJ6YjOakQBbUnhX7mCBb+Wab65NQEdN5HJmCcLf401UHF/8tm/ImEO48g1FjjCjufcMTGxyA2LhoHngYqY/Bfk42XMxbq3lzfODIB28QEFBvEBAiCIAiCIOQOOTUBnfaSCRhrgz9OsccfchB/nGpP5exgvsMDSQkxSE6IBVJi8co7HJ/MdUSJiXb4A+UxVtZY6OqzRZOtYgKKDXllAuqKCRAEQRAEoZiRUxPQbrc3Sli9wu9ItH+Ug/jdJDuUGGOL6qtd4egXgfiYaCTExeDQs0D8eZpurcBHlMdYWWOh6rOyQYNNHmICigvOiR5o7TIANezb4XLUHX3q+xFEJoBPC26w3BXe4cYPxxAEQRAEQfjQyKkJmHwxEH8Ya4PfjaHgnzmIjyj+e6ItflnmhLobXGCy3gWfz3Mwmve34iO6/+9Hv8LgE/5IScvhtKh8QExAHuCW6IU2LpaobtcWFyN1W1m9L4FkAmqRCWgoJkAQBEEQhGJETk1AYHQydj6NwMo7oVh9LyxHsYZi5d1QzL8RgjnXdLHoVkjGtaz53xYr6P5bH4XBK6Jw6jYxAXmAW6InmYABZALakQm4rU99P8QECIIgCIJQHMmpCRCyh5iAPEBMgCAIgiAIQu4gJiBvEBOQB+SFCfCPSkb1Bc5otMINvoV0WEkQBEEQBCG3EROQN4gJyAPyxAREJqPafGc0XukGv3wwAampuv2Gk+IlCmUk8N7Lv9pKWRAEQRA+ODQT8HsyATf1JiBd/g/wvRETkAe4GpiAS0XIBLCojA5PQ4hfCvw9UuDrkgQfJwpnLZIlCjz0vwv6vfi5JCPIMwVhAamIi0pHWjYPYxQEQRCEooSxkQAxAe+PmIA8wD3RG+1cBqKafVtciLypT30/8tIEJManI8w/lUR/Mrzsk+BJoX460E+Jwhv8e7Kj3xMFf/d3S0ZEcCpSZLaYIAiC8AGR0+lA6fI//Zt4O2IC8gDPRF+YuwxCVfvWOBd5XZ/6fviSCagyzxlNVuWeCUhKSkd4YCq8nfRCkkSlt6NEkQy9KeDfI5u5qNA0GRkQBEEQijwsZ2VNQN4gJiAPyDQBbcgE5M4fKy8GrjTXCc1WuyGADMH7EhOZpsSih74X2aiwlCiSwSM5bAYCPVOQGCfDpYIgCELRhKf8pNL/jcXExGTLBKQiDV5JvnBKcFMHtxbXcEx0U+8hJf3tvYFiAvKAwmwC0tOAiKDUjOkkxkSkxAcQ9PtlI8DrB2IjZUhAEARBKJrkZCQgMi0Ggzwnw9ShM5o790Ez597FLvi5TR27YLDnVISmhOvfjHHEBOQBeW0CeH3Au5BGBiDULyVjDrlR8SjxQYUyexRRoWIEBEEQhKJJ9k1ANHq5j0UV29aoR0LY1LFzsQt+7ip2rdHbYxxCxATkP3lhAnzCk5QJaL7GHQFROTcBPAIQ4p+ipv8YE4sSH2g46Y2AfRKiw8UICIIgCEWPbJuA1Gj0cR+PGnbt0NCxGxo4di12wc9d3b4d+nlMkJGAgiAvTIBHaBIqzHFCq7XuCIpO0admH941hkcAeJqIUbH4lvC0T8wIY9ffNXydUuDjlPyrdE+HRBKuv74X399YemGKrO3T9cS/vc3G3kFuh9pJiNoSF01uUBAEQRCKEGICsh9iAgoYnyR/dHAdooZjTkdc1ae+H+9jAuKi0nRiNIdrAFi8+jqnIMKP/gEGkJHwBfzoe24IcS+KQHfA3zU9oz5uo49jsrpPiCey3CcZ4T5A8K/S8yN++37cJh8yNaHeoHeWrJ6F0/xdUhHqhTeUYQOge78B6j38Os+bI+fvwNMuUZ0tkJwki4UFQRCEooOYgOyHmIACxjcpAB31JuBUAZsA3ibS3z1F7RhjTBi+KZSAZWHqmIBDu89hxaLNOLrvEjzsYpVw1fLperGN92S/6RofdBXskY6ta49S3ZfJDLBJ0Ylo/nnp9EM8vO5I90/T56f7UV1XzjzGA0r3I2Gtq5eF8JvukdnGzLRf53tzuq5eP+dUBLi9LuKN5Wez5PoqCjcvWsPFOkrd35fK2j8Nxu3Lr3TPp2+n7jmTSPjz9UCMHTkTV8++JIOje16Vx8gz6SJZjaAEkYF60/O8LXg0KNSf/ijEBwiCIAhFBDEB2Q8xAQWMD5mA3B4JcA/RmYDW63NmAiJD0t5pHQCLWhbZg/qNQuMGrTF04Fg0MG2KKeMWkGhPV3m4tz7cl8IHqrebha2fS5r6zD3inK5GD0i08xQfFq2cxpEaBVj2scKU8fNVHTzVJ9ADcLYOQa0aDeierUjs8khEmrrP/evO+Ne/PoHV0KkIo/IspNU9qCzfI5jKch1sXLQ2cQ+77jl09+VynJdHIDhvEJXhPFqbuH263vs0lS+KrvH3hzfdM56N6+Z6+Cd/53SOEHrm+9ds0cSsHW5feqXq5joP7bqANq26wM0mVpemtY2C2+zwPBgzJi3FjQu26nm4Hu3dRVJef5d01VZ+Dr5vJLWJ63lEbXK1idY/n/HfodHQtzc+VlyAIAiCUDQQE5D9EBNQwOSFCXAOSkT5OY4w3+iBkJjsmQA+OdbXNTnHowAs2FkEXzhxF5Ur1ITj80AgDqrX+srpF5QnWQnzBzccMGfaKkyftAS3SPhymRf3fancQ5w8eBOTyDBsWn2Q7p9AYjZZmYfDuy9hwui5OLLnIiz7Dsfc6SuVuGWhy6LY7qkP6pk2w2effYXLp55kGI1lCzbhrx//HWNGzNCZDIorp59g2oTFmDdjNZ7d8VRpLtaRWLNsNyaNmY8dG46R+I5CoFsq3e8Kpc3D0nkb8eyeFwnpNDy/547lC7eo9hzdd02NPPjT+/KwjcG6FXtUvaOHT6N7LEGYV7oyJds3HsfEMQuwee1hEtMJZAR0oyx877tXrVHXpBFuXXyunoWF/P4dZ9CoYSv1DrwcY7Bx5X5MHD0PW9YeUm3zcojHhZOP4fgijCIC548/pLiPqRMXY9WSHXB9FU3tT1bTivjdzZi8TL3vQf3GwOlFMALcdKMoxn6PbwoeDQj2SYGcuC4IgiAUBcQEZD/EBBQwhcUERIel6RYDGxGCbwuerx9Egv3lA2/UqtkA40fNwP1rNiRGqc4AnpefhntX7dCyWUfMmbocs6ctRaMGrfHyoTsunb6HH0uXJZE6loT7WtSq3gBL529CEv0dblh5ACY16ishO3bkbJQu9TMWz12vxLIyAST4n99zQXeLgTBv0x2Tx85FFN3PzSYafXsORZcOfZQJiA0CTh++jWZNzOkeGyltOtq17kb5vDFt4gJ07dSb7rUdfboPI8HvgWP7LqGJWSusW7ZZiedt64+RCYjHyCGTyYiMxrKF69GwfjOcOXJX1T3Oaraqb+Hs9ahWuTaJ74uICwYmjZ2PztSGzWu20nULTJ+4RIl9bSTg3tVXaEAG5tbFFxkm4MDOs2jWyFw924xJi9G5XQ+sW74NfXoOJ+NkA7dXAWhq1gZXzjwiA+WDMj9XRJ8eQ7GU2tSgXnNMHrcQCWHANjI0XPfiuetU+vRJS9UoRk4NAAe3l3cNkoPEBEEQhKJAvpoAB30Yu/amcDKSllvhlLPnEBNQwBQGE8BnAgR55XwtgBYsFFnIXjjxCF3a94JpncZo0qg1Du68pAS91dDJJNS7wfpRAOyeBqNhvZZYumANrl64SUK2Ep7ctlPzzpcv3IBe3Szh6xxEYrgdtq47BMTzlJdkmDVojplTlqqefs0EvLjvik7te6ve/DYtLKgtkTh96BoG9LbCnOkrMdRyPBmRJHTr1BdDBoyDu100iW9H1Khqin3bj2Pk4Ino33sE3GzD4OMUjthAYPXS3ahftwkZGXv4uURQxKm1DtZkWuyf+uLK2WeoVLEmtXWr6tE3q98c547p/iMzcvB4LJyzDA4vvFG+bDW6x3m4U90bVu1H5fI11Px/nrLDIxZsAurXzTQBPOXn4M5zaNa4nTIJA/uPQY+uA+H0Igh+zuEI9kqF3RNvNKfrV888xtM7nijzS0X6fFfde9fm42jepD1CfKIxsJ8VZk6er9K3bzwMiw79yMik53w6kD7YHEYGyZahgiAIQuEnX0yASzeYefVEIw6PHjph/wYz0NCZ6tZfb8g/nXWff5XfWNqb4g1lG1Ld6h7ZrEdMQAHjm8wLg4eisl0rnIq4ok99PwxNQHA2TEBifDqJYH2vrxER+Fuh5sa7piMhlOfQJ+LlfX/MmbYS1avUVqK/P4nymtXqwrLfGPTtORId2/XCmSNXcfbYJTVC4G4brHrP1y7fiQF9hpFZsFXz/K+f0wlkFufDB0/CjClLMqcDkZB++cCNxH9nEsK30dNiII4fuEDifwHWLttHIn0bCf+xCPOORROzFmjUoCV9n4BeXYegW+cBuHrWmgR2CCz7jkCj+m0ofSCZCk8Sy8mYN305mpq1R4sm5jhx4DqJ8kSsXLxdjThY9rWCSc16WLlol+p1nzllGRmRnlgwew0a1G2BS6fu4OaFhyhd6hf06T6UYiR6WAzCsIET4GYTQ4I+TYn8O1esUd+0WcaoSZg3cHQvj0K0Vb8Lh+eBGDJwLBpT27p36kdt8yYTEUAmwFwten54wwVNyRDYPPJBIr33PdvOoFXzjlR3gpoK1LxJOyyYsxatWnTC/JnrVP3vMhLAwSYg0DNFLRwXBEEQhMJMnpoAEtdmJPpNX3TCLytM8MPMKqh6pIlKY/Hd0DWznoZkFPh7Qyfdz0a+vVD5YGNU3GuGJkF9YOZO5kEv3rkHnw1FRpoq011XF392oc9cP5sPt+5o5N1TmYv6DhYqT2NlSHqg3CZTVD/fUrVHa8fbQkxAAROQEozObsNQya4ljodf1Ke+H/YBiSg72xEdN3kgLPa3TUBMeOp7jAIkIsg9FfevO2LvtnNKpKvee68UVK5YAzcuvMD40TMwsN9oxJLQD/dLwtM7HlQ2Gsf2X0BLEq7O1v6IDwFWLd2Gfj0Hw9MhAA1NW2DPlpNISwSi/NPUyMDMyUvUWgJeh6BMwEN3ZSLuX3+BresOkwjuhK4d+5AJ8cTiORsweMA4RPonokPbbphLpiQhGgjyjMOjW+5weBqqhDZP6fF2D0EH804YNWwqtSscwWRkosNSMX/OYnXf88fvomb1Onh42xr03wx06dALq5duRXoMsHDOenQy74EFMxfTsz5EOl2/c8kW1avWI6HuiMiQZHjZR9BnNzV1io0W98rbPvZFjWqmJPwvIJXq4Xe2aPZqep4O4K057Z74IYbMj59XBLpa9MTIIRPh5uCljMnVM090JqBRWzJCXkgkM7KL3lUreheh3ok4dfgmWrfogmkT5+Lo/jOI5npcMrdXzWl4Upt9nJORlCBTggRBEITCTd6ZAAslxutZd8YXfX7EtyPK4ueltfBJh5IkvuvCjER4fdsuGcKeBXo9+v799Coou84UDUi8/7igBkrPrgbTl51Q50F7NYqgzAJdq3mtDeo87qDMQH0ub6sT+FxXPTv9ZzICps87ocbV1jpzwaaA6uC6at8zx7ejyqHC9oZo7NdL147X2v/rEBNQwBiagGO5ZALsSPiWIRPQabMnmYDf7r4ND9IfDmZEAP5WsLDU9WzbklCuh+5d+mLx/JXo0K4b2rS0gL9rHG5esEadWmaYPG46Fs1ZhjYk/J/cdsGpI5eVkHVhExBKJmDxFnTr1A/RAelYMm8LalStg/lzl2D6xAX45qvvMX/m6tenAz1wRbPG5rh18RXVEYaS3/6APt2HICE0HbOmLIdl71HKXBzceVGtL5g7axGmTJiFzu37wOahJ0YOnYTuFgOwesVGmDVspub/79h4ktrUBiuWr0O3br0xiMzLk9tOqFe3MRbMXoqVSzajzC+V0a1zXxLzsRg6cBzq12lKBmUBJoyahgvH7yHcJxkjBk8iUW6ONSs3oXd3S0weyzsl8baeuq06w7zTVBurVKyJaZNmYozVRJQvUwW7N59UaymGD5qCrp36YuWKDWhk1gwrFm+Dm50vmpi1USbgwXVnmNVvpQyPMgGbT9H9OpHpScbGVXtRoVx1TBk3l9o0la4dg49TKsW7TQdSuwSRSYyPkcPDBEEQhMJNXpmA+vYWaBzQG2VW1cYXvX9AI7/eaBY1AFVPN8Onnb9TAr7UpIqo+6Qj6jzpgNKzqqDqyWb4X9NP8X8tv6LPzVFmdW38mz6XmlxJlal0qLHq1f9+aiV8ZfkTvqR6qxxujNok6rkuFvk1SfD/QMaB7//NyLL4dmQ5fN7rB5SaVlmVLb+xHj7v/j2+tSqLfzX6HJUOUp2+YgKKBAVtAnjXlxDflHc2ARzqMC+3NBKmTiSGF2Go5RjMmb4cto8D1RabvE3ltbPPSZDOxOjhU3B031US8cl4ds+TBPp5EvUxCPZIw53Ldji+/zp4m1B/11RsWr0PwwaOxfb1R3Dy4HVlJnhXHu5N5zwu1hE4uOs8bJ8Eqb3w92w9iWvnnqtFtlfpfmcO30YA5WfDwNN6Rg2bggmjZ+LSqUdkXFKUkOb2Dh84HptXH1R1Or+MxOql2zHMchzmTONnCFKjG2eP3oUVmYbVS3fQszzF+lXbsXf7WQzoMwIb1u7A5vV7YDV8HBmXerB/6kf3TcTKRVvJDEzEwtlrYEPvguvXeuN5fj5/377hiNpSdeSQCerZ+Tm4zY9vuatF1MMsx2L98t0k4JPVuQsHdpxT79XheRj20/15nUGIZxoe3XSj8pdh88gfg/qPxqJ5q7F10z7Mmr4IFStUx+E9lxHh/+5TgtgExESICRAEQRAKN3k2EkCiugmZgFKTKpHAr4ZGPiS0Kb3ey074tGNJ1LjQksR5adS+b446D9vjC/pc51F7lBxfAWXW10HT0L74aWENfGZRCg3du6P81nr4emgZVNzTUJVr4NwNlckUfNn3B1Q91Qyf9yitphhVP90cX1v+rEYV/tn4S1Qmk1DngbkqU+1cC2UAqp9voaYo/bv512q6kYwEFBEK2gTwouBAtSj43cShFtri4GgSmmrffPrJBoBFJ1/jRbScxnvXq/npVIYFPQt2Frh8f+4p533vOT8fcsV5I6kMi3DOx9NoNBHLebhnm6/5uugO1OL8vBuRGimgvCFe2sm6ur3/uS5uA7eF09mc8HfeOYfLKmHunKryac8Q4Karg9vF+bjt/JwpsbwLz2FUrVwL16/dhvVzB6xdvQ61Tczw6pGfysd1qLoz6sl8x/yZDwjTnpHvxW30dtQdgsbvTr0vqoOD8/IhaJyHT2LmtvJn/snPy6aJ11Xcu+qMSuWrYcfWvbB56YQjh06gppp2dEXdy7ANOQmeLhYZIosCBEEQhMJN3pkAHgnog5/m11DTbpqQqG8a1EdNw/mETIDJzbb4ou+PqPeqCwnyziTmf0Tdpx1RamJFVNpvhpaJg/DTghr4cW41tEwepMp9M7yMGjEoNbUyWiQMRD2bLviy30+ouLshvhr4ixLzNS61wteDf4apdWd8znU+64j6dhb4lgxEhR0NdKMSnj3QLKwfvrUqhwo7G6KRmICiQV6YABu/RPwyyxFdtngiPO43TABd5kWfHu9pAjhYYLIgZcGY1VSwkNal6/JpaTqRbpDHQKRqZTi/LjLzasH52VCoz3RPzudDn7UyWj5dXbr2Zdajayt/fz2v/hk4PUualpen13DP/Owpy9GulQW6dOiLrh374dShW8pcZN5P10at7qzBdeny6j4bpmeUp59aunpeyq/lycxPQWaHRxF4WpN5q66woDZ1aNMD65fvhb9bsjJbWv6cBo8UhQeLCRAEQRAKN3k5EmBGYtvkVlv8p923KLu2jur9/6LfjyTkq6KRew983u17VNhWH2VWmeCfjT4jQ9AZ30+rjO/Gllc9+T+Sgfjfhp+h1rXWKE3Cv9SECqhxuRU+7fSd6tXnNQPfkLg3udsOn3YphSpHm6LUlEr0+Tsl/D/tXEqNNJiS0WCTUf0i3b/XDyiz0kRNPfq7yX9QcY+MBBQZ8sIEvPSJx88zHdFtmyci4vPPBBS3UCceewPutgFwfO5F36PVd2N58ytY6PPoiLdjGByee5JpCFGjEjySYGgachpiAgRBEISiQN4tDNYt9uUFwNVJsPPC4C8tfybhXl0JdJ6fz6L966FlUXpGFWUSeDFxrRtt1HSecltMUe18S/wwpxq+m1gR31qVR+275kqwV9hZH18N/gUlx1aAye12ak5/+a318TWl8XqACjvqq0XHZdfVRd0XHXWfN5qqkYMaZAR4pIDNxk+La6LW9TbKkBhrf9YQE1DABKaEoIvbCFS0a4Ej4ef1qe+HtZiAfAtfEt3+bmmqB57n+BvLk9/BRoBPDeYTgnma0PuMAGghJkAQBEEoCuSlCdCCRwTUNpwu3dVuPryAl6cLqXS37mqrT05XefXfec4/7wLUyEeXn8ubuenEOpfTpenzqjTK50pp9JOva/m0w8bU/emzqsedyrly3b2onu7ZGgXgEBNQwISkhKGr20hUsG2BQ+Fn9anvB5uAX/LABHg5vj0Pi03uHTd2raBCm87z6/SCNT38ntQ8fyPXchr8LLyFJ5/sq00VyghKU8Gfs1zL+m5+VdYg2AREiAkQBEEQCjn5YQJUsNDW4k3X35Se9Zr2Pes17bvhdcNrhnmyXs9GiAkoYPLCBLzwjsfPMxzRY7sXonLBBLA45MPAeJoJi1fjYpEX9yaoXWv4p49+K8yCDl5gy1uYaltzasE7BnEYpuVP8HtOhvPLMLi8ishhLz2Xzfw98fQeXlzNU5D8XBMQ5EGf1bPqDBk/twpP+t1RHnVNGQVdG3jtAv8+ed0BG5JQeh++xowEBZsAWRgsCIIgFHbe2QSQgOZtODlyKqbzIuobSctO5KScmIACJi9MwFOvePxEJqD3Di9EJ7x9W8d0uhzs8/YtQnlXntuX7DBxzDw8ue2JILXfve6aTjDqBOXTOz7o33M4nt3xVDvoZJ2DrgleTmfRyTvbZBWc3DvNO/RwXsNr/NlYGf7M03B4p6CsdfF0GF4ku2LRdvrOveW8T34ypQOb1xzGmmV7VH3avbgO3Taer9eTtX7+qWtLZl7tWXV5M9uupfs6pSrBHe5Hpss9BUMtx2PejDXq3ANvrpvy8D0M69SV53txG1OUoOfThTmN6w1wTYabTSQWzl6Hvj1GYFD/Mdi37YyaCuRpH48VC7dj6MAJGDlkKiaMmoNTh26qOnh3IU+HOGxddwR3r9ir3Ye8HOKxaPZ6XDnzQv2+tftrwUYhOky2CBUEQRAKN+9iAlj087Qd3gK0SUAf9bnAjAC3xb07GvJ0H2PXjYWTfiSDy1I5nnaUnfaLCShg8tIE9MqGCWDCA992WFgywrxTMHr4VPzh93/Egpnr1LaX2hQT7l3mMwIC3dNh88gPjRq0xP1rDmo7Sh490EQw98hzrzWLYSV8SZT7OifrtgSl6yxy2ThwfZ4Oul5tzUiwCOYyLK79XXXbgnK7WOxqh4cFuKXq6jIQ0Nz73bxJO/y///cn3Ln8Sl1ngWv/NACff/oVqlWurdrI9XNenj/vRffWtt7k71zGwy5e1c9nGejeB9+f2qy/B0+zCXTT9bZzXt6elE0Rj67wegF+Jn+XFLjahKpTlV2tQ3Hl9AN1yBnfg4V9OJX1c9EZJV39bJh0i3y5LYHuyTh79A6un7emunVGI8QT6pTjlk3bk9nZhemTFsGiYz84Pg9Rh6dVKl8dgweMxuqlGzFpzHzUqlYPC2at1Z26bB+JenWaYO/WI0iLAgb2G4OWzcxh98SHnpVNSaaB43fKJiAuSkyAIAiCULjJqQmobtdWzd+v+6SDWnjLUfthe50RYKHsqjuZN0M4O1Hw/H5Xum74OeO6Lr8qw9e5vF6kaz9VOFPw/H5O4zJUh6qL7stnAfBiYLU+wOCaKsd1qvr19+Qy9FlbU1B+Sz1UOd5U1359Wc5jeF+tfWwCaogJKDgKgwmIDtdNCdFEX6b4Y3GdjpcPvNU2mNMmLEX7Nt1IYAarXm0WoeeO30f3Tv3Rp/twzJyyFC2atceT2x5YPn8zLp58TOJVJ+aP7L2KNct2wcc5HovnrEO3jv3RrfMAHNx1kYR8Gp7e8cBSKrN0/kb06DIIvXsMITPhpOu5JgG9avE2tQ2nRcc+2Lh6PwLcSajax2P+jFXoSnX16jYE547dU1N8NCPAn/v0GIwfS5fBnGkrdHvyU3APeLkyldGhXQ8S8ilKpJ88eAP9eg6HRYd+WEhCmUW7m00MZk9broR1b6r/womHZApSsXPjMfS0GIRunQZg7bLdarrNwxsusBo6GV3a98WQAWPw8Loz5U1T06MmjpmDnl0HoU2Ljhg+aAKJ/hjs33EGpw/fIcGfhk2rD2D14h0YNXQKzFt3I0F/RBkJNlZ7Np9C1879qfwANG/aDlfOPFXvRBkWxziY1GpIz7NP/R7TY1jcxygzYffEH/VNm+PeNUekRUOdKnz+2B2UL1sVty69pDYno0UTcxzbdwGzpixCA9MWcLYO15mwLFPD+KAwPqMgKT5d3UcQBEEQCis5MQG9yQTUcusAkxtt8alFKZQcVwElx5THV/1+VKagsV9v1H3eSYVaiEsiWolv+67qZGBetFvfpgtMX9J1A9NgSvl5WlFDEvF8ejALeDNDIc7BBoDzKxHfTeWrb9cFZmRIeLvPSgcaoREvCqZ66z7uqHYCUmaA6q/7vKM6g4DzcvqPs6upA8M4b6W9Zqh+prnarUjV+4jqJTPAi5DrO9D93HTlTV92RiNKk5GAAiSYTIBFLpuAJ56Z04FismECEuPSVM++YS86B4tBFs2b1uxH5/Y94escgyaN2pJwvI6YQODFfV/UqlkP82auxK2LT9Gz2wCU/v4XEs+hmDBqGgb0Hal66nn6UIe23bF62SYq4wyr4ZNx78ZLbFlzAHVqNoS7bQQeXLfHN1+XUicK379lg949LUnAD0VCaCpWLdmFuiZmJJqvkAA/QoJ4IOyf+WD+9NUk/vvj1TN3bFq3B40btoT1Aw8S/7oDvrg3vl+vYSTKxykh72IdQm1JwrBBEzHEchy6knlhsX3rojWaNm6No/vP49l9R7Rs3ha7t5zE5rV70KhhK7x66Il9O47izNFbeHTTFTWq1sXZo7dx/fJDrF+5W41abCXhPmvGYhL93uhLZsKyzwgk0r+nSWMXoHvnfrh59Rm1ZZAyFYlhaerZpk9ahuQIoHXzjjCpUR+Xz92jd70bNarXo/fkQkbCiZ67ERmoi9ix4QDl6wT7J0HKWLFBC/VKVz37lSvWwMTRc5XR4l78qADA5rE/TOs0xfnjj5RZ4ylWwR7JamRk8byNiA0C2rTspEYDOnfoSfm99SMprxsA3d9BEgI8UpCaov+DEQRBEIRCSo5GAjzJBLh3wLcjyuH7aVXUAWC8A0/1Cy1Qz7ozKmyvrw4A4z35+WTfxj698NOCmrrtQfv9hNLTq+D7KZXwWbfvUYPK1L7fHt+MKKPi60E/46eF1VXZUpMrkeDvhrJraqMaC3Sq58f51VH7TltUJrHP9fEWoV8N+VkZjirHmqLCroZKyP8wt6o6EOzLAT+j5rXWqHSwkTpk7NthZVCFzEK1U83xPz/9DZ93K6W2Li1PbWZDwNuIfkeG5os+P+LbkeXVmQU1r7aiz2UpyuGLHqVR42wLZYLEBBQQYakR6OY+CuVtm2F/2Cl96vvx0D0OP0x3QL/dPohN/G0ToFscnJxlShAfSqWbjtKtc1/Mnb4ciAOGDpyIYQMnqF7n9Sv2oC0JyQifNCV4712zQY1qprB74oX7V1+hZvUGcHkVQgLfFvVJkL6476Wmolg/9sSenfsxoM9QlPm5EuyeBuHuFWvUql4fz+44ASQ2D+89CfM2FnB38EabFl1Ub3ka3TOCFyc7J8OV6jWt3RiDLYdj396DWL50DX7+qTyO77+sTuBlA8MmoJtFf2xZewTdu1iqU3N5qlLProOxY+NJtG/THdEkmOfNWEFtrY2tG3Zh3+6DZALaYKjlaFw8eRN1SIQvmr0U964/RjQZH9vHAWjRpAOGDxqN0yfOkyBPUD32Aa7AzStPyDhsRV1qV5cOvRAXnI7+PUdi0azV6j0vnrcSPS0GkgBPgWU/K8yeulL10Ju36Upifg2QBPi6hJHRaoMLJy/h8pmHZE7akajn6VpBqF+3GW6cf65+J7z4mtcP8L13bzmBXt2Hqndv3qobnK0D4fQyhNrRRJkA7t3nqUWBZIA6tO2mDjiLDwFaNDXHxx//FaOGTVKm4E2LvtkEhAeKAxAEQRAKPzkxAX29J6Day9b4ovv3qHq8qTppl3vLm+hPAv6P+bfqMC8W1592Kql63z/tVEqd/Msn+f6jxr9Vr/0vy2upQ72qnW2Ofzb4HKaU7yvLn9WIQu0H5vi0y/eoTvm/G1denfLL9X9O96xJaXwOAB8yxiMHXw36CeU2m6LMmjpkIGooM8AGo+7jDqi0v5E6E6DGpZYk/psqMc8Ghaf8fNa1FJkJMzINPfCtVVmU39UAPy+rpcwFjzh8N76iOs+gypEm+FeDz1DveUf1DCWtyisT0F9MQMEQnhqJ7noTsC/spD71/XigNwH9s2kCGN75RZkAvQjkHmGexmP9wJfEdQXUr9dc9XCzUK9UoSaJ+VSsWLiBDEJ/hHmlq6k3PDLQqGFLPLrpphabtmvZlQTqISxdsBL9e1sp4Xn26F01DWXyuHlYPHc9zBq0VL3bty89R6tmHfH8nhsSQ4F9246jU/sesH/phOaNzXFo92XE6IUq93S72oSQ6K0Ly75WWDJvI2ZNWYZVi3fA+mGAfm6/bjpQ5/a9lDFYvmANRg+fiUVzN5PoX4xLJ++iJd2PRzS4LbWq18OiOetJmC9XC3bPHr2PGLrPpVOPYDV8CgnwxpgxaZm6N0+1mT11GT1fF3Tt1A8e9rHUhs1o1bQjVi7ejsEDxtK7GqYMxrmj96hsU/To3A9tycycOXJXvYcBfUZizrSVSKBn7UbXNqzai/hgwPGFn3re04cvI8w3Dj0sBlE7O6CjeU9Mm7iInp9PK9YWWCeokYyUCCgR7+0QiIamTbCATI2PU5gaCbh86qn6XbAR8HWJRr06jcgUHVRGqXWLjli2cDPatLTA2JHTVVrWhdHa54QYmQokCIIgFH5yZAK8xqvpMF/0Ko0KOxugWUS/jD35y2+tR6L8ZzQN7adGCFhwVz1B4ntUeSXEG9hZ4Mu+P6A+iWw2ENzbX5XFOQnv5tEDVE8/i/kmQb3xzbAyqHaqGUpNqojKhxrTffqrnv0aV1rhp0U18Muq2miROAilZ1dFmbV1UHZ9XZXGQp1PEW4ea4kmIX3VyEC5jab4fnoVfDOkDNVbFo0p7asBP6HW7bZoHtWfjEYF9SzfkBmouK8RWmOoWiPA7eLRjO/GV0ALqq/yPjN8Ryagpkt7GQkoKAqLCUhJSieRmLmrjSf95J7vRXNWoVnjtiTSrXHtnDWunn2GmjXq49i+c7hx4RGqVq6NJ7edSKCnYPXSLShd6mc8veOphO6WNYfQsEFzNKXyx/dfR3o0MGLQFFh07ob4mDRcOH0d5ctWgc1jH9wiE9DYrDWVdVFTZPZsOaymqwS6R2Nw/7Gw7D2CjEccXF4Fq17zJ7cd1VqAWdPnISYyGR4Ofji65xKcX0bphCw9A5uA9q27Ye/2o7B+5IA6tcxQu0YDPLj5AqePXkKThu0Q5UftJFHc2KwFnO29EBOajIunbuH+NRd6Pht67heqrevXbkS92k3x4Lozzh+/S8+bDJsnDqhWpRZOHLyLpmZtsXntdqQkAOOsJqNty87qHWxYuV/1vm9Zewz3rlkrsc73ZJMwiwwHm4BOJPDXLtuhPjuRCWjSsA3OHrlCv4NItG3VFXOnrVE7+/i7RalFw7qF0OlwsY7AuBGzcPzAZYR6JpPYjyNhb04mZhmZgFDUomc9d/QGGYA4Mk0+mDJuDurVbQKnl8Hwd4mHWb2WVPY8nK29ULVSHUyfOJ/emW5xsmYCeBQgyCtZ7SIlCIIgCIWdnC0MHgcTr44k1mvj0y7fodb11qo3n6fmVNhtpnroq55urkS+1iP/ZX8yAyT2TZ90wGcWpWBq3QkVd5O4JvFd9XgzEvc/oXFgbzVN6KeltdROPzydh+v9fmplMgc1YHKrLf5u8h/UvNoaP8yrhh8XVkdTMiAlx1VEmdV1UGZVHcpXDVXJOHAbTO6ao9yWeqi4qyE+o3ZW3tkIZVfUwX86fIuGzl3VlJ8yZBx4fQGPEFTY3kCZCJ42xOsVeJ3Dj2Q2KvNUoiFsbPqi/KZ6ykjUchUTUGAUFhPA8GFQ2gJhFtK8BSXPm1+5ZLsSqCyq4+gn95wPHThO9XSPGDxR9XTzvHvO27hhKzy/p5v24/QiDGV/qYxGJGp9neIR5Q8c23+D8jfB8MGTqewkNWVlydyNZAJeoFP73lTWHQlhwOFdp9WC2EC3ZDIGbmo+fJcOfdCmeWf07j6UhGokrp55Svdrjd7dBquFy0Msx8PDLpLanTkS0LfHMOzechxJ9LfN024amDZDHAnx4/svqYXGvk4p8HaIw6ABY9CyeUe1xWnzJua4edEWh3ZfQR0TM/TtNULdZ+HsjWpKE1/v0rEvOrTrie5dBpJYj8LMycvQtFEbtRVn7+5DSGw3o/a9xIpF29Q74MXOLZt1wpiRM+DrHIuxI2bQc29CbDDUgmQ2InH02fllIJmC3rhy+jbsnwWhRrV6aEXPzAuW25EhuHD8ET0XHzTGuxelYMakxWpEpGvHfmjRtAPatbaA/VM/eg9R6lnN6rdQU6Fa0ftr26Izrp19qnY/4vfUybwX9u88o6ZZ3b74Uo2GbF5zRI0aZI42JCIuWhyAIAiCUDTI6cLgGo7masHtT8tq4sveP+KLXj+oHnzudWdxr6b1WP6kevB5Ie7PS2ui1o02as3Az0tqoZ5tF9S42ELtysPpLL65LPfGVz7YWC3k/WWFCWqTkK95uTW+6PcjSk2oqEYF6vA0n31mqLzfDE38e1Md9dUUoKq8JoDKN/al+y2hdlEZFve1yDyUozxfDyuDH+ZWw7ejy6H2vXZqqhCblMqHmqDCtvpqYTAvXmYj8mX/n9R0IF4jUONiKzXS0NivF6qRuSm7ti5qOpuLCSgo8sIE3HONRelpDhi41wdxydkXcCnJgC8Jf0+7RBLHusO/eA6908sIEp26UQIWn/bPgnH/uqMSoT5OCTi27yr2bz8H28f+JOK91a46XJ73o+fyj2+7qik6PC+d9+i/cd4a2zccw7N7nnj5wBfXz72Ey6tIPLrlBne7WMqbDMcXoXh8y11tF8rTkhxIEO/ZehoHd50nARtN9eh2HXpx1wM7Nx3H0X1XqGyMfiqQbnErC9mnt91Ve3nBLE9tYoMSQO12eh5G9bupvAGuaWQE4nHiwDXs3HiC0l3UegLe0pRHQHjR75mjd1V9Qe6A9UNvassp7N9xntoZprbs5H35ecH0gZ0X4Gwdhie37XGI2so9+cePnMGzp9Y4dfwsypWtiIM7L5NB8serh/5ktpLx5I4H7J7yjkv8zuPx6IYrtSsSwwdNxLTJs6nsS9y7+xA9u/ZB5/Z9M7ZL5eCdgu5ceUXv8zjVe07t8MPvhc3c3St2OH7wErXrPC6evEPvLUYtEtaN9iSqHY0cnoeo3y0bpud33XH3sq36znVzHSE+KUiXmUCCIAhCESFnIwF8TkBb1YPeyKsHTF91UQtoeVcenkvfyLO7+m5q01ntBKR28+GtNdXOPvrtN/U7/ahdfnhLTrqekU+/I5DaUYjzuFF9JMZ5Rx91D77G5Tgf79yjldGn8X14V6K6Lzqq+/FnM7qn6YvOuvroM+8opOqldtbjz9wmvsbbhvLOQs866uolM6LazG3hMwScqW7KK1uEFiB5YQLuuOhMwCAyAfE5MAFMTESa2hJSmxbE4tBXzRPXCWv+yXvrs0jmz7y/P/csszANcOdtLVmg8sFauvxcXsurpbFw5fycl4PzcBnOp5XlkQj+rt2Tp7/w6AIHbxmq6iMhy6KcdzDi+rR0LqMrl6Su607FTcy4nyfX7/x6/Wxu+Dn4DAStvbwtJveKc/28GNdHb4S4Ds7HbWGjwHVzec7DwW3ntQbWj7xRr05TTBw7E0f2X8Sc6UvVeoh7V51UeT5DgO/D9fmrRbncdp3R4HpGD5+G1i06YO/2k9i28RDatrbAojkbVTt5upP2rCzstXfD7dHq4feq2qlvv26+v/Z+tBODdWkcfF/t2Xk6mK9zEpITxAEIgiAIRYecm4B2aOjQDfUdLJRoViKaRbI++HtGml7wq5+Gn6n8r9L4p/6zzjRQcH0szrk+w/xkHjK/02cV9Fl/T9UuZ26DhfrOW4Eqs6DPp9rOdao0fR18L/rM05F0dVFZ+qlOR9bfi02LbBFagISnRqFHITIBLPnCeDcaW52Qzm5kisvsRU7zc2hiNbvp7xJZ68kU28bv+6Y0nVlIV73xk8fOxfDBkzBl3DwyAPYktHkL08x591mD6+CdfzxsY7B66Q6MGDQZo4ZOw64tx5Vo5ylMhvc2NARZg9uhhbHrxkLLz4ZQEARBEIoS72QCDITxr0IT/wUZWduQkza9Ja+cGFzARKXFoJf7GJS1aYo9ocf1qe/H+5gAJjUVCPJMgccbTxGWyE6wMOfeeN5RiHvp+Sd/f5NgNwzOw9OpeMce7ZAzroOn6WSn/DsHiX/eJSoiiP4IBEEQBKGIkdsmgKcBZYwEqB51CuduGbsIvSm4B57XBvA6gtdO7P2t4HsYS8+DEBNQwEQbmIDdocf0qe/HDccYfD/VAcMO+CIx5d2mc6Qm684OYCOQk15kideDBTtPPzL8aSzfm4KnGnEZVZ4+G8uTW8HTwNgA8EiQrAMQBEEQiiLvYgLMnPRTZlgY81Qa/slz+ymNF+jygtxG3r2UsOd5+XwKLx/yxfPstZOCDYPXF5jcb4eKe8xQ9VTz1+pTedQ0HgoyFDytx8ydDAVdU+sA6LNu+g9ft9Bdd9MbDs2IUFllTLgMfX6tDVwnXcswLup+uvurOuk7309NSxITULDkhQm4TiagFJmA4Qd9kfSOJoBJpbLBvilKGLJANCYcJT6MULtCkdnjHaLEAAiCIAhFlZyagOpsAlh0s0im4N57XkDbiMQ+z6kvu64OTG61Q/ULrVBuYz009uuNqqebqR17NGFt5pEpuM3IAPCWop90KIlvRpRVu/aUnlElw0Dwrj1sHjQDwXXwQuGGfI0EPe9MxLsMqXr1hqC+rQUakwlRC49J3Dfy6ol6dha6kQaqtz7VqY1M8DUl/PmzWnyseyauh80Ap9WzsVCjE42oLn5+MQEFRF6bgHcdCdBgQRgZkgZvJ10vsXaYmMSHETzKw79XP7dk2QpUEARBKPLkxAT09Ryvtggtv7keal1trbbx/G5iRSXQKx1qjConmqLSwUbq/AAW/R+X/1+U32Kqttf8pN23+H5aZXxp+bM6NZgFPgv3+rad8Un7kmpf/+aR/dXuPHxSLx8WxtuINvLvjSrHmqiRBD5ZmA/+4i0/K+xqgGpnmuPPP/+djEMpdZowl+XtPXmL0l9W1lb3qHK0CUrTfb+1Kqe2CeUtSb/q95PazlS39WczlBxVThmQ6udbwPRVZ912oiPLocKO+mp0gj/z9qGmDzvIYWEFSWE3ARqJcWnq0ChNNMrIQBEO+h2qqT/632GoXypSkqX7XxAEQSj65GgkwGMcTDxIiE+tjDLr6qLcZlP86fu/wuR2W3w3qRIqkVD/esgv6sRdHhH4ondp1LPpjOrnWuAftT9Rop1FOBsBrae/5uVWZAK+hal1Z50xcOqK5tH9lSn4auDPaBrRH78sqYkf51RD+e318WmXUupQMO79N33REZ90JANB7eAefD4b4IdZVVV7Puv6vTIAXO7TTt+pKUr/bPgZflpUE5X2muHzXqVR51F7fEbXym0yxU90j897fE9moiX+afopym3lcwza4j9Uf9n1ddThZfWed0JNJzknoMAwXBicWybgqkMMviMTMOKQL5JTc0/c8ahAbFQagr35fAAyBGQGWEjydpIyQlC4Q5k3Dvp9sQHgMwlC/VPI3In4FwRBED4ccmIC+LAwE69OqHygsepxLz2zKkqOrYAfSGizMajzpIM6VZd71PlAr1JkDFrEWZKAboHP+/yAJkF9lOj/asBPav5+I88eqHWtDf7T9hsS9J3QxL8XzFy7qXQW5nxyb4v4gSi7tg5+mFkF9R27qnt+PehnVNhWT00P4s8md9qq6TtsCGo/MEfLlMH4eWkt/Di3qjo8jE8i5lN/v7b8CTWvtFKG4+tBv6DqiaZkTv6D76dXVoeR8TPwqAWbD75XY99eZBgaqnuUomu177dHTWcZCSgwotNiM0zArtCj+tT345JdNEpOsceow35IScsDkUdVsniMCk1FEBkCXxKUPprQ1IyBROEIHrWh342Pk27KT4hvKmLCU5GcKOJfEARB+PDIkQlwG4darh3UtJx/t/5aieXat9vhn/U+xXdjy6n5/V/2/VH1+PM0mi/7/6QEPU//+bxHaTTy6Ynqp1tQHjIBJLLVgVzO3VSZ0iTyG9D3yocaqSk/fBownz7MuwV9PeRnMh3l1YnBNa+1VtOF/t38KxL87dU9WKjz3P8v+/+Ishvrqnq+HMBGoT5+WlwTPy6sqQT9F31+RPVLrVS5L3r/oAzBJ+bfoBqZgVrX2ygDUINMCrennq2FOqiMn6UuPe8XPb8nU1EdJp4dxQQUFHFp8ejjPg6/2DTG9pDD+tT3I89NgAFpaUBKUjoSyBTERqUjJkKisEVsdDqS4tPVlB9Z9CsIgiB8yOR0JKC6g7laTMvC/McF1dDYh8R1j+9RZm1tEvm91HQcFtIsnD/v9r1aB8BTaXixLy8ernG1NUpTHm0xLk8Bqn23Hb4a9As+J2H+abdSar4+n+z7zbAy+GZoGTIbP6H8tnqofqElifcf1fcfZldVZX9ZaaKmE1U92gQ1qe4vB/yEL0jE81qF+rxQeXN9lN9aX7W59IxqqHWzrWobj1LwImMecfiizw/4isxEeTINtR90UIakvr0FRReUmlBB1fnNkF9Q42Ir1CQTJCaggDA0AduKoAkQBEEQBEEoLORoTUA2zglQu/7ot92sZ90ZdR+1z0jj6zzNhk/sNcyvtux06qYWGvO0ILXLjysvGu6COvfNqYz+9F6X7qhL103utNN9d6Z20E+e21/vJa8poHu+6oza98zVNTXSwPfS7qc+69tBn3XbhfZQW5jWftgh4wRh1T7OxwuXKS+vMTDl+imvbBFagIgJEARBEARByB3e2QTw9psUSlyz4NYbg4w0EtHc025Gwl19J3Gtfmb9zMGCm9LMyDiw0NeEuqqXvytxrq+f0yifYR3qu16wN+BtSA2uq/ZoeQ3va1iezwDQ2snhnHmN86n6uF56xhpiAgqOvDABF211JmDMET+kigkQBEEQBKGYkOsjAR9w8HPLSEABkhcm4JxNFL6dbI/xx/wgHkAQBEEQhOKCmIDsh5iAAiY+LQH96eWXIROwJeSgPvX9EBMgCIIgCEJxRExA9kNMQAGTkJaIAR6TlAnYHLJfn/p+iAkQBEEQBKE4IiYg+yEmoIDJCxNw5lUUviETMIFMgGwJKQiCIAhCcUFMQPZDTEABkxcm4OTLSHw9yR6TTwboUwRBEARBED58xARkP8QEFDBiAgRBEARBEHKHnJiAvmQCatqZw8yxuxLExS34uWvYm4sJKCjEBAiCIAiCIOQO2TUBEWlRsHAbibI2TVHTvr0Sw8Ut+LnL2jZFN3crhKSE6d+MccQE5AEJaQlkAibqTcABfer7oZmAKWICBEEQBEEoRmTXBMSkxWKizyJ0cBmCnu6j0aMYBj83P/8k38UIT43SvxnjiAnIAxLTkjDYc6o6J2B98F596vtx9Hkkvppoj+mnA/UpgiAIgiAIHz7ZNQHp9L+o1GiEpUQgXEVkMYwI9fyRadFIo/fxNsQE5AE6EzBNmYB1QXv0qe/HkWeR+JJMwAwxAYIgCIIgFCOyawKEnCEmIA8QEyAIgiAIgpA7iAnIG8QE5AFiAgRBEARBEHIHMQF5g5iAPCAvTMChJxFkAuww66yYAEEQBEEQig+xsbGoUqWKmIBcRkxAHpAXJmD/YzIBE+ww93zumoDUFCAyJA3hQakID5YoqhEWmIr4GDlKWhAEQfhwsLW1xd27dxEXF4fq1asrE/Dw4UN4eHgoM5CYmKjPKbwLYgLygCQyAUM9p5MJaIK1Qbv0qe/HgTwyAcmJ6fB2ToK7bRI87fMg7PSR3fR8Cg9+XtvE3GvDbz1n1utZv79PONDv71UiwgNS9b9VQRAEQSjapKamwtTUFH/5y1+wf/9+1K9fH3/9619x5MgRmJiY4Pe//z2ePHmizy28C2IC8oDk9GSM8JqpzglYHbhTn/p+sAn4gkzAnDwwAb6uSfAiIentmPvh75qGQHf8Ot0tHQFuWdKd9GGY9qb0d8zr5ZionjXYEwjygO65tfzGyhpLN5LH30X/nPprXhQ+zikIorRgug9HgDsZLrrO13zpWoBrZv73CqrD0y4REUFiAgRBEIQPg7S0NMydOxclSpTAp59+is8//xz/8z//gzJlyqi0Bg0aICQkRJ9beBfEBOQBeWEC9j0Mx+fj7TD/fJA+JXdQJsAlb0yAj2MyHJ4Fw+6pvxLEWjoLYOeXobB55EvfE1U+TvdySISnfaJK0/J6U7s4ja9lpFFwmi5vZppWPmtefjaVTp/9XVLJfKTjyN6rOLb/Bgn3tIz8Wj7Dsrp0Xb1+zqkqsr4rX+dkONHz2D7xpc98PVk9k4ddHJ7eccWdSy9w+9Jzehd+CPECfEm0u9nEwP5ZSMa93yvEBAiCIAgfIDzdx8LCQol+w/j6669h/eqVPpfwrogJyANy0wRos7x3PwzDZxPssOhi0TABPk7JCPUGRg+bivJlKsP6oZ8S3CySA92S0b3LADRr1JoEbJQS1j5OKQj3AaL8M3voWSDz56gAINwXKp8S4y5piPADIikvC3pNSAd56spzPWw6MtK5DkoPpXTXV1Hwd03C/JlrsGjORoR4plN7eFQiHWHUXs6nq1N3fz8yDZH6e/k4xsPVJprqzDQ03vScPKrQtVM/VChbFXZP/BHknq7acO7obVSpXAutmndC21Zd0cSsNfZsPYuEUJAJuYTe3YeQGYhU7ySjvncJMQGCIAjCB4qnpyfKlSuXYQD+/Oc/q+lBwvsjJiAPEBOg6+3nXm/LvqPw3//9J2xYuTdD4N+/5ohvvymNOrUawt02WIlo7k0/efAGtqzZj6e3PdT0GZ5e8+yuJzZT2pE9l+D8MpIEe5oS8vu2ncaODUfw/J63Eur+bqm4R/Vy3tOHb9MzpShjwfd7dMMFuzYdxe4tJzBq2HQS6r6wfxaMF/fJmJDg53vYPQ3CmSN3sG39IboerKYq+bmkw8MuHvu2n8WJ/ZcwZdw87N12FqH0XNqIQ4hXOj2PA+qYNEb1qqZYs2yHek42Ljs3HUJ902Z48cgRXo6BWL9yO6pUqgMPeuYDO07ArEFLepZwZWqMvcNsh5gAQRAE4QPm0qVL+Mc//qFMwMSJE9VUIeH9EROQB4gJ0JkAFvJWw6aiWeN26NFlIPxdUxHhCyxfuBVNG7VF5/a94GIdQEI9GeNHzUaXDj0xZNAoNG/aDneu2OPRTXe0adEJVsMnoIN5d6xcvIPEeSL69x4Byz7D0K/XUAzqN1oJ+aP7rqOxWWtVvmVTcyyZuwlxwem4dPIJGjdsjf69hqBa5ToYO2IG4kOSMH3iIsyYtBipMcDIwRNVG0cOmQTz1hZo17qrMhp+9F4GUv3t2/ZAJ/OeqFvbjAyDh7ofPyMbgVj6dcydtgwjBk0mkb+Xynaj54xHXAiwY9NBtG3ZmQwB/ccqkY1DFMr8UolMiR2OHziLFk3bw9UmQkyAIAiCIPwG27dvx4QJExATQ//HLeQKYgLygCQyAcNz2QTsehCGT8kELL5UtEYCBvUfg1mTlykhfeXMIyX4e3YbjPkz1qFDux6ULwLH9l6Bae2meHjrOXw8gzDEciyGD5yIvdtOo0bV2rB+YY9AD57aE40X931QoXw1HN57AqG+SWQiItS9Ht1wxONbTnB29MSoYWPQokkHRAckYvig8RhrNV09654tJ0jM90V8KCjPJDVVicV5p/Y90LpFZ0T4JcPdNgINTFvg/ImrZESeonatxvQc8Qj3TSBBb4FLp54gxJOnKyUqU+PvEg/zVt1x9tgN+LuFoqlZW1w79wwpUaD2n0B1av+eLUdI9F9A3x5D1PUQz3js33GKTIC5mABBEARBEAqE9zIB8emJsE9wxZNYazyMfYkHMc+LbsS+wCN6hudxtvBLer8deFLSU2HlPUdtEbo8cJs+9d3QTMD2e2H4ZJwtll4J1qfkDnltArjXfuPqg5g0dj7mTl9GAvklLPuNwNmj19G8STsEuEZg2fzN+LF0WQzsO5pMw3g0bdQO40fNgqd9KIZajodZ/dbo23MYbl54rtYGrFi4DWb1WpKx6Imdm46q6Tk2j30xYfQM9Ok2HHVqmcG8TTfKm4otaw+hS8eeOHr4NPr1GoIhZC4Sw4AxI6Zi3KgZQBzQo+sALJ63FnH0ankxbweq98DO43C3C1KjAptW7cLGVTvRqEFLPLzpikD3dDUKwKMaV888xg/fl8HiuatJ2B9HhbLV6DnXALHAod3n8e03pdC1c3+6xyAyNhPw8Iazuv/uLcfFBAiCIAiCUGDk2ATEpcWR4H+hDsEa7DUVLZ37oaFjNxUNHC2KcOieobFTD3R2HY7pvitwNPwCPJJI6eWQVDIBo73nKhOwLHCrPvXd0EzANjIBn5IJWFbETEC/XiNIiB/EuWM30cm8Nwn9sdi6YR9uXLqFxg3bkKCOxqolO9CwfnM8v+8E64feuHfNFs/vecDPNYkEfiIJfA8yEQvQkIS/m20IovxT1FqCvVvPokolE1w+9RiWbCD6jYG3qzc2r92uhHx0AHDzoo2a6tOn+3AsmLUOHvbxiCGPN2rYlAwT0JNNwNx1Kt3dNgbt23THvm3HVfmhlhPQpoUFrIZOJ8H/Qi0eVtt/OiWruf8zJi9FxXJVMWLIeIwePoUMTCu0bt4Z8SHAnq3H0LRxazjbesPHOVqVVYuU/fiamABBEARBEAqObJsAPgDrctQdDPaciroOnVDNrg2q27dDHYeO9L2zSvtQopZ9e1TVP18r5/5YFrCVzICP/k38NmICdCaAdwfiXXOWzttAwjcWDUjE/+c/n8PNJhTnj12HSc0GJKhD8eyeK+rVbYIl8zbi5oW7GDlkMg7uvITDu69gQO8RuEVpc6cvR7NG7XDnsgMG9LGi62dx/MAl1KhmigsnH6NH14EYPngcnj58hh4WA1CpfHU4vfTBjo0nUK1qXaxavBOb1xzCrUu2SuwPsRyD4YPGAQlAx3bdMGfaUjW/n01AE7O22LvtMII9E2Bq0hRWQ6Zgw0penHwVHnax9L5SEOCeBscXATCpUV8tAI4LT0VUQCJsn3mifJnquHXxOfbvOATT2o3IAESo9RH8TjzsE5W52L7hIEzrNJaFwYIgCIIgFAjZMgEOCa6Y5LMYJvYdSPy3RT2HLmjg2LVYRG0yOVXsWqOdiyX2h51CYvpvH1EtJkDXUx7gloZNqw/h1KE7SmBvWXsUs6etUttnPrzuhIVzNigRzN/PHruP3t2GoHOHvmoqkMPzELWt6KhhU9G5XW/06joIl089QYBrmjILXShf5w59sG7FHmU2bl6wRe8evFB4LLauP4rJY+Zh58ZTZB5WoxfVO3bkLKpjMGpVr4drZx/j6L4r2L3lNGKoXetX7sOJAzcR6sXTfOKxfOE23L9uj7NHb6Jbp/4YMXgyRg6egnq1G6t6eISDtxF9cscTs6Ysh/3TAAS68ToBfmZQ+7bg3PE7uHvtJRbRM3rax8CX3ge/F37PwZ7puHbuORbP3Uimgq6ROcj6/nIUBWgC0tO1v1BBEARBEIoSv2kCTkdcRSuX/qhs1wqmJP7N1LQf44L5Q42GTt3U6EA1+7aY4LMA3sn+6t2kZ0j018kLE7D5dij+M9YWK6/l7ul4eWUCtOATcwNcWVwnqwW1LPi9HZNJ+KYqMc2f+d66qTJp8HSIQhjlYZHNu/DwvHsv+ygEuaWouf8smPmMAB/neBK/cWqNABsO3mY0wDWFxLCufGwg8OCaI6pUNMHlM3cQHZYE26euqud+05ojSAjje/COPclqio52NgC3mevi3X26dR5ABmA8IvzjEe4fiynj5qg9/7kd3G4fEt+qTaonXzv0i55T307u4ee6OM3wnfB9+IRhfh9Zr71T5KMJeJPoT05KQnx8POLi4iQkCk3wQUPG/mYLu3lNo/8lpiflb6Tpw9g1CfqNFJ6/GWN/v7xlJv+9G/t3IFG0IiEhAampv/7/87z479YbTQDfal/YKdRx6ISaJIB1c/6Ni+TiEPz89RwtlBnq5zHhrdOD8sIEbNKbgNXXi5YJYIHOP7X6te+6zwZ56Tof8OXnmgof+s75tTK8Cw+fI8A78mjpfi4ssjMPBOM0nfDWHbzl55KsYu6MVWjaqDW6W/RDqxYdMM5qFtxsopVh0MqpNhm0i4N76y+cfKi2+Oxo3h2dOvRAx3Y91e5AQR46w8Dt5LK8RsCwLKf5aAeKZan3tXjbtZxEPpkAw/8AxcbG4tWrV9i3bx/GjxuH1q1bo2bNmqhcubKERKGIatWqomnTphgyZAg2bdqER48eITQ0VP8XXLixiXfEMK8ZGOgxBUM8p2eGB4X7NPqpD8Nr7xlDvXTxq2tvu1cutyGvYqiRtOwElxvoMRnD6Xfhkuip/+0UHvz9/XHz5k2sWrUK/fr1g5mZGapUqWL034NE4Q/+3XE0aNAAPXv2xNKlS3Hl6lX4+LxZb74vbzQBR8LPKQPAc+SLuwEwDH4XvF6gv8dE+Ccb364z0wQ0LvYmoCCDTQEfOPb0jhuunH6Ahzcc1XQiNgqaeXhT8PvgEQJn63BcP/cE188/UduRcpqx/AUa+TgS4OHpiZUrV6JZs2YZB7f87W9/xXclS6JC+fKoUaMGTGrXlpAosKhNwYa0UsWKKF26NP7vX/9Sf6e///3vUatWLUyfPg3Pnz/T/0UXTu7GPIGJQwc1FbWmvXlGmLh3RB0/C9Txt0Btz06o6ZB57b3DsT1qObV/Pc1Of0+vzrp70XddejuYuHZAHe/OqEXlMtILa7zje+IZAFXsWqnfxcs4e/1vp+C5ceMGrEZZoTz9N1c7RfeTTz7Bjz/+qMQk/53zvwNj/z4kCmfw74t/b2wCfv75Z3z22Wf46KOP1O+Wvw8aNAgXL140OkLwPhg1Afdjnymxy/PhMwyAg0FkEcb5FsbuXwDtaejYXf3HebzPQiQYWSPAQ7njfRYoE7A4cJM+9d0QE/DuoQl9npLD04Yypx+93QBowfn8XdMRRmV5ihGPSGS3bL5GPpgAPz8/zJgxAyW/+079R+k///kPunfvjjVr1uDK5ct49PAhbF69grOzM9zd3CQkCjRcXV1hb2uLp0+e4CYJph3bt2PokCH48YcfdH+/n/wHlpaWsLGx0f+FFy7uxzxHI8ee+im43WHm1B2NPXuhxrmWKD21iopqx5qpdA7+/2meqmvmrPuuPuvLZXw3vKZ+6stRehOvXqi40ww/zKyGRu49dXnpWiO3HqhxpiUq7TbLyNvQgdIpT+2bbVFxewPUf9kFjVx6qHRVb5b7qHJaOreJv2uhz5uRxzBv1nQtPwW/CzMX3XWtXRzqs7qHFvSd2tbIQ/9MXFdGffRTn/brcrpo5NgDdel30NipJ17FO+p/OwUHi/+2bdvir3/7q/o7rlq1KsaOHYsD+/fj9q1beP7sGezt7OBGf//G/l1IFO7g35uDvT2eP3+Ou3fu4MiRI5gyZQrq1Kmjft9//vOf0aRJE1y4cEH/F/H+/MoE+CYFoKvrCFQnp8//MDTha+ZO/yB8eqKRd080dO3+7uKbypl59FCRozq4HN23IbVD+84/uZ6G9B+Dd27P2+I36uQdkraFHNK/uUzSXzMBG/Wp78f6myHqnID/z953wFdRtF+/7/d/pVex0UkhPfTeS+i9914EUREURUAFpPcOAhbEQhMbvSsqCCI9QALpvUJCb+d7zrN34yUERQgQYAfOb3enz+TevefMPDMzf2f6Tmc/ySLABIk79/W/FwLPfmFaI33acR45HrAIWLVqFZxs5N/Tw0Onng/KSyoyIgKxMTGIioxEeFgYQkNCEBIcbMFChgA/j/xc8nMaEx2N6KgonDpxAl8JYaLZxP/93/8hZ86cmD5tmq5nyUiOIoCDTZyN19++oG4o9Vkd5K74PIoO8ECRAZ7IU+UllPnSR3+T+XtUL7QH6ocJwnvK72JX1PbtJL+NQtiDjd/t+uEM66F+dU5wW2ymEf+Inmic1A+uEyviheZFtSyNI+nrh3dH4b7u+N+zmVD+x8ZaBuvDdPk7OCPTi1lRaXsL1JM0dU511vy1HrZytA7ym63+Wjfx9yOvkHqRT2jcnkLSuxlxz6SKe9rIo86pLqjPukpctrHS5mao8Udb1JEyWN96Epf+Pra+ULCewULi/2yP4iPKoNaRDmggbaU/68D8jf6SdAHkI0af2IMcqJr8DXxOdXukIiBG3rNDhgzB/5PPbObMmdGhQ3v88P33OO3vr+9gfr4jwsOt9/ATAP79wgT8e8bIO4t/38CAAGzetAm9evdSIfD//vtfHcTg4Nz9ultEwI2bNzAr6hO1e7/liyBfwBr726LSpqYKfSmdkS+tXFPi2d+nhhkmXzJ+yStubIoKPzTWL/gt6VLipboKWIeaB9ujhkBfUPQXFV/jz3aodbiDhmt8+/xSwz5f+3u7a23eE/JC44tBX1hmHDvUFXC3pCZ+vXX3JHv3IETA/J2WCLBwBzwgEXDu7Fm8OXSokv8iRYpg8qRJOO3npy8lvqjMkQsLFh4H8PMaHBSkn9+w0FAs//xzlClTRj/frVu3RmBgoO2T/+jdrSKgkxLmF1s5wOntUmiOV9Egqieq7m6F6r+10d9ikvDSX9RFkVc84fROaVT7pZUS6So7W6Dc6gYoLQKicF83uE2qKKRafr/8u0qa7ijzVT0U6ecOjymV4TSyDPJ3dlZCniICJI/C/Tzwv1zPwFmINMUE61JNys5d/jlkK55bOEFzIdcUB53gObMqivT3gNvESqh9rKPWi9zB5YNyIlw84Dmrivpz8K7kx7VR9GUPOEt9K29vrn78jXefUknr6i6ipPZxQ8jwt7j0sjooMtATjm+XFgHihCo/tZR+6IXKW5rB8c2SKDrIE+XWNtR26W+0tJFlFXu9hIiVbCjSxw1es6upoGB+XnOqSdvcUfz9cqgpPILCKfVvfUYQAfv370flKlX0c8pR4HU//qgDLxS1QfKZTeuzbuHJAv/O/JtT7G3ftg1t5H3Fz0PpUqV0Tcj9uFtEgO8lfzQ42UM/9CmzAKraO6PYQA8U6FocxeSLxi9u9d/l5cOXBSHEXu8lng/vOZIg6l+v9JMvF+MwLl9MpZf7yAuglqj37hpfxcFpia+k2xj10Dx5tZF7jma4yJe1QBtHqY+8FCWfavICzFvlRZT6pI4xChDYPSUdRwi0THlB1rWReR/6SR18zsg9ZxXoxzJEjHC6UL/0TC9l8Vrtt9Y6esCy69Bf0976oqBZ0LiIebgu/0xniQALDxUPQARwIVKzZs30RdOkSRPs27cPZxMSlDz5ixDgCFTqF5UFC48D+Nnlj2pCfLzev/7aa/o59/T01MXDGcGlngngiHnxEWWRp8ILQtx9UONAOzSI6W2QcvkN85pbA8/WLQCPaVVQRH6fX2haVH67O6PUp3WQzSEnir7iAZex5ZGn0vMo/kFZNErsq7+buUrmg9NbpUQ4lEI2l9zI31FEAH/v+LsvIoD5FxXinb+tI15qVQzV97aWtH3gNr4iXmrniOcaF0bF9U3RILoXir3mLXEclFw/37woir7qpfUu2N0Fhbq7St0qo2AXZxUvpT+rjWdrvgTP6VWUT7hNqoT6kT1R/L2yWg7FxPMNCsN5ZFk0jO+DkktrIW+1l+D6YQU8J/6FermhvpRZeXNzPFe/kAoUl9HlNE75bxrK77q0QbgDRQRFUTbHnCgm9SnxUU3hAF3V79naBeEi+b3Y1gHPNy0iv/UdVTjYzwg8ahHwww8/qOklR//HffghwsNCERcbpyPD1jv46QL/3hzIMGff582di2effVbX5i1btsz2ifn37hYRMCNyqS56tTcD4suARLhQt+KouKEJGiX0QYFOzvCeV12n0TxnV4XD0BIosbimkmSKg+Ijy+gLoYyQfb5Qyq2sB8e3SsJ1XHnUOtZJZxMq/NAI5dY0QPnvGguB74mqP7eUl1Jt1JYvoNeCGpqn96KaKSKE03wcBeGLqryk5YuoxKIayJQ/K0p9XFtHBEp/4aMjAu6TK+kUIqcMneXF6fxuGX3x1NjXRupQQevCmQjWxX1qZThImpJLaxv13ytxOGohLybHYaV0RoBxHYdJ/eUlWuP3tioQzBcEZwMa+fXEiYt/zQY8EHMgSwT8Balr6OnzCA88Kzj3wMGy0qxHRkE6i4CoqCjdVYXEaODAgUqYoqOjUl5EqV9OFiw8buDnmKD5BEfXps+YoZ93BweHDCEEbhEB/K0RclrrWEc4Dy+NvNVfUrOgwr1ddZSdg1h5a7wEJ/mdq32yEypvbYYcXnlRenldlJHfxJxez+oIe9MrA+AuZPuFZkX1t/uFFsXgIqS7yYV+SuILdnHBi82LwSf0VhFQuLebCogCnZ2VRDNtgfZO+tv5vIiNytuao+ovrZDd0yizlhBv8oHs7rn19/SFFkXhMNgbtSQ/Dvbxt9pjYiXkrfy8jubrYB2tAqTMGvvaoroNL7YshuebFEFD+a0v1McNDsIp2mCo/h4/V6+gDgQWHeSl7WD8mofbi/gponHrR/ZCbfl9J7eoItyCQqG6/HY3Tu6PKjtbIne551BhfRM0PtdXyu2sfUrxQnMhNT+y8Z9HKQLWrFmDLFmyKNH76ssvVbRyBpaDMGl9pi08HeDfnzOa/Dys//FH3ZSD764lS5bYPjn/zqWIgPjrieh0+nVdDZ9aBPBLUVCIP0m4x/SqKCxfMo4IeM6tpvflVjdUW8LSX/nAQQg2p/44zeglar78d43wUhsHlPmyLopymnBCJXiJcOD0I0k/7Q35AqLCdx1TAd4iAAr2dEX5bxvhxVaOKL2srtr18UXhLi8Ovnxcx1eU5y5C7kvrCEXZlfXVxOil1g4ot6oBivQzyuGshfOI0jodSrtAnZKU+jLvilub60yC9/wa+sJ6rmFhm4Apq6Mc3guq64uL4oH1LyttKybPDkO8VSyk9I+g/PHm+Cz2G1tPPhgRMG+HIQIW/mSJABUBZ5IRHpwgSFREhKQPwglbniZCzySlXY+MgnQUAdyjuE2bNvpSef3119WemqP/Fvm38CSCn2tzVmDhggXImjUrvL29dWHxo3SpRQBnA2ifXz+qJ2oe6aCDZ8/WyK8j4rWPdkTOUvn0Nyx/1+J4qa0DXhDyXEl+E2lyQzMizrJzpN1zZhXkl99JEvx8PoXkN7uekmmO2LvLb/JL8nvKmYUUcyARBAW7ugpBrq5paTqkv7VtHNXU6Ll6hVBlV0s1w8laNAfyd3DEi/Ib/VJrR+UMNNWtIiKBhD4v69vDVQk783caVlLFy3MNCikXoLigSRN/x/NL2mdr5df8GsT0QunPfaSswsI/pP7iV3SghxL9FyVuztL5RMAUVxOhFxoX1nbUD+mhvIXt4mBgvtoFpR4t0Ci+N8quqI9nq+fXwc06pwyTJ9bL6c2SaCB9lBFmAn755RfkE/JPAfD9d98hMSFBR4Gt97AFwvwcxMfF6cYHHLzIlCmTzhzR/ZvzBFJEwM5zv+lOBLVOyBfD9gVQ2ERAAfmCOQ4tgWIDvFBsoKeq+YLdXVGgc3G4T64sLyNXeMyqqlN/dU911im8Jkn9dFqPX363yZVQdIAnPGdUVT8Pea5zuqvGr7SxCYqIGOCoAJU9XzD8sjNPTmf62EQAp+5I0J1EaJT+vC6Kjy6vox+0FfSUsjk6oNOh/d01fflvG6LIy+4o/kF5ffFU2d5CpwQpZvhiqHWovcSvqnnka1AYVeVlRptBmh1xNsF1THldjJVH6u8xSUSFpOUCI84OcKrRfEnwFOXBwWNw4Ya5uOwm3gmbpCJgcuRCm9/9udnbY5H/7eN6aFh6usddBESEJiIyTAi8XNMDmpfgaRUBH374oQqArl27pCwys3540gZ/lB9HpNWWpxn8fLNfKASmTJmin/8WLVo80sXC9iJATWLlt6bsino6Ut4woQ+a33hFR+VpDlvrUAchzAVQckktHVCr498ZHIHnYJX3/OpCqosp6eYCYP4u0mSHYS80LqK/x43P95ff694oxt/eFsV09N+cCVAR0MVFB+1ogpSvQRElzM4jSytZzidEvcqOFqi8uSlylsmHqntaK/FmGOtQ+3hHXWdHIl/rUEfkq19IzYRohmsu8nWbUBF5qr6IqjtbIq+Qc47IN0nuryZC+ds7olFCX1T4rpEKG87Qu0+tZMwoSJ4Furmg2CvCR8J6itDpqjMeNf+09ZmvYUZFMfRszfxanyYX+utvf+4Kz6PaL6213RQfzzUspOsYKAIe9UwATTFLly6tswBfffGFfi7Nz2nqz66Fpxv8TMTFxmLjhg147vnnUbRoUZw8+e8+pykiYEH0F7ojEKcTzS+AQl4GpjlQpa3NVH0XkC9mxU1N4TSitKj5Uqj+axsdja8sL4OCEq/Cdw3V1IYj7iUWyEuovZOGlfumIar92hoeUyvDeVQZNE7qrzMALzUvqot3OMrB/JzeKIEav7XVmQWO1pu2/E7DS6sooNJ/tsZLWqbze+X0ZciFT5yuZP7l1zaUL3pTVP25lU5T6gi+oMYf7VBNXlK0TSwsAsNtfAUVJtX2ttWZDE5rcsSB06Uu75fVFxlnMjjdyFEPtqviusbGKMktL4l2aOHfH0F2B4iNCJuqImBCxAKbz/05SwTYwSYCosITcPrIWexYdgGbF13E1sUXscUGvV9id38HmGG8Mo9tH1/AqQPnVAw8bSJg27ZtanvKvf5P+vqqCLCmntNGgIBTsiEikh4ncPFrWu152sEfU84IcOarb58+KgRmzJhh+2Y8fHerCOAmFV31t+rZ6i/pgJfn7GrIK8SZJqsN4/qoWU++OgXkd7CuEHYhzx2c9HebJrPPNyls7IZDESC/nc83LmyY5MjvcG4h7t4La8B7bnVkc82tI/YUAfYzARzoKy6/h42T+yF/G0dkeiErKslvZa2jHVSEVFjXRMl8/jYOEtcJZVfVh+PQknCU33HyAJoP0wafI/D56hZQcs8Zf474lxFh4zCkpNSpCKrva4N8PgXVnLj8t431Pmfp59RWn7/xOUo8qwN0tP3n4BwXKJdZWU8I/QsiDKooN+AAIndM4ro+knmKjWq/t9V6kgNwwJAbmnDhMdce0FzKUfwpEqrtEa7B3Qft1vw9ChHQr18//fx9OHYs4mJiUj6fqT+zFiwQ/GxwncDChQv1c9O+XTs9OfpunYoAThx8ED4LFXxbpnz4U8DFNfJl55e40sZmaBjTWxRzRZSQF0d1+dIUkS8Tv1yOQ0qoCqcZUKHuLjoC7zK2gr6IOPLOxUVU8RU3NNUvMEckmFflrc11aq6k+DUUZc8pO0458gXiIHlW/601fE4bi3xJ/knKK25sosqdLwe+8GiHyLo6SBqaAHE9QsX1TeQlZyw64heecWhaxJ0Ligz0gOcMzhQ0UnMktqegvOhoGmSMPjjB8c0ScJaXEUcPXD4oi6KvSL7SBn3BpDIH4knCnEXZIy9u01ki4AFCRcB5REclYO/a8/j0tQv45I0kfDYkGZ+9YQPv7Z/tYfqnCv9Unj959QJ++uK8CoynSQTQDIinFNIcYtPGjWonbQmAO4MiQLdzCw19rGCJgDuDP6YUvsePHdNDxrgg88SJE7ZvyMN1t5gDCSnVNQHyW+o6vhJebOeIF9s66Qg619ApcZXfIfdJlXXkvGD34vp7V1/IPNfxec2x7Ygjv1tci0czXt0YQ+A+qSJeFOLsNLwMvIVol1xcUwWAjqRLuTQjorksiT2FQ7mV9XU3HcZhfSgkOPBGEcD1ciT/L3Vw1F18+NtO0yISfc4e0KyWBJ514YwGB/xeFD+uOeA6QYqU8msbaP1pEVD26/oqbkp+UlvXQnB3IV1v+Lo3col48ZpXXQRQb5SS3/WCXYujQEdnXaegOwpxJsP2+8yNQSgQXmzpAEfhImwXdw3iYmKKpSIve6LS1hbG77qdKZCmfcgiYMf27fh//+//oVnTpjoLGxQUZAkAC/8ILhTnYmFzAGPNN2tsn6h/dioCrty8ijdDxqOSb6tbvgApkC8Nv/BU1nw58EpTGn5pah5sh0rrG6OmPHNxD18a3FWHU266zaZtES2/5HxZ8JkLnAjuHMRRDm77aZbFFxrz5qIdTutRAJhhtY521OlF5ltT7nmlQGFefKmxnjQtYvmGou+ESluaqZkRy+WLq/LOlrpwSvcXlvpX/aW1TmdSZNDW8cVWxfSFxynEfHULouyahjpFyPpzZkHPSLDVxx5cS7Et6RftVLr0FwExKCAiYMnP8Taf9HGPqwgIExEQFZmAX1ZdwKeDhcS/eRbL3jp3F/j7eJ9IXjuXnUdkmIgA2/qAp0EE8LAZvjwGv/66CoC0XjQW/oIlAp5MUPhyVI2Hi/H78M477/wr+9r0cretCRBQCOie+kLuueEGF71yUav+LnOkX4g4R759QuTKHX585fdUfq+4pk7zIKmXZw2Te87y1w/toXnVC5Yr00l6DbOVqWmCuhvn8wi55u871xBomPz+6qwBCbfE429jPZrlyO8q45g7/7E8rZv480oRYLRFygw0w2xxmZb1kSvrQrNibhqS3T2PzvBzoJBl64yBCIQGkb1UaHANAOupdZM+Sam/DewD7TfdNYj9ZaurpNW6SrsoqFKne5gi4Nq1a2jcuLGuA9iyebOSurQ+oxYspAaFIs8V4KGdBQsW1FOHz58/b/tk/b1TEUBb9teCP1ARQGKe+otA6MiBfOn1yy5fYBJqffnIF12/xBJufon4xeYLxRQMfNnQNo9beKrSlmedbuTLRvLkC8Z8kTCcefKLyav62eqg5TIe7xnGK2cJ6Me6SLiWI19ooxzDJtDcN5hbi/KFpDaPtrbwxWG+5JiOIxtFX/HSmQ1OnVL8aH1sLxmzLqlRWUTAlgcoAmZsjUFBEQGf/Jpg80kf99iLgBUXsPSVZHz8eqIQ+LP3jSWvJGH7p0+XCOAsgE/dusifPz/27tmjo6FpvWgs/IW0REBYWCjCI0IeKUKlDvZ1Sg1LBPwzaBZE8JTOQoUKISAgwPZNeXguLRGg4O+p+ZvI+9Rh5r3d7+Zt97c8y++mEF3D3y5ve9yW/m/K0TAzP5v/LfWy3TOMv9mMaz7bXwXKHeTK33eXMeV1ETFNeJ7zKaQbknBvfx2US8nf4AFm+luQOn9e7eti3yY7PEwRwNOAOQvQp3dvHYix1u9Y+LfgQmEOXHAA49u1a/Vz9U+DGCoCkm+cx6Dg9+48E0DYfTlveTa/QPbhaX2p0oqT1r35nDq+6Z/WvT1uKyetuqXxTIho4QwCF0DV2C8vGCH/KWIlrfrYgSJgc9Ju7VS6ByECOBNgiQCBnQjY/dUFLH45CUsGJWDpq4l/4TW7+zv53RYnAR/1P4ftH4sIoDnQUyIC9gjx50tjwIAB1o/PXSK1CAgLJ0IQFBCGoDMCXh8ygoMNEfJ3QsASAXcHLrYzbWwXLEifd/i/cXcUAU8hKAI4U1D1t9ao+GNjnbnXmXwKgL/5TU4PPEwRwLUA2bJnx/r16y1zTAv/Gvy8cE3Tb7/+imfz5UPbtm3vahZTRcClG5fxRvDYv50JeCA41VmnDE2ToYwCvnSU/KcRdidQBGx9wDMBlgiwwU4E/PTleSzsexaLBsTjo4HxWDwwAQv7xWNujzi98pn+83vHYV6vOHwk8TROf4nTMw4L+ppxEuQajwV9zmLbEmPR8ZMuAswXxPvvv687UXyzZo2aQlg2qP8MexFAARAcGIo9P8Rhw9xkbJiXjI3z5Srg1YT5fKeribT8eW8itR/v10u5mxcl4fDuaBUjdxIClgj4Z5hrAw4dPAgnJyc0atRITTUeprNEwO3QGXmaCXGm3zaTn1a89MTDEgEk/Y4ODqhQvry8S4yZKOs9bOHfggN4FAKNmzRBgQIFUrY6/jsxYFsYfBMjhbRyq8u0vggPAkq05UvNAzy4P79uSSZfONoEqsJnPNuXnGZFZjp9CfyDaND4dmkeNLijUtUT7fBT8l+HzIwKn64igKcJs3/v103fYpgDfWqJgBQREC0iYNfyZMzvlSiEP1aJ/fw+cVjyWjy+m0L7fuN5gWDlB4lYNTYRC/oZz0tfS8D308/i06EJKg4W9I7F/J6xmNMlHpsXUgSIAHgKZgJu3LiBSpUrw93dHb7Hj1tnAtwlTBHA/gqPDMHBndH4evhlfPrGRSwbegGfCcyrCePZDL/beH/dm7CPt0zC9H6I+L1+Cd9NPo/TvuGIkDpZIuDeoQvt5Me0VatWyJ0nD4Llb/0wXUYQAQ/7d/Su8BCIvz0etAgwydmmTZuQK1cuDHvrLZ2FsmYBLNwL+Lnh52f6tGnIli0bVq5cqZ+vv3MqAuimRi7W04LT+iKkN9SGX5Q8d+Ip2M1FV/ZzJx/a3Vf4sbGegmgeEMZtwOqFGOqfNv8Mp2hQPwlPWXwk4kDXDDBNcHc9YdhYG5B2HdILfEnUONEBDU72gO8lf1tvAu+Hz4SXiICxEXNwQ/7dr5uyOQaF3jmO5XstEZAiAqISsGNZMuZ2S8D83jFC5mMFMdj77Xmci72OP9ZdxKyuMfhyZALCT15FdMA1rBmXiBkdY/Drqgs4F3cDhzZexDyJM1/EwdK3RTT0S8SmuUmI5poAEQBPugggKSTJadasmS5Es0yB7g4pMwFhoQiLCMFv3ybgizcv4fNh5/D528lY/naS4nMbjOdku3vjefkwI67GG/ZXmMaT58/fPmd7totnC9P0fNY8pNyhyVj9wSUc/z0SEVGWCLhf0L529OjR+N///ocdO3bYvjEPxz0QESC/hbpwWH8zbc/yG8mFtWY4Z8DNNXS6DtDvwc7ScwvSlPIzIB7WTMDUaVP1sCeeDGyZAlm4V5gLhLnDH00Z337nHdsn7M4uRQSsTdiEKr5tbz8n4AGAX3ru0MPDP7g3L0cbKm9pjirbmyNPtZf0xOBKW5rqLj+u4yvo3sDcKpSn93JxUMEeLhrOHXy4tz/z48FgPBOgxoH2eqIwTwc2d/1Jqw7pBb4kKvm2Qc+At5B4/ZytNy0R8EBhJwK2f5qMWZ3iMad7jBD+WMzvE4vT+y/j8oUbOHPgkoqAbycnIinuOi6cvYFNC85harto+O6+hIvxNxAg4uDb9RexwfcqtkZex/qT17HjyBUERCQjMigBEU+4CODZADlz5sQ7w4apKZD143N3sBcBnAn47bsELH/zIpa9yV2mhJgLeDXBZ8PP2IXqc8Wd4t26Y5XxfGtcM60ZpnGHJGH1+yIC9kUi3BIB9wX+mJKMLV++HHlEJC9dutT2jXk47oGIAPmd5a59PCSLC2q5qQZ3vONWnqYJLM/S4S553EKTW5ByS9HbdgwyYRMS5rO5XSnzNRf13hLPPg+pS12/zii3piEqbWpmLPA1w1KnsU/3T2HpjIclAvr264v//ve/+PWXX9QUzZqNtXAv4OeGv0s0ZeR7q0vXrrZP2J1digjwvxyEpn59Hsr0I7/w3O6z6EAv3cOfe/jyxcEX0PONihgHkP3eRg8X8ZpbXc8o4N7/NB16iXv9vlVSZwuKjywLjxlVdRsx7ivMMwq4i4DD614oLXnyEJOHIQLKHW+OaVFLcN2O7Fsi4AHCTgRs/fgcZrSLxazOUZjZJRrTO0Thh+mJ8P/jMtbPS8SUdlFY+HI0/tx4AUe2X8CS12IxuU0kvpuQAN9jl7Hz3E2suwx8k3QDmy4BG+V+vVy3Jt3EqcjziAqOl7KePBFgTkOvXr0auXPnxswZM3Tk0xIBd4fbRMDaeHw+5BI+HXIOnw0VmNcUnE31fCd/PqcRd8g/x/t0cBJWjrqAY9ZMwH2DP6acGduwYQNeeukljBs/Xr8vD8uluwgQssyd8XimD39LubUmZ8uL9vfACw0Lqzluw9jeen5PwR7FlcQ/V78gvBfVQOOkfinbaJqkW2cQOIpPf27vKX7cia/k0tr6O8z9+zkzzxl/3ZpT4nGGXq0ARCzwnlt3Zy2WE8/Wyq+nChubcBhCQs2CRXzU4zaiTEezJF+DO9STsnUrUebJnf40z1TtTSc8LBHQsWNHNQc6fOiQvlcsEWDhXsFDLE+eOAEPD3c1Z6TJ79+5FBFAojosZAIqHm+pH/y0vhDpBr6QbC8OHgTCg8UK93XVFwRPQNT9gON76yi/x/SqKNTHTU8t5AtATx5c3QCNzvZF8RFl9KTDRol94fRWKT3Iq/z3jVCop6segsLZA4qL28pPR/CQsOq6HmCvrScN96BEwOeWCLhVBCw9h6mtSf4jMKNjJKYJeD+7RxSmdbA9t4/EzK5RmCWYJvfT2kZgercofHngCtbJn6b/tjiUWxiIL6Ku4btzQozjgZVnRQycu4GAsLOIOP3kioAVK1bovtSLFi7U0yktEXB3SEsEfDb4Aj4efJdb1b5hQ1phqWHG+4f4H796DitGnsdRSwTcN0jCuMDu559+0m1C72ZaPT3dgxABJM0k+c81KKQkmgQ9b+UXkblwdlT9tZWePFxEfmv5W0oCzhN9Gb/kklo6G19lR0sl/yT3VXa1hPvEirpXf0Ue9CV5V1zXBLnLPY/nGheB1/waei4Qf9NLyD0P5iq1tKYO/pHQ8+Ax1zHl8bwIkGdrF0CZr+vpYWE6W7GlGSoLSi/30cPBykqYafpbeVsLnc0ou6qBhpX6rLaKBxUXabX7PvGwRECHDh1QuHBhPaiOJC6tz6QFC3cDLio/c+YMKlasiCZNmuDKlSu2T1naLkUE0G09txvVfNuhthDbtL4Q6QV+aWkGxEO56kf11FEHmgbxQC7HoSVQWsg8XxIFOzmhxKKaKP15XV07wJdWsVc99ejvhkL8nUUQeE6rggYxRtxS8rKq7dtZtxJjGE8i1JkAjjCkUY/7BV8QPGV5YNAonL2eZOtFw70XPiNdRcCEjdEqAr783RIBpgiIERGwZfFZTGoRjantIjBVCP7UdgIh+ZNbR2BKW+OZxH8y/QQUBlOahWPu/LP4Wr4bH8fcQKEpfvjPkMN4/1gyVl8AlokI+Fy6+RMRAj/FXTZEQEbun/sQAV9//TWee+45fPLxx5Y50L9AahHw6zfx+PTVC7rVLM+s+Pg1XoWYv2YHfbaFpYTz3i6OxrOLkxKXV4bZx7PFteWz5BX5TL973pgJiLZEwP2AIoC2tXv37EHRokXx1ltv6fflYbkHIgKCu+tJ+nmrvogaf7QVMt1UD916tnZ+/Z3lOjyS8pKf1FFS/2KzYshbPb+enJ+/nRPy1SmAWoc66CGeL7YoiiJ93fX03ufqFVTTXQ7e5fTKqyP7FAfVfm6p5P8Fictnng5cbnUDPfCMpJ1llZDfbM7sF+nnob/5DHN8oySyu+XWGYtir3ojZ8ln4TGzKhqf66cz/Vmdc6HwAA/lCrnK5hOBUlbblma77xMPSwS0b98ezs7OOoJriQAL9wNuasDPUK2aNVG/fn09B+jv3C0iwDw0rMLxFvrhT+tLkR6goq++ry0K9nBFoV5uOnJf7FUvnQZ0n1xJXjDFUHZlfX35cGaAI/7PNS6MqrtawnNmFbzQrCjKrmmg5kI8itxpeGnxK4Ly3zSE17waKDrIU6c5XcaW1yPDH9QOBzVPdEBV37bYcHaXrQf/ch+Ez9TdgcZEzMZ1+Xe/bvyGKBQWEfD1vkSbT/q4x1oERCdg06JETGgiJL9VmBD/8H9Gq3ARDWGYs+MiPrkGTA29hjyjT6DE0iAsiLuOxdK9C0UELBLMl/uvEm8gIOA8wp50EfDJJ5YI+Be4VQQEY/eaOHz8ynksfiUBS14VDLK7mvin57/zTytP3ts9fzQgEV++cx5H91oi4H5higCewPlEiAABB8RqHu6AfLULoJz8fnpOr6JEm8S66EBPXXP3bM38qPpTSzWzyVenEByHlETTSy/rLDzDynzuo7/f/C3mbAJH5XO450HJj2ujyYX+ko8HXEeXR9MrA1RIvNC0qJrqcpS/LmcffDuJf0+U/66h1oMz9RVEmOQT4UBx0TChD4q97Im8VV7S3+6mVwfCc1Y15Kn+kpobuX5QDjm886LmkQ5aRtkv6yFnqefUVDhlwXMabb9XPEwRULx4cRUBOpKbxmfSgoW7gSkCateq9e9FAN2+84dQ66Rh4vLAhIB8UTmlWPNQex0ZKPdNA9Q61lG/xLyWX9tAX0gc1afpT5WdLXR0v8aBtrr4qNy3jfRFxfhcVEQToOr7JUzS1jrSUQVCeYmjZT0gAcC+4VqAt0Mn4trN2/eQHhs+B57H6uP98Bm4mkb4v3UTLBHwF+xEwMYFCfiwYTgmNA8ThNqutvsW5rPtKuR/QuNQTGwbjukHrmKWfDfmSHe6LQyE9+IgLEoGZsUBMwQzRQRMk+vChBvwDbqAcCkzOK26ZARYMwEPHbeJgFVxWDLwvHHehAiBO+Kfwk3cbTzCFndR/0QsH2aIgEhLBNwXUmYCniARoCf3C7kv1NUFxYVMF+rtihIf1UTFDU2FrBeBx6yqeL5xYWOLbvndfL5JYZRYXFPXCvB3+fkmRdV8t15Yd7hNrIjnmxXFCy2LIbv3syj1WR2NV6SXq87C6wn7FAny+8y8c1d+AUX6uetaP8ZzersUsnvkhffcaipCshTNhlLL6qBxcj8UedkDDiI+6ofzlH7JY1sL5KnyggoYl/fK6Qy/j9SB7aFwyFXxRVRc19jYZUj4QZptv0dYIsDC44aUmYB7FQF0C6KXC8FtpmIgrS9GuoDrArjIJ6i7sfCHJjtC+vVFJc8+3O6T9xKuOw5wRF+euaOAhvNFJV9QPTdAvvxq9iPhmp550o/PaZV9n/CRciv7tkYL/344efmMrddudZYIeICwEwHr5yVgTL1wjGsSgnFNQ9PEh01saCbPDSRe6zCMP3gV45KA6YIuv55F9hG+eOXoBcy5CExOAMbHyt9QMENEwDERARG+lgiw8BdSi4CfV8Zhcf/zWNg/DotejtfD6/Qq4AF1vM7rFY85PeL07ArTzwzn+RU8vE7PrOgvfreljdO0C/remtYeC/skYPnQZBz9zRIB94snUgQIGkT0FAJfCXlrFEDeugVR5adW6k/TnLw1X0Kxwd5qllP7eCc14+HCYJJ2DrA936gwyqysr8Ihb5UXUX1/O/1tfk78S39RV9fmFepWXEh9OTS5/LL+Jvuc7qImvzV+b4cXWznoRiA+wd2Qr34hvNC8GJzeKgmnYSWRu9LzKNLfHY2T+uqGIfk7OaNRfG80vTxAB/TyVnpBOQLXJjzfsJDOLDQ+3093BMxV9jlU2dXCWGdozQRYeMqRLiIg6cZ5DA+dgrIiBB74lqH38qW1T5NWevql88vABF8KNAGiQNqe9Jutx2536S0Cxq0XETD8OFb+YYkAioDQM8lCWhPww6x4DK8YglE1gzCqVrCBmn9hTANBo2CMFfD6PsOrB+PdTRcxMhl4LwZ4P/4mHOcFwHH2GbwdcRXDI67j/TjgHREBU+JvwC/gvM4EpFmXjABLBDx0pF4T8NPKWCzqm4T5QtL1QDoRA3q1gQT/yxEJWDfrHD57MwHzesaqP0XDvN5xWDIoHj9MO4vVHyZqHnrInYTxfp7crxqTiHWzk/DpG/GYK4KA6VLKsN3P7x2PZUOScUREgGUOdH94IkWA/CZycTDNb555NjOeq1dIzXE44k6b/P88818l+CT9NY92VKLuNa+6LhjmTADXBJT5wgclJU4eIeWVNzeD19xqeObFzHAeXhoNonuLiCihC4+50LfS1mYo9ooXnN8pg8obmuOFVkVRbIg3yq6qh9xC3GuJ0OAuQiT+tAbIWfpZtQ5wfrs0Mr2QBZ6zqqLcqgbIJ2KF5sLcDMT1wwr4vzzPqKlv+e8a4cXmRVGwi4uaK+kpwmm1+z6Q0URA4OkACxZuAX+LbvmMpIcIoIu/dhZvBI9VIUDCyy9DWl+SpwnsA84AcC3A2sTNtp5K26W3CBizLgpFhvtizYGzNp/0cY+tCDidjKjIBBzeFY/Fr0ZgTs9wIUs29A0X8hSO2eI3tmEwPqgXhPfqBGJE1UBMbhOKhd3DMHHlOQwWETA0Cnj3HNDxQDL+N+woco89iSJzAzDgzBW8Lnrr4+jLiOAWoZYIsGCH20TAilgs7CUiQAg9R+sX9BWSr9c4zO4ei28mnEXw0atIiLgGv72XsfydBB3Zn9srFh8NjMOBDRcRF3oNUWeuYuuSJBENxpkXc3rEYv2ccwj3u4r48Os4/vMlPeV6TncRBxI2t2sM5nSJ0evsTrH45NUkHLZmAu4bT+pMAEl/rSMddMFtiQU1dPRcz9lZ3QBF+nqg6i+tdWadMwHuek5AY7XF57PbuAq6eQdn2LmY96WWxXRknmSddv+1DndE9d/aCCkvrmv0aLbLtX0vtXPE802L6C6AJPlllteF+8RKUo6xmFfrdLwjnEaU0XMLuEU4dyZyHFoSzzcuotua0hSokQiG4qPK4oWmxeAoQoFrA4uKeOH6Qs5IpG5reiCjiIDTgoDTZxByJkgRasGCgJ+FwDMB+vkwPyvpJgLo4q4l4t3QKSjv21y+CPJFO/VgvmgZHTT/oekRT1RueKoH1p/959Mj01sEjLVEwF+QuoadSUZYcAIiw3iYVwICT8Qj6CSRoAgNSIDv/nhM7xSGYRXO4F0RAJ+9HQnf3xMQ7h+PY/5nMSr2BnpGA68KXk8AKv4Yjf8NOYL/G3IYtXYn4u0k4I/Qc4g5nZSx+8cSAQ8dqUXArq+FtPc4J+Q9BvN6x6aAh9gtEDJ/dOclnIu5jtiQazgr11++TsbsbjGY0SkaP844i7iwayoCEiKvIejoZXz6ZryExWDxK7Hw+/0SEqOMtIlR17Bl0TlMbxONBQPisHRkAj6bmIjPJiRgkYgDnhVw5OdwREVJ3SwRcM94UkUAZwPqcu9+mtRyoS5n+sWP6+tox68mtDa7eobrXv/2zxJOmEKhDk16RSTUkfR6WJhc657pIvdSlj9NcyUNw4Tkc/chXbzLPMTfvk5cg+AT0g31I3uiUB93OLxRAo1ieht1o7mwlNNAwmg6VLiXG+rTZInlST725xekNzKKCAg7HYxdfnvR6/hYdDw2Ep2Ovy94z8JTjffR4di7+PzU94g4HZLyWUlXEUB38cYlfB63Fo38eooYaKH74vOL8TTNDFTxbYMKx1vqzkmHL5yw9czfu79EwMw0Fw7/W2eJADtIXWkOFC4iIDw4UYVAVIQdwhOF0CbizPEEjG8SpmZBm5dEIyJE/GPPanhCaAJ+CUvCqzE30DYS6CZCoHcM0OjwBVTdn4SuodexPvIiYqSMJ/mwMEsE3BvsRUCEiICdX8VibvezmN0jBnPsMLNztI70nzlwWWcBIs9cVSJ/YMN5zOoSjWkdorD94yQl/9GBV4XoX0Xk6Sv4clQ8pgjR//iNOAQfuywC4SqiA67K5/Yq9m68gC+Wnce6o1exLfoGdiQa2CKf2Q0HruHP0wkIiQhDeOjtswGWCLg7PLEiwEQ6mM7csubOzE8J/e1h+vxPZUo4DyCjORBH/Lm7kH0+XAfgNr4iHEUgpKwj/Kc87xMZQQRwlDf6TDjWntqCnIfq4T8Hq+K/h2oLalp4ivEf4mAljDixAHFnIlJmA9JdBJju+CU/vBc2A/VOdtO98UmMa5zs8ODXDDxksD00f6p2oh0qHW+FqtLOzmcG4+v4H3DuerKtN/7ZjYuYp1uEjgqbjqs3r9p8791Z5kB2SCUC0gKFwemjCVgxOhp7foxFXJxB/sOCjPAIQVxQAvaFJmFS5BX0iLqJdlEiBBKB8YnX8VPEecRI3EiJF2qJAAupkHomYOeXNMs5qwfSzRZFaWJWV4GQ/b1rz+Os/H0oBIhNC8/p6dbT2kdhxQfxiJTvYKIIgXPR13Di14tY2D9GBcLcntH4c9MF9Y8VEXAq9Bq2x9zE5ovATvlzb7sMbDlvYCtPupZXzbZLN7H33EWcjohCeMitQsASAXeHJ14EZFDUPdUFtQ62Q82D0u5UO/tRENQQ/xoH2j1w8m8io4iAqDNh+MFvO/IfboXshxriucPNke9wUwtPMfIcboJMIgrHnliK2IchAuiu37yOPy8cx4yoj9E9YCjqneqqNvIVRRTwpOEnAtIWvnib+/fF0JAPsSZxA2Kvx9l6QMiT7fpPbkLEfBUBI0Kn4MrNvz+x7W7c+99Houi7vvj2oCUC7kYEKGyEn7MD4SF/PdsjRoQAr/tFDGwJuYDfgpPlC5SIWJs/YYkAC6mReiZgxxcxmNUpETM6G6dTz+wi4NV2SvWSV2NwYP15BB66jN0ruIA4GtM7RUl8Axvmn8XpA5dw/OeL+Pq9eEwVccA8KBQ+ezMOhyXtseBr2CBf/++TgM1C+tfEXMd38TewXvx+TLBBRKxCwncmXYVfRCTCQv4yDbJEwN3BEgGPCCeEeJ/uYjNDuj2MJkY6A/CAzH9SI6OJgJcOt0TWQw3wrJDAvEICLTy9yHW4MZ455IMxJ5Y8PBFg7+KvJeL35IP4NmEzPoldhfnRyx97LIz5El/Gf49NZ3+C36WA+zrk60GJgO8sEfCXCAiJFwhZ/xtEhMqVYiGNMBMRglhBguTHa6TN30C8IQIycv9YIuCh4zYRsDwGMzskCLGPNIi9SfB5FfDkas4SLOjPdQCRerq1Gc5TrCkU5veLxpyePP06EtM7/pV2crNwLBwTj2+ib2BNMiB6ALP9L6HU3AC8vC0OG+Qdv1aIv0KEAK/fyPUbibvj3GUEhIXJ59iYEbBEwN3BEgEWCEsEWMioeOQi4Glxdzvyn9pZIuDBItTvkrE4+Mz5dEGoIMR2vTUsWcq6mGYdMgwsEfDQcYsIiArBts+jMb1dvBJ4JfWpML2jEH8Jm9Q6Qq4RmCbP9mHT5Tq5TQSmtDXuzbCprcMxvVskPv3tMlZcAtYkyd8s4ToqfhyM//Q/gKLT/bEk/CrWqj+wwg76LEJgT+y5lNkASwTcHSwRYIGwRICFjApLBGRwl94i4D1LBNyOE1cfEtIoOyPBEgEPHbeJgGVRmNY6Tki8kPz2d0C7VNc7geE2TGkahjkTE7BcvvbLzwGrzwMjDicjy8jj+M+QI/jP0MMY/NtZrJH3/OdC+onlNvD+M0n3zbnr8AuL1IXClgi4O1giwALxRIiAQ3ZIK9zCYwlLBGRwl94iYMS3kSg2whc/HBYmkI5ORYCfiABfIZMkuxYeP4gQCDomIiDKEgEPC6lFwFYRAVNaxWFy63BM0RH9CNvIvoBX8970t/ezC7slXmtBy3As2HARn1wEPo4HvhQR0GV7vJB/EQBvHYH73DMY53cZn8tr4WMh/fZYYsPHErYnOhERISEIsETAXeFRi4Bfkw/oTnxcc1dDSKiFRwOeCVRJ/gbcLORudwa8F/cgRECeo3I92RTP+jfDs6ebK/KeaoY8x21pLVHwWMMSARncpbcIeHdtJBxEBPyYziLg2pWbCD9tzASECpm08BjilPz9rJmAhwpTBITZRMCWT6MwqUUsJgppn9RKIGLglqt5b/9s85ucOsy8bxqGyd0iMe/YVSwU8r9QRMCncu3z61mdAcg08jiG+17AZ/KOXxAn4UL4F9ig9xKf/vO4UDjmPEJDQhEkPxBptcfCrXjUImDP+T9R/1R31BIhUO9kVwuPCPVPdlMx1kD+Fo/NTMDRpsgj5D/3kSbIsdEHOZbXRI6PqyPH5zWQY11d5DrQWMKbIe8xycMSAo8tLBGQwd3kyEUqAoaHTsalm5dtvvfuHpQIIBe8dvWmzghYeLxx418cR2GJgPtDahGw+ZNITGwWgwktwkQI2MB7G9TfhH1Y6njynJJHoxBMfjUKs0JuYLZ87WcJqV8o11GnLyPP2JP4f0OPoO/es1gi7/hZQvYZPkvIv17tMF1EwFfxVxAQGo5g+YEwfyws3BmPWgScv3EBfpcDcfJygFwtPDrwb3BGrxdvXrL9ddLfpZsI8BXyf7wpcq6pjSyvlkKm2k7IVNEBmSo5GqjphCzdvJD90xrILSIgj8S3hMDjCUsEZHA3NXKxioC3QyfJyyPjigDLPZ3OEgH3h9tEwMeRmNAkGuObhWJCcyHyCt7bnpuZfmGp4hCp4hEiBMbXC8GEt6IxNeImpgqRnypEf7qQ/Jlnb6Lil+H4z8A/UeazUMxIvKn+DE+BkH/zfpKEfXb2KvzDIhBiiYC7wqMWAZZ7utx9iwASeSH0ef5shKwfVkCmqiT9xZClqweyyXP2BVWRbUolZB1YQsOeqeCArO+WRa7fGyHviWa35mXhsYAlAjK4mxr5UbqKgLe/iYDjSF+sP2KJAMvdv7NEwP0htQjYtDQS4xpF4cMmIRjXNNQOfBaov/19GnHMMKKZoG4wxg0WYRF2ExNEBEyIBcYLpicB/Q+dR6Z3jyLryOMYdPyi+o2PMcIZzx5jRQgsUREQbomAu4QlAiz3MN19iQARALTzJynM+k4ZPFOiCDL380aOtbWR+8/GyOPXDLlPCXg91hQ51tVBltdK4hmPwsg6qCRy/yFCgDMCdgQz7xG7e8KaLchwsERABnfpLQLeWhOuImDDUUsEWO7+nSUC7g+pRcCGxZH4sH4UxjYKwYc28D4Fje385f6WsLTA+HWCMbZnBEafvo4PzgIfRAuE6I8RYv9h/E2UWR6mswHey0IxJu4GxotQGCfxSPpHSzzG5XWkPC+NuYxAyxzormGJAMs9THdfIkAIe24h8dlnVEYmz8LIIsQ+10ERBiEtDdt/EnoTNAGiGJB02cZWwDPeIgRGlNP1A1xLYOZJUZHnlDxzcTEFgITnOWEzH2Jc+jEv+h2TsJPiL2lS6nQ3SCnz7tJxoTPbwzI1bRpx7hVsF9uQglNSDtdMpBH3n8B07JO0wtITlgjI4M4SAZbLyM4SAfeHW0RANGcCIvBBLYFPMEbXN/BBKoyuH5LiP4ZoIGhoQ4MQG2z+gtF1gvBB0xCM/O0SRiQDI0QEjBBS/65cxwjh73X0oi4O/u+bR9B4ezw+SLiJgX6X8VbYdYwS4s+4TPN2PLAiKgnhITwnwFoYfDewRIDlHqa7LxFwohlybqyHTLWdkbm9O3IfaIzcQq5zrKyNXD/VT5uQSpo8gqyDSyFTJQfkWFUrhVznEQGR87s6yPFFDeTZ09BYZ7C3IXJ8VRM5v62r4ST8ubfX10XHOb834uZaL2F2QuKfQOGh6xLSCLsNkm+uvY2kvBrIubo28vzZOF2EAOuba6e047PqyLG4GnIsEXxUFTlW19JZFF08nUa6tJCH7TnUGDm/qaV9QqGV3mLFHpYIyOAuvUXAMEsEWC4dnSUC7g+mCOABXBHRoTj8Wyhm9wjH+7XDMNpHUO9OCDWuPiEiGITk10sF8RtVKwjv1RLB4CNxa4Tg3SXJeFO+9m8JqX9LSD0xTO6HC7kvuzIC/3n1ILKNOQG3T0OQd+wJVPsuGu9KGOO8KXHfSQB2RcYiyjon4K5hiQDL3Y9LvHgdewMu4Mo14z37T+6eRcARIeNC3rN9UA7PkMyTIAc1R7ZplfBM+WLIOr6ChueReLeQSI7k+4l42GyIh6yvllQSq+ReREOWEWXxv1JFkfPzGsgb1hI5vq4p+RdDplbuyPlLQ6OM98shUxUHZB1dHs/UckLWt8ogz+nmxqh6avJMss96cCaBz3Kfa5MPso4si5wrKUBsMxYc7Wf6VLMKHJnPLiT9mbJFkaleceQQwcHtTrUdnK0gJL3mb5dWt0llvmZYqnqx3OzSZ5laeyBzVy9k7uWNzD28kamlG7KNLofcB0UIMD/mYaZjHZkv7235an15L/5Zx1ZAtnEVjfIoihifbU/dJlufaN3t/SWepk1dplmOzc8SARncpbcIeHNVOJxEBGw6ZokAy92/s0TA/cFeBPCsgLCIUBzZG4rtX4dh25ch2P6VPehvYJvc71oTiu/mhOgagFG1A/F+3SC87xOo9+9WCcbU9mH4cX4odqwKxc5lwfhuSzTeibuBQbHA4CiBEPvXKQaE3Pf2v4JnJ/mJEDiE/ww5jP8MPows7/mi/aHzeEuEwEARAlNjL+N0aDgirBOD7xqWCLDc/bjfTl9AyQ9P4Z214YhJ+uetm+9JBAgBJjHMtacBMrdxQ+ZOnjq6nuuPRsjcxQPPOBYwZgb222z+SZhNUinQUXCS1oElkblxceT+tb6Sc5oBZZ9bRdcMZJsgZDawBXJMr4xMLoWU9HOb0dwnmwpZ9kTmOkL+F1RBpsoiBoaVQd4zzZH7t4bIbaubklfJL/fBJsj9UwPk/r2RQYj9myHbUiH1ZYoh+4cVDIJ7shlyS/xcuyXevsaGSQ4JspDl3EcbI+vrpfCMWyE8410U2WZUURGjo+9C1DmbQIKce4+Uvd/YApV+uf6UcNZBhE1uES8al6ZLZh/IffavayFTnxLI8UMdiSNl72mEHIurI7MInhzf1TZEFGc/zDSHJA/2Jet1XMr4qb7+DZgX+z/nxroicOoZZbFOcs21Q+Jwa1b2CfMR8cG/S65d9bV++vehiJCyckn/aR+wTyR/zUPqz7i5pG5af/6dLRGQsd2MqKUqAt4MGY8LNy7afO/dDV4ZDudRJ7DFN8nmYznL3buzRMD94RYRYBMCnBGIigtFZKxc74DImFDEJYXi2P5QTGkThpHVA/FenUCMqEaEYOEroTiwU+JKPOYVHRuCyIgQfBKdjD5C6gcI+R8oQsDE6yIEmuw7h1xjT4gAECHwhgiB1w+h8g/ReEXCBsXdxJbweESHhGg9LRFwd0gPEZB06QZikq8hzsJTh9CEqxjxbQQcRhxH24+CsD/ogrxzbR+MNNw9zwQI2c35Y108U9sJ2UeXR54z8ry3ITJ3FhEghDmLiAGSSh3NTi0CiFPNkH1GJd06NMfaOpofCXROIfqZajgiy4ASSuizvlkaz5QoqrsK5VhaHXmE9GZqWBxZ+ngh5ze1kZlbj0rcbOMrIFNrd2QdUVYIa0MltTm+rKHrFLJ09EKW7t7Isay6CgmOvHO2InNTV2QT0ZFzSz2dXcjaxRtZepXQHY1yHWiE3CIYcm3xQWaf4sjUTtol18xdRfCQjAshzjarks4oZJtaCVmk3Vl6eSHHt7VFADRC1nEVRMgQFZGlrYS9VhI5NteVehk7IqkI+KqW1L2Ukvu8Ma2QN7Y1cq2X8jp4aD9kX1YT2T+roYQ/t6/017IaxharIrbYd5lFQGTqL/VdXA25hZhn+7Q6sn1ZEzm/ro1sM6sg68SKyNRN2v5aaeTaXE8FEIVClrfKInNvb+2zXPuMvsouabMMLIVM9J9YQYSCCBcpJ9skKad3CWSWemb/WPpf6p7riCUCMrT7SwSMSxcR8IYlAiz3Dy4s8Sr2BcoX/i5moC0RcH+4TQTcJUJCDCFw6JcQTGoViuFVAvB2pUC8XycEa6aE4vTJEBULXGtgpokUAn8iNBzjYi+hayzQKxLoY0NfEQIvxwGtjl5CybVRcFkehvLrYtDW/wp6iAj4WMQDDwkLD7VEwL9BeoiAD9dHofyEU6g9wx+1plt4WlBTUG/2aTSYfQZlx5+E4yhflBl3Cr/4n7d9Mm539zYTIKSVhPKrGnimhpD4pdWQ12aOk/W9cnjGvbASzNx+4pdiPmQnBCgKaBK0qiaeqeWM7AurqSjQNQBCSjO3cEWmZq7IubWeEHgPJfeZhIBnk7xz/lAHmYXAZ/+gvBLbzDyPQOqQpY+3kvpMXkWQbVpl5Pi+Dp6p4oDMrVyRfVYVZGkjedQxysr6cklkogho5WaEdffScw2YLuvLJfBMTWfk+KIm8ga3QPbZVfBM2WLINr8qsg4RQVLZUYXEswHNkbW/N54pXhCZSfJfLY1M1Z2kDi7SLiH3rLdXURENIiwGSHnlpDwKIwoUEUYqAlaJiOnkiRzzRIisrKn9yDJyCMHnzEjWt0WYiMDSGYFTzUVsVUBWESvZJX7m7p4iwuog+/wqyNRR8vi2jm7JmnVcRREIUufa0l9TKyPn6lrI3M4QR5xtyCyiIdukisi1sZ6WlU3EioqpDpKHCIycK406ZZ9XFdmk7Vn6lxTh4INs00UMiH/OdT5an0yH6loiIKO6dBcBqwwRsONkss3Hcpa71X24PlrXjUzYEI1zl27YfNN2lgi4P9yvCDj4cwjGNwnF0DJBmNQmBDu+FqIeIWHRaaQRRIcE41BYJEaLEOggQqCTkP+uIgK62dBbhEDveKCnoFsi0EOwQARAQGgYIm0CgLBEwN0hPUTAp7/Go/eyEAySv+0rX1l4WjBQ8MbqcLmGoYKIwGIjfFFn5mn8GXJnHnCv5kAqAj6vjkw1HZFTCLPuBsTR980+yNTIBZkbCxneVh95/EUI2MxNlOjTNp7p5T7n97XxjI8Lss2poiRXd+E51gRZ3yilhD3rVCGejYTMTq6IrEKkM/fwkvtKyFRRiPiyGsgtIiFTZYNcs4ycG+oiUwUHIa4lkHNLfWQTgq9mNXsbIutbQtJFIOT6po6UW1fIvAOyzays9cncsDgyVZE8hbxzsW72JdV18THJeuaeIhCkLswj5xciekoURbaJFZEvQATCICH3pYog54payBPWAjk+qqbigrseZeniicz1pQ+2Sj7BIhiEvD9TUtIK0VZzIumP7GtqI1MbERB9SiDrK6WQpae3zjjQJIoj7lnfK4+s4ysa5jnSX7T3zzK2vPRBBWQWkZGbi6+PS7tF8NBkh7MP2aV/coiYydLbWxdqPxvdSvqhMjK/UlL7mbMHuXbUU8GVY6UIhK5eyCJlZBGhkGNFbd3BiWsmcnLdhAitLH1LGKZOnAHgomOaIMnfyJoJyMAuvUXAy1+G6pqA7w6eQ/z564jVacfriJN7PisuXEeCHRKJiwbO2nDOhJBEglPWSZdvINkO54krN3AhFS5evam4RFwzcFnAxU+34PpNXLXhmj1u3MT1WwDI5RaQm8r/uxnMtlwqt+PkeVSf6q8/OiQfJyLvvBbFEgH3h/sSAbqQOARTWkeo+c/BX0JUGFAEcNQ+rXQEF/YeC43Agsgk9I29jtYiBlpGAy1EEBB8bi8iYHDsNayMTEAQywoNVhFh5mGJgLtDeogAfY/xfWbh6YL83WOSrmGoCAGnUb7o/0UY/KL/fl3gPYsAjuSvFhJf21nJr9rRCxGnzT5NVdQk6GUhkH82MuJyhx8hyySTJLj0y/FVDcMc6JPqhgiw+WefW9U4dKyVOzLVddbR/6wiBDLVFbLeliP6xdUenmY8ughZCP6z4S2Q+9cGyFTLCVl6CQGWeuagiUtfbxEJnsjU2BWZyhVFrrW1kf27OoYIEMJMExma3GRmviJoMrV0NbYulbx08bLkl1nAA8+yDC+LTN5FlKyrqZKIgMxSv1y/NkSe0BbIJfUh8adJTeaWbkqgufYhr4Rxd6FMJYqo6dCznDWhCOCagH4lVbzk/l2I9m8NdUQ/s+TPuvPwtVtEgNxnHVNeBEkjZB1VDpm7SzkiHigaaP+f7UMKhErG4WxvlxGB00TLyr6wKjK/Vso4zK2FGzJzLQZFFa/dvZDzW+mTRSJgOCMifzOKiVzSftaH5z8wTpZBpfXvrDtAHWmMTJYIyLguvUXA22vC4fqeL+pMP42WCwLQbH4AWsiV960WBqC1oM2iQLQlPgpEO0H7xUGKDkuC0HFpEDoLutjQ7ZNgRfdPg9FD0PMzIkTJI9Hn8xD0XR6CfstD0Z/4IhQvy8tswJdhGCiC5JWvwjDo6zC8Rqz4C68LaLo0ZFU4hgrelHpze9NhayL0wLN3iLUReFcw4ttIjPwuEqME730fifd/EPwYhdE2jFkXhbGCcesFG6IwXjBxo4FJm6IxZbOBqVuiMW1LDKZvjcUMwUzB7O0G5uyIxVzBvJ2xmC9YsCsOC38ysOjnOHy0Ox5LfonHUsHHxK/x+PS3eHz2WwKWEXsT8PneRCwXfPF7Ir7cn4ivBStsWPXHWaw+YGDNn4ID5/CtCDWCgu27Q+fw/WEDPx45h3XE0SSsF2xIAxuPJWGTYPNxAzT/2mqHbSeSsd0GzgoROwW7TiXjt9PnMUfaXHGSH4qKEKgtn5V1R5JUbKV2lgi4P9yrCCDCwkMRcCYU+7aGws83BFHxt5r//B1o2x8h+DUsCkujzmJ01EW8KWJvWOQlTIy5gC8jE3FIhEK0CIYIgb0AICwRcHewFgZb7n7cz/7n1QRo+tYYHTj7J3fPC4OF7OfkqH+94moCRPKvJj9ctCrEP8uwMsahYP281T5dyXEVRyGxEpd26EK+dVSf5kRCfHWW4KCQVs4wCCnlzkHPeBZWMk0TGm4FqsJASHjmbl66+41uT1qhGLK/WRp5g5oj9y5DBNDcR0ltVWPRcM5N9ZQ0ZyotIuAbIbxrRLxQBMyobNjJc+RbtyatiayvlsIzUgbNZDhynqmcgwoVChCuDchcSZ7rSJ3X1UXWwSWlTcV08W3emNbI9X1dZKnpjMxSfhYRFRytzyXkPG90K6lPVTzjVVj6QkQAZ0dsIoDmNnlEAOQNba7mR8+eaa7CJctYIfwk/RNFBHCW5Yz019jyyPKusXOQLgSWeudYIO1s547s0yqrSKAJkIoALpaWOCoC5kv/vy4iYHwFqVsJ5JC26vaqUl/u6qQzCvJ30y1LRaxk7iWk//XSxmJqlsP1CSI0KJSyz66MXH6WOVCGdum9MJgLjQavDNMXSyUheRUn+qGCgDanRDlB2fGnUEZQWuIQpT48pTsUECXGnoQ3MeYkvASeow14EB+chNsHJxSu7xtwee8Eio/yVRMkp5EGaGriYANHm4u864vCw+WaCuonYSb4fDuO34YitmshO787QeO8c+vzrel8UUjCU/xS3f8Vz/bM8NSQsDTvbSiY6jkFEveOYXYwy00N9gNRVPqumAnpb8LBBkcBZ4aMv438neRaXP5W/Hzws1Bm3En9e3mPOYWDaUxDWyLg/nA/IoCgEIiKEaIeaZj7pBXnTggXxIgQiBIEyb1/aJgiREg/RQIFQJhdfHtYIuDuYIkAy92PuyDE/3TM3e8KeM8Lg48LaeRuQD08kaWlq+4qk8dXyCpnCUQQMIwj6jwL4BmvIno4WKbiBdVMJo+NxKrJTFNJ+4uQYCHFKi64LuDXBmqe8kyR/MjSr4Tht10Iv4+QcYcCSujzcuegH+rimVJF1HyIBDr3rvoG8e9bAtlGlxfSXwTZl1RDzt+knkKsM7kXRC4hvST8nEHI0tML2YX4Z27jrmsBOMKe/RMRGxUdkGVoKWTu6qF2/jSbYZ0oRrJPqqQiIeuHQsiHlhahUgjZ3ikreYoosNn+8/A0Ne0pU0zt73N+U0fXJDxTzRHZReDoTkg2EaCj/iulTlvqqajKKfXN3NodOT6rqYtysw6S9ktf5dpdH1nauyPL22WUzNNUSHcwEhGTVQh71rfLIitFwuTKKhxo788dklQECHGnORDPW+Bofy6uaQhvoaKF+egsx2ultP+eDWuB7CJUuAA6y+BSavqkplwC/i2yvVtWF0xnOiwiwNcSARnSzYr6GF4iAoaEfIjzN/7+j3C3jiY/gXFXEBJ/FcGCIEFg3FUECM7EXsXp2Cv64vG34VS0IMrAiahLCt+ISzguOBZu4KjgiOIiDodexCFCSCOJ458hF3Ag+AL+CDLAHQ72Bxr4XbDnzO34VbDb/7yOhBC7Tp3HToGOWp9I1pHsrYRvMjYfT8YmAUe/ef7BegFHyn8gOHp+yBhJ56j62j/P4hsdaT+L1X+cxco/ErHSNhr/1T4iAV/sTcByG5btScBnvxmj+rTN5Qj/0l/isHR3HBb/bIAzAQt3cXbAmCXgbAFnDTh7wFmEWdtiMFMwY2sMpm+J0RkHzjxM3hStMxGckZhAbDBmKjhj8aFt9mKMbTbjA85uCN4TjPremPUY+R1nQSIwfO3t4GwJz4Tg7Anx5moDnFrm7ArB9SGcbeGOUYNXhOvsy2tyfXN1hM7SVJvir0KPooAzOuGJV22foL+cJQLuD/crAtIDJPq096eZEMGR/zuRfxOWCLg7WCLAcg/T3bMIEGKa+5QQ0OlCiisJueXOMZwNoAigyQ+Ju8TJsULIrJBkJdqdPVLOE+BhXxQI2YTQ5xZBQaKrIoDnDxxvhmzDy+IZIeMk0SS6eQ40EhIqxFqIdI5PaiJviIgA7k7EmQgVBc2R++cGyNzMVURBaR3t5jalmRq5KvHN0tkTmeoZC35p6sJdjDiLwBmLrJyRaOKKzO3Er4UQ7T7eyPZRVbmXvITY6/aaZ5ojb1AL5NxWD5kbuSDLwBLIwgXG0vbMXbx0xoKCgbMinBng7kh6iFpXL8MUqa6zMfNA4i5t1XMC1tZGpk5Sr27GOQGZaN4j9aTpE/uBpkuZO8ozTXlGllMin3VmZeRYJek6e+ssQua3yuqoPUf2s02piCzcFUhIP+uhMwE0r1pUDVnfLKPiS2cDRCRlHS75cZHwwqrIyfpKW2j2k40iQ8rJ+Uk1EUgiiKQ+Wbie4K0yyMx+XV8XuU40sWYCMrKbE/WpzgS8HjwGydfvvCuA5SyXXi466ZoKDvcPjNmeqZtjdB1IWs4SAfeHjCAC7gWWCLg7WCLAcg/T3bMIINE/KQSTB2lV50Jd2vVLGA+p4gFhFANyT2Ggi0q5V/7eRkrWc+yoJ8TYRe3pufOMziDY8tR8aepD05RvayP3L/X1mesFOFqe/fu6mo/usLOvkZL9XFzEe0yeDzTW2QHa8vOZi3JJgHOsqIVcPzXQHYPyyJUj5DmlDjQLIqmnAMkhaRiXW2Vy733a6Ot2n1xEaxMorBtP882xQcrY5GPsSMSF0TStoTkRBY7kzYW0WVqJmOjqiVySP0f8c6yXdlIAENpGibdb2sg1CqtqIfvKWsgm15zbfQyRIO1TEUVyP6+Kmh+xL3jmAcNy7myAbIur65ahuX7mnv8iGqROXNCs6yW2G+3SMxl2N9CtTrVM9qPkmX1hdb3qWQYicvRU5GU1kG1JdWMr02OGf46tPmrKlP1zEU+c7WHZh601ARnazX6MRADp4L+F5TKee/fbCOQefFS3qeOMyt85SwTcJ86cQbCIgJCQkMcK/IFIsz0WboElAiz3MN29zwQISRWCn21SBd23n+Q0b0hLJa4c2c9LQcCrkHHd+vNMc+QJaIZcm33UVv6ZkkWQY0EVNTMxyb89SDZ5sJWKCtNf/QQk0iTlJOd8pj/D+cxR++Ny1fjNjO01Cfu0Zl60tWf96CfpODqvcU0/894s3yzjlKTza66mUDRHykXCHdhC8pD0p5oLKW+ALPVF5LRyVdHA04wZpmnt8tLZD9aJ7VTIPetPf7N9rBfryfRaL1t9pP7qL9C2MT8h7hpO8N4si8+MYxNm2i4zT1tZbCfXHuj6A9bDrKuWb0DLFz/rsLAM7h4nEWC5J8PRZIoLr4+HX7L53NlZIuD+ESBC4HFDWu0wQeKbln96gfk/6DLSC5YIsNzDdPcjAvL4NjF2j2lvmPlwxJj2+VnHlVezkdx/GqPJPAwr19Z6ug8/9/t/xmY3r2Y29mQ1o8A26n9HCEEmgediWZoz5fnF2PtfybSQbM5QZJ9YEdmmV0TuPxobxPuf8jRxp3ip/e2f7zZvE2nFp5/pf6e8bfeWCMjgzhIBlsvIzhIBdweTuPLFShL9OBHZu4XZPpLeBzVTwDK4XoE48xj0H+triQDLPSx3zyKAZiRCfLMOLIFnShXVQ794kFammnKt4IBMNZzVnj3LwJJ6GBdNfzKVNw7vyvF5Dd32MkMKgLuFEGI1Y/L7azQ9JYwigSP0nFmwT/OEwBIBGdxZIsByGdllBBFAUh0VGYnoqKgHRj7vF6xfTHQ0QkNCEB4Wpn2kRDaNuI8jTAFw/Ngx7Nq5E6dOnkwRO2nFv1vwR8j+b8o89/z2m5LqoAz6t7bHoxYBwWev4etDyfj6oECuKw4mYaVg1Z9Jcm88rzhkQp4VtnuGSZyVjGc+y3Ulww/L85FkrLL5Me+VjEOIP8vQe5u/Ppv5CIy6EKyPcTWeJUzyZppVUo7W3ZYmJS/62eKkpGV9GIf58Xr4vBGf4XzmvS2c+JrxpA/M/FdKer2Kn/ozjrTDTGv0g/Qb09nl+Vf9jPqb9WNcXr84kIRvfc8j6crfH7qYXu6eRQDNRw41RpbhZXQnn6xy5SFbOdcbNuQ82CtzE1dkakCzGDdkebUUsi+oipw/1zdMUUyTnlQE87ECyT/xb8Mec1giIIM7SwRYLiO7Ry0C+KIi0Xp72DAMGDBASSgX2prhDEsN+zDz/k5+9un+Lsze3x6mQNm4YQN69uiBGjVqoKa8VN944w0c+OMPFQRmevv80sozdbgZJ/Wzffw7haflZ/rbP6f2M+/NtPagCPt46VK4u7tj3Y8/Kvk1Pwf28cy8TNwpjM8UEwTv2Zf8ezds2BDt27VTQWUKBPs8CPt8TNxNnPQGy3mUImDjyfNwmBSEIhOC4DAxEEWnBMNpUjCKjwuE48QgOEoYw50mBMqVYbw3EQin8UFwlrjOcnWcHKwoLv7Omp/EGR8geQSjqC2MefHKMorRT+IwHq9ONjja0vLqOFHiSn6OUjctU8opxnqwbK0T48mVZY6XeIxDP4WUK+0xypWrppd0cu8wNUTTs55aH7lnfOZl5qftnxyidXeaEgIH9g3rKGmKSfpi4qf1FRSVZ7POLEv7jFeGsXxbOpZHFJd6FBe/F8cGouK8UAQm3L6z2oNw97Uw+KAQwp+5dWYj5Dkhftz//hTt4psh9x+NdJ0Ad57houBcXEPgL2lpb870j7sAeIphiYAM7uZGf64i4NXg93HuerLN13KWyxjuUYuAyIgIrF+3Dvny5UOWrFnx2aef6oi7fXh8XBziYmMV5gi8Sc4oGExCSJLJ+Hzxsf68kqTzyrTMl3EYFmLzS0xIUH9TjJjlEnymAFj80UcoUKAAmjVtirFjx+Ldd99FpUqVULZMGfz8009aH+ZJUhsfG4fE+PiUspgHYdaFP+xmufbtSJA0bJt9Pcz2MR3jM5x5puQhaRjHLIP+bD/jmPVnevqZz2Z/sGyWyb5lvc3+4ij9R4sW4eDBg5qf+rM8KZvlsQ70N8tkWfRj/Vgn5sE0EVIO69atWzd8s2YNLl++rM+M//VXX2H16tWaj1kv1pH1IezbRLCurCPbYsZhO5j2QYPlsz6PSgRsOXUB7pMN4uoiJNd5WghcpgXDdUoQXKbKVeAmZNdVwtwEvLoK4XWTNIzvJvfqJyTdVfxchfwyzF3Is9vkYLjzmfHkyrycp0s5cnWXdLy6MNwWx1XiMz83qYMbyxY/5uMppNljZhTcp4fDY3Kglqt10zpIvuazpC1uS0d/Z7kvLm1hPTQuryyHcdRf0hK2NE5SrpFW0vE6IxRu00Mlb6mPPLtLPA+Wx3iC4uwX1lnIfHHWmWlYB+0/lmPrG/pLOneJ6yX95Cb3blOlTVJ2IRE51RaGiQi4ZvuLPFh3PyKAMPeQV7t3c+RbrroWgCYxNrMYXVT6hI6MP22wREAGd/NFBPCcgEFB7+Ps9SSbr+UerDOIreX+2T1KEUCCRbL8ysCBaNasGTp17IiWLVsqwTPJ7g/ff4/5c+cqMSUZZ/127NihYRQPv/36q77o+MLjiPN3336rI/Qkjvv37cPmTZtw9MgRLFq4EMuXL4ffqVNK6nyPH1e/0R98gC+/+ELzYz6sk1k31uM3IcUODg4YMmSIEl0iOSlJy+rduzdWrVyp8VjegQMHMHPWTIwZPRqrV61S0sp8WTfWadPGjTh29CgWLliA8ePH45dfflFyvWH9eowZM0bbxnKZhu1n3f/Yvx/bt21LCScZZhvmz5uHDz/8ED/t2qV+THPwzz/x/XffKYEw+2+v1J+j+vxhYD2YJ/vlVyl7gtRh+rRpWjfmwfATvr5qDsQy2A9annwWli5dig/ef19nCk7LM9vG/mI57L/R0uYF8+drv7I/2M558nd78cUX0Uf66ZNPPsGPP/yg6Uiof//9dxUXTM+/x7atWzFu3DhMnDABO+XvawoGlsHnX3bv1vZNmzoVEyTObpv4Mv9eDwrM/5GKAP8L8JguxFUIKa9eQtLdZgh5FZDwegmRpR/vPYQQuwnB9RB4SlzG9xCi7DknFt5zYlBCiLr3vER4zo3VPDwISeMh5NlT4EUSLeV4CmEuIfl6Cjlmft7iX1Ly9yTk3l3ydZ0p4RLGey+S5lG/w33CSXjODDPqwrxYvuTFfJknn92lrsyD9fOcJvWXMuhv1EfSzo6W9LY0QsRLiJ/X7Chpb6hB8gXuElfjS7oSUpbWm/HNdkuYu9y7yT3FBPuD5bKuHuwryYv18rCVrf0l955ss/gb+Uh/yJWzDjVFBASlccbKg3D3KwL+FhztN5FWuIXHEpYIyODOXgScs0TAA3cRkRH4XX6wjwjx85cf8H8LfoFIekjo/hTScfbsWVvOT6Z7VCLAJLv8sfP08lTCuFgZEA4AALdJSURBVGb1aiXc/PuZI78k6TVr1hCR0BRNmzRBlixZ8OabbyI6KhI1a9TQkfmEuDglhH8ImS1XtiyWf/45LsoLb+mSJahYoQLatW0LDw8PNJc8SG5JeuvWrYvy5cqhVatWav7Sr18/3e6TL06zfnGS73tCfJ2cnJTchgm5Jfln33AmgfVj3IiICKwTQVJWyi4neTaQFy7b0b9vXyWyFDorV6xAqVKl0LFDBxU8ZcqUQfXq1TFeiG/9evXQqFEjJZlDhryRIipoMuPj44O2Uv96Eof1GDp0KAa8/LI8+6BCxQrwkLpv3bJFhclXX36pdWD/8eXPWYzJkyejTu3aStxJZrt3646GDRqgVevWaCL96eXlhSpVqmCfCAMKHIqIEt7e2CXEm/VmX/EHxE3KYbtIUBo3bqwkn33SXNri6empfVuyZEkhMe0QIH3IGQXmnz17dpQuXRr1pB3jRLTExcbo36NHjx4po/5TpkyGo6Oj/J1rqrmVk9zPnjVLZwf4WRzyxhuoU6eOEiTWoYL8TVkWRRXTP0gh8KhFwOaT55XIcuSbJNUgtzbSS8JuI64m6ebIOEfpSWw9hDx7jD+F5+sNRu6KHfBslW7IU70PHF7/Uch6BDxnSBwh826zI+ExK0qIb5gSb+bpLXl7T5PnOULKZ0WoEPCWMIoCzxnh4h8j4kOuUp7rZD/kKd8RRfp/Aa+FSRJuq4+AJJ/5kHSz7kzrLUTfc2a4QcwlDkm9p5TvOvJ3vNBiNFzGHoW35F1iViyc31iP/O0nK6EnefeypedVRZD2geQrdfRS/7AUkeCtwkMI/yxpH/1nyr3kw3qoGJG6uZv1osCRZzeJQ7GgfpIvzYdqLhIRkMFmAvKLCMh2qCHyHW6mQsDC0wueNZDpUD1LBGRUZ4mAh+euX7+uo8QzZ8zAggUL8NFHH90TFi1ahLlCSonjQnSeZPeoRADzJ8nkKDIJM0emOQrt6uqqo732dSBxZ9xp06bBxcUFO3fuVKJcrlxZjBo1SslrOEXA/v1wkR9QjjpfvngRnyxdimxZs+K9997TfHyPHVNx0UGIeKuWLREteV67dk1H+93d3LFs2TK1izfLpalM6zZtUL1aNSXlZt0JkkMSfObHe5oHcSaDYSSNP/zwPQoWLKgj7ZekLhQB//3vf7W+sbGx2iaKELaHJkUJiYmYOmUKnJ2dcfjQIW1vXZ+6Svz3/PorEqSNc+bMwf/+9z8Mf/ttRAvBP3PaX0n/WyKKLl+6hM+l/iQQJOAUKGzLhyKSKExYR4qC1q1ao3Dhwti0aSPipR4HRey6ubnpzATrSdOdYkJ2ORtA8x+a81CwUAww/a5dO9G9ew8N58j8MCHFFMs3b9zQ716hQoW0rUnnzukMjLcIirlSb7aHdYiMCEfTpk3RqVMnLY8zE0wzVf7mkZJ/pIj4sWPGKOFmGcxn0KBByJEjB5Yv/1zrwL9P5cqVVbjRBMn+75LeeNQiYJPNHIhmLUpehbTqaD9FgY64cyRbyPEUIdIk3jaB4CGE3XtuLFxH/4nMRcvgpVbj4CSE+sWWY5HVoSKc3/kJ3kK8vebFwmOiH1xH7ROiLMSawmFqoIQJyZ8SCNf3xF/KY16ccfCaEwvPif5w+WA/3GeRqEdqPKe3d6L4uKMG8adYUUEidSIJnxIg9RbCzrQS1+W93w0hIwJDhQBFwPx4OL25GVmdq8L5/X3wlHp4LzyHQj0WIZd3Y3hNkvZInTwmnkbxUXvhOjUA3hQjFC1z4+Ax+QxcmI4EnsJFyqNo8ZoZCddxvtKHZ0SAiBhJIfkUKiJqpHzOqrBvKZ40TK4qCsSviJRbc1E4ghIzhgiIFhHwrd9W5BYB8J+DNZFZyB9HgS08vfjfobryWaiKUScWIc4SARnPPU4i4OaNxwhpWPxcvXoVGzduVLK4ePFiNf/4J3xug73fZ599hvnz52OGiInDhw/bcjdcmnXJQBAulmbf3Mk9SnMgltO9a1e0FaKdlHQOVy5fxstC7Or7+CjxIslmPBI9jvryx5FmKST9rB9HwknwOaKs5jhCVDni/ylFgJBimhAVLVIEe/fsUULMPP8U0ksy17NnTzXZoXkLyTPJNxcn0zyHebNslstR77p16yDKZldvDxJEktv1P/6oawbW/fCDCgemZZ34g87055OS1A6e5HuP1IVhHOVu3KgR+vbtq+XESLm0kychpyCiX61atdG7V2+cO3tWy6HpURHJg+YxLIdtatG8OXr16qUzH5wBcRMRxTJMEUByT4FiigDOpnQWAs46hEqcWMmXsw2vCtFmn1EEcFSeQuLkyZM6SzJ79mycFZHCPCh6TEHEa7zkQ1FGwcxZlRw5cqqwI3nnTAFFAGd5zH6hCGjRogW6dOmCa/J9HTVypIoU/lgxP4o7lsN0kyZNwlX5TLCPqlatqmGMx89Nb2lzc2k722TO3jwIsC6PdCbA76KQVdq3G+SeZFhHsEmwSfb13kb8SWRnypVEVsi216xYFP/gD2Tz8IH7ewdQ7gvAa0GSiIBKKNL7E5RedAlF+32JPBU7I0/5DshXvR+KjzkE74+S4PDWJuSq0BG5y7RFzrJt4fD69yg5/xyK9V+BPOU6IE+FTshTsx9cxh4Uwh6DF1p8AMdRv6Fg13ko2H6Gmhx5CWl3HLoRzzV8U57lfojkWakb8lTqoig+/GcdvSfZ9haB4PD2NmR3r2OQeSHyJRecRaGei5GrTEuJFyMiYRvyVu6B3BU6I3eVbnCW9N7SnmKvrjXqI/XNU60Xio+W98DMCLzYbBSeb/gWcpZphcK9PkWJGVFK7r3ZZ1ImQdMhmjZRFHBGhTMBXPPAvvWWfiw2MVBnAoIziAiIOBOCrX67UevoIJQ92geVjg4QvGzhKUZFQZmjvTD35Nc6U2SJgAzmHhcRcO3qTcSEXkNk4DVEBWVssI7RUtfr125luxzV3b59u5J3XmNiopVcccQ3NUiq4gWJEifOzp+jtDRnICmeNWsWjh07ZssduHzxJqKk7AzbR8HXEBFwFUkJogTu0j0KEUBiRcLHnYBozlKqZEm89togvPrqq2oOUlAINW39w4V8MR5NcCpVrKgjwiS2fLn5+xsi4P33308RAST4NE35TETAFSG0tL339PJSf74MSSJ3//yzknGaqNCUpVHDhmoewx1rln36qS5oZf0IEtce3bunkFSSWDOM9yTELJsigsSZI+GckWAbSU5fk/bQxIUj7jTV4Y87TXXYBtaX5XKtAZ8J/g3YH2w7/wY0gXnttde0HhQNX4hAdReRwLUEURI/UvqHpL5Pnz63iQDWl3nSft4UAcyjiYiSfkKqmT9JBgluXVs5nD0xRcC+33/H/v37tM5fSt3NEXjmQ/HA+nOknzMFpUqX0rUcL7/8soopimiKAH53zJkA8zPFOlMEdO7cGTeuX8crr7yiP1L0Z5/yb8t6VZS/9/Dhw3HtyhVtH2cPWCbjsC7cqYn5POkiYIvfBSGpoXDmiLoQVrVjF4LqPtVYuErCaprakPzTlp0zBa4cBRcS7jL6ELI6VsKLjUeg6Mtf4LmmI5C7XHu4jz8Jl1H7kUMEQpEBXwnpPYK8VXrgucbvwHVaALJ5+uisgduHh/BSm/Eo0HWB5HUA2T3roagtfr4afZHP53V4zj8r/vVRdPD3Qsi/QXaXGnCffBreC5ORr+5ryFf/Ta13ds8GKNB9kRD043iu0RAh9N2M2Qepd8m5cXB6ayuyu9WG0+j9ug6ghORbuNtHSuK9FpxD3mq98awID/dpvij2yhq4fHAAriJaWHaRvkvhPfWohA9E3pr94TkzElmKlUfeSl1R/K0dcBMx5DlN+nByIDwns4+MdRXabxRXFFEUTyqg6Cd9KeHckanmglAEZ4DdgQycgd9pPxw+fUxw1IIFxSHBidMn9fNhflYsEZBB3OMiAq5evolQvysIPH4FQb4ZGwHHriBE6nrtyq0igOZA27Ztw8SJE5UI/ZO7LkgUXNSnvxy/LKtWrdYZBXsRcDH5hpafYfvopPTN0ctIiGbL7s49KhFAYsuy8ufPj769e+viYJJIkkL6cdEqR8BJZLt17aq24CSBJLIc5aYIIDmnuQvt4Wm/T4JdpEgRJcMc1VYRIKLAFAEk7Vw34OzkhFkzZ+p6D7aTYcGSp5J8Wx3pT6HIdQXPP/88tm7dqsSWP8wUEyT/H3zwAVasWIGdO7arSQsXKp9NSND8OHJO23faxbN+XwqBT0sEcKtRUwSsSEMEUBiZIoB5kORTBDB+ahFAMcKZBJrpsI6s7/B33lFCzTYxD9aHZjT/JAI4E0CTJc4EsK/OJyfrjwpnRNif3OOf6xlYHhcns46nJD5nYmhWxfhHjx6R/vfSGZlz0h/8u9Hcx5wJuC6ineZRpUuX0f5gXWjmFCB19ZR8JnMmgCJAPh9s59MoAjafuqBmKtzZxltNZ4TICnHlbABNgNT8hyKAJHaG+DGOElmaz0TDbewRZClaBrnLtBOC3B//e9EFRfp8gdJLgYJd5yNTQU+82OpDFOg8AznLtkHuaj1RZNBqIeN1lKCTiNP+nyPuRXosxjMF3JG/zQQU6DAFecq3Ra7SLeEpYiOnXAu/shJec+OR3b0uir62Vuua1aUmnEbugePrG/DMS654vvko5O80Bblr9EY219pwm+QvoiAc3iICir+5BTlEBLiMFsI+OxLe80QE9FgiebeA15x4FOy2CNkkv+ebvgvHoZtRcuEFFO27HP+TfF9oPRYFOk3T2YscJZvCS0ROTu8mKDpwFUovvoYS08OE2ItoIvGnWJI+5HoFXQSs/SmiioKAYRQAFFfSn9yK1Gd+GEIywJoA/TwKAoTohZ6R99mZYAsWFGGCoNMBKb9fhCUCMohbGPMFPI82wICgkUi8fs7mm/EcRUCY/xUEnxCCLWQyI4OEl3VNLQJIaGnCQJMgLvJMyyVevYGfYs9jS3QyFsddw6sxwOeizeyFwBUhHgcO/IHNmzfraLTpLokIYPkZto9OSd8cv4zEDC4ClEwKiaX5CM1laN5D85fY6BgljzRv4aJZknDTTp5Ek2TslPw4Mg8Sei6obdu6tcYLk+ehQ4bgP//5j466UwRwtxqSVFMEsFzm0UF+aDmzQNt7tpXmNxQa/NyY5igEf4RJOmkuU6Z0aWyRzwPLpgDhbBNt/mn/TiLKGQy2h7MWLGP16lVqIsQFrrR9X/bZZ2rfby8CWP/BgweniACaDHFNhCkCOIvwyisD/5oJEHFTXPrCXgTQpIj9RaHBswxoLsSy2KeM5+npgfLly2u9mQdnPkiq7UVAbfmR4CwL+4yLs4sVK6b2+BQyzLtkiRIqCmizv0nK4MwCdxyiCOKMCv8WySI4uEib/f+51JMCjkSGMwEk+uxXipOIiHDdatVcE8BFzYULFdadgVgXzqTQRKiYiLmf5W/OzwN3YWI77UVA927ddIH10yACPGzbdJKs6gJZCgAhqboTjxJazgYYBNZ1FmcMQoXI0h4+Bm6j/tDRded3dqHMZzdQsN00IdWthdQnC/GfgyyOFYRoL0TBzvNRsPtiOI/Yg4L9lyOnV0O4z4kyFgDPioK3iIGCXeYic5GyKNzzE4k/D4W6fwTHN7fCc0YEcpZqjkIDv0KJT27i+cbD8Vy9N1BE8slVupWaERUZuFLESFkpcxYKdZGyei6G4+B14FoBmuJ4z4qD81vbVDS4jjkMr9lxktdVFOq9BDlKNxPiHqZCxHHET3i+xfvI5lwNhXt9jGIDvkZWETmFun2EAt0WoGAPqdOwbfCc6Kd1Kvbad/Can6ACgP1Ccx/2l+4+JP2luwyxL1VEsS/lynsKARFUPPeg7oKwDDQTYMHC3cESARnELYr5Eh4iAl4OGmGJgHTCnUQA3Y0bN9QsiNfULuHqdSwOTMB0v1gsC4rHa6FXUCkUGH9WCL4tjulu3Lh+Wz6WCEgfkMzRTp8j8iTJLI9ki2VyJPgrIcMkXNxSkmLghRdeULFQS0gxbcO5ywxJLgk4iTXJsk/dumqa4iWkkyPiJJjcArSEEFhTBLAMklEScZJ2Em6+HPmjSwJ/5PBhjWfW04x/6OBBtGzRQgl2tWrVUEFINevHRb8M5+5AXODKBbQkxawLZyQ4us4fcraPsxMsj2Y2pghoYGcORDLLmQDOXJBwMw3Fx+uvv4b4+DglojTLYThFC+OzbBLh/v37ax6sO+9p7kTSTBOnVlJvjvSzbykCmgsBf1ni2IsAljP49de1z9Z+840uVqYIoLjimhiOuPNv5SOihYu4KZiYdvfu3bowuWqVKmqfz9F99ieJP0Ubd20a8e67Wh/+3TgDwXpytyP+rcy1EVzwTOFRQ/6O7F/ORCxZvFjDKA7ZpubNm90iArgmgH8zzkw8ySJgy8nzOsrPvfRJUDmK7UVCyxF/IbS6aJeLWG0kV2cKKBRmSbw5sXB9bz+yOlWBw9BNKLXwAtw+OKhkvPi7P8NJkNW5ClyG70LphZdRbNC3cHj1R7iMOYQsxauiYJ9PUXJegs4AvNRhGhze2YFsxatJ2l9RaskVIfHfo+iAVSgxMxo5PRugSL8vUOKjy3B6exeyudQQgVFRBMZilFl0AcXH/oFsIkaKvvYtSi++Cuc3t6FQv+W6SxBJt/eMSLgJcc/mVgcvNH1PR+PdJp5EzhKNka/x2/CcnygiZRGc3tkpYgZ43mcwclftAWdpXza3WkL8d8D7k+tweGM9HAauUtKf3auBmid5SRu4wxLJv/Yh89a+NLZUNRYBG3664FrutZ+ljx0mBKPm/IyxO5AFC/8GD10EXMcNXL55BRduXMT5GxeQfOP8YwnW/eKNS7hyM32UvyUC0h9/JwLu5JKv3cDHQQkqAs5eFaEg5Pew/Ik/vwjsT76OE39E4eSfMbj6N8fDWyIgfcCXE+3JuT8+dwSy/7ELFJLHsjds2KC7/ezYvh1r1qxRe/gvvvhCyTT3zefLjbM0tMOfPn26HjJGcxTa/JO00/SEV+4/T7MWkkfmb5I6+nHEnFtocuaAdSLJZLhZFxOMz/y4feYMKYszDNy3noSW6ZiGhJUiguSVsxc834D5sZ6MwzDOJHCmgO2lH4k2yaX5zD7hyDjjpITvuT2cBIHPBHcW4u5GbJ8pYLgwl7vtbJG45r7/9DfjU2SYfc50XNhLUcY2cutP1pPpGM6RecZhnlOkr7g42dwelTMA3O+f5kJcSM+FwEzHvxWFF9cOMC1nOLhjF+vOOvJvRCFjtouknqKB+cyZPVvFBf2YlnE4M8JwxjXb8av4/Sz58PNCvweFjCACaPvvMdkgp25C8kvoTIAxK5CyHaiN1CrRlXCKBM9Z0XAdcxB5yrXX3YC8Zsco8tZ6GQU7zxbifx4F2kxCDtdayF26NXIoaf4OJRYko7AQ+hzudZGrdHNk86iHoq+sFv8kFBAxkFVIN02Hcng1hOOr36LE3HjkrtZL0sr9nEQl9PmkjGwiMNzGnzC2I50bh0K9P9GFv7nLtZO8fVCkt4gMLtYlESfmxUt+3yG7c3UNp+DIXaEDik88oeZA+dtNRQ7namp6lMO7MYoMWa8zGoU6zUE2tqGstMGddRURMC0UeUQkOL2xAd6zYoX4B+rofgnOqAho9+8+U4g++0r6kDMoFB5e0s/sS84SeAmKTQhCjfmhlgiw8NiB78kHLgJIln0v+WNNwgaMDZ+DYaET8XrwGAwMek/NXx5HDAp+D0NCPsTw0MmYHrUY287Jj9WVsHs+fsoSAemPfysCLl6/gWXBZzH3dBxCL17Fb/EX8V1EEtZFJmFtbDJW/RKKsX23YUzPrTh9NM6W6nZniYD0A19QJFf8oUtNvO3DONpNQkiSTfCeBJRpSBLtw/nCI/E28+SV+TCeff4E82A6cxT+n35wGc4yGJ9guanjkBSb4YzLdphtM9tiXxfWlUTZfLaPw3QaLnna58H2MN9b8pA49nmY7WJeZp+kjm/mafqZfZpWPZmHmSfbxThmeqa173/mw3hm2xmXYYxj1iN1Hez/jpwJsi+fcRjXTGsiLb8HAZb/KEUAzYE4iu0+0bBZd+UoP8ERfxJZmgoJiU3ZKUiuCs4UcER7qhDeiackPFBHt91nhsFtcgDcJpyEtxBl7s9ffOyfcHp7m+Ql8eRZF8rOjEbxD4/CcdhWuIz31UO8uN0nhYXzaIn/1la4j/OVeNxxR8qS/NynBkgdpW40pZl0Bp4TJD+mIdEWcO2A67hjmqebXEtIXqw3R+ZZpo7KSxz38X4SZzucR/6i23pSVPBAMl4pahyHbEZx1mlOjJL9klJXzzGH4Cz5uo8/ruZLFBWuk/z+MjeS/E17fxVMtr5huewXXSTM/pH6GrMAAuljBxEBtRdQBFjmQBYeL/Ad/MBEQNKN81ibuFkI/2g08uuJir4tUeZ4M5TzbY4Kx1sqKj6mYN3LH2+BctKesoKqvm3R+vRAfBA2E78l/yli4N/JAUsEpD/+jQi4KiT3u/AkzBEBcCb5Mr4X8j/NLxafBMZjWVAClkeexWc7Q/B2h014u/V6nPgzxpbydmeJAAsWni48chHgd9EYtZ4QqKP/OlpNQsv7SYFKujkjwDg8OMvc7YZmQSTYav4yK1JnCOjP/fN50JbX9DARFJxNkDhzouE9Lx4eMyON9QYiLLyYt5DpEnMTwD37DYERZIiQGVHwnh0rpDwCntxtR8K4JafHVBJ+qYOaJkVIGZGGeZJAtzal/1wh6FKWt5RFsk1iztF3g5QbdecaAz3lmGXwADNbm1RgUIzwXADGEX9zjUQJKctrXhy8ZsuVcXmisd5LONMLuTf6T+pns/1n+ZqeZXNrUBVOhtDijkxciO0o9a75Ec2BLBFg4fHCAxEBN+TfjqTf0C9wOCr7tlayXM23HWqf7ASfU13hc7JLCuo+pkhpg7SHzzVPdJS2thFR0Fza2VnEwCycvhRk65F/dpYISH/crQg4f/0G1oafw3vHo/FH4kV8E34W7x+Pgm/SJZy8dhOrL9zESeHLly5ew76tIdizJQQXk+/8srdEgAULTxcyhAgQAus2UYi5kF2SeZJcJftCuEmg+WyaCKk4IAkmuRbCSxKs22GSFEsY977XK4k7CTrvRTwwrqajyJA8datRScMyjB2IJH9JQ7KupJp29FoP5iF+cs9nQ4iY5FqeVQRImcyHz4zH9DytWO+NeExjtM3Mi+01wLZytsCFayAoJHSbTwogyUPKYbge9KWj/nKV/jJG/Y12clRfR/fl2cybdWB5FARMY7RF4qi/MSvBe6cJQaj+UTgCM8A5ARYs/BukuwiIv5aIqZEfKeGnAODVJM51hBw/yTDbWfNkB1T0bYWW/i/ju4QtuHbzn18MH8V8pSKgX9C7SLh+1uab8dyTJgIYwl2ABh0Mx+uHIjD5VCxePxyBSSej8UXIOQyLuIr6YcCsROBuX++WCLBg4elCRhEBLpMNkmwQX2ME3I2kl6RW7r3pLzBMWmwEnASa5JZxhYyruY1CwsWP6YxnIw6JsJJ1EuMU8s58DaJMAk2STj+mUfIv0MO3JMxV7hmm23ASUm/Nm3VQwUGBQVFhhBsLceWZ+bFs5i/hzMMcrdcdfJivwGibUa7a7ttmPnTWw9aWv8o22ujNGQiWwXDJnyKH5enMBtMyDa/M15YmpS7iz4XBtRZmpHMCLFi4O6SrCDh1KQD9A9/V0fBaJzqi7qm/If4SpuGn0gj7N2D6vyvnEYFioOqJtqji2waTIhfh7D/s/b8kZgU8j9VHn8B3VEhlVPekiYAbEnT6/FX8nnARX4acRb8D4fgyNBHHzl3CH4mXsCzxBl6NBdbK9+L8xWu4cumfibMlAixYeLrwqEWALgzmKDiJq5BbmqmYJNVN/M3TbRnG3Wx0j3sSWJ4hQLIsBFjjkoQrgTdH8G2j3iTMmo/hp+YyvJc4OlsgpFgJtcRT0i5xGU9FgUBt9YWQm35K8iWtlsF8bWWpmGD5LE/iqYiQOhlhrFOQzlaQtHPGgSY5ap4jcXRNhC2NigemY70kHevJfDhzoSRe7llP3Q2IbaBZE/Phs8RXkm9rJ8NVFLAszjKw/yQet2Sln54YzIXBNAeyZgIsPGZINxFw8tIZdDo9WAVAXSXBaZNjou7prqgX3B0+gd30WvdMV9Q5IWH2MOPrc6db0t8WR/3s4tyW/tZnlu8T0C3Fv57Uo66fCAkzbqr4aT7b+90BNBeqeaIDykqfjAqbrmsk7uQsEZD++LcLg6+IIlgTnqQLg32TLiPs0lUcT76Cny9cxb6As1g25Q98Mf1PxEf9/ZfEEgEWTJAcmkgr/EHAfrGuhYeDRy4CTl1QolxciDFH+3XEW6DknCRW74X4UgQosRWkEH0SYZJsg/hqGpMMS346Qk/yzPgkxpKHJ9cPcG1ACmm2xeG6AIE5M6C7EjFcriogmJZ1o7+A4sAYYWeZHLmXuEwnZFsFg/i7zQqTOFIvPos/79XkyRQBFAxK+o26058zEXpGQkpcWx2lLGOmQq6sL8F4rK+k0XoIuFbAfQb7xTCDYnqmddNZC9aFeRp1Yl4OE4NR/aMISwRYeOyQLiIg9lqC2v/T9v+fzH58hIBX2dUSrh9WgOvo8vCaWx21jnRUEs6w+uE9UM+eoItIqB/eU4l7Hd9O8BHBwDg+AV3Fr4u8jKqgwg+NUD+iJ2pTCEg6xlVSL6gX1gP1Q3oYswW+Uv6Zbqi0rRkqfN/IEB9SRpkV9VB9bxvNs77ErxciwoTxJS8tX/zq+hvtYhyG29fx78D+YL3KixCYEbUU1/X82dudJQLSH38nAq5dv6aHfaU+J+DCdRECYefULGju6XgsOBOPpeFnMXPjGfSt/Q3eaPw9fA9E22JLPteMfEySTGeJAAsEiaG5uxDBF+2DFAPMm7vh8NAwEoOHKTyedjxyEcBzAoTIciaAhJ5EVgk7Ca0SXxu5FZBo88wAkmETBrE1wvlsCAMjjPcpNvq8lzju407AbbK/hIWpUCDRpshwnXgK7hNOGGnFz9hZxyD6ZjlqkqR5G2LEGFk3yXqg+rHeFAGsty5onhqoC5S1LlJ/LY/EXPxZlpfUQ9sn4SyL4kIFBetGEs/ytG3SJ4zPtHwWeEl87Q+Ww9kC1pHPtnp6m3VjHnLPOphmQVzIXEL8i00ORs2F1mFhFh4/3LcI4J7/H0bMRbljze+KFNcP7QHPOdWQv4MTyn/bCEVf8YLTO6XRILonahxohzJf+qD6HiHkQd10pqDytuYou7I+ah3qoOS7xh8S52sfVPuttT6XW9tQ49QU/zpCuEnWa+xvi9qHO6CO3Jdd0wAVNzZR8cDZAooFz+lV4Di0JOqJmKgtdS7Q1Rnlf2yshL+cxK8g9xQc9YK6o9LmZii7qj5qi4CgqGAdK25siio7RfBQaKTRxtSgEKB5FM2D1p3dbuu5W50lAtIfdxIBJLTHjx/HunXr9Pjs1O7SjZsIuHBVzYR4Dbx8Db6hyfhqziGsnHM4ZSbg8uXL2Ldvn54gy4OgTGeJAAscjecWmPyR5n7627Ztg78QRR6sxbD0JugqAERwsJzRo0fr/vsUIGnFtZD+eOQi4NRFJaiukwLhNsMYsVbTHxuJJXE1SDeJMgWCQXJJZr2VGEscJcEGSSY4su4qpFh3zCFh1gW3EmdWFHJV6oKc3o2EYAfqbkHuPMxLiHOuUi2Qt1oveOmuPJLXjHCUmBcvSITnrAiNQ0LtNTsG3vPOwmNurPweM1+pH3cjmpsgYRJfxQWJerBuEVpS4nrOjhWhI+WLUFACPlv85yTAe2aUTQwYI/Ye8uy1UOJL3hqP7ZG6qFmR3KtAUrJPIm8IAm4NaggPigaB1sfoK+ahfSf1Zjyjn6TObJ+IgJLiX5QLgxeFWzMBFh473LcI2Hz2Z1Txba1mL2kR4NSoH9odXiICHN4uqYTca051FHujhJJrhze84TK6PIq87IGqP7dCmS/qomAPVxQd5AXXcRWU+DsIeS/+XlkU6e8ucVqKoKiO0svrwGl4GVTZIcT8dBfJzxuVhKi7T6sMpxGlRWh4ouTimjryT+LvNbuaxC+tswQUAYX7uCmxd51YCcUGe+sMBYVImRX14TCkBJzeLg3nUeVQY19bFOjkhEI9XFSsmDMJdwMKAS6Ubuv/CoKvhNt67y9niYD0x51EAEf/SZZ4ANSePXtsvv/srl66gSsX/5o5OH/+PFavXq2HUB07dszma4kAC8bhWQsXLNDTgT08PBTlypXDvLlz9YVrb7LDlzB/yFOLg5Q4cmUcPpsw49iDAoP5FyxYUE8mjhRhyvyIO5Vh3jOMcez9TDDMJBqpwywYYL880oXB/heU1LuQpJK8ksQKwSUpLiFEnWRayS8JuJBXY0tMAyS8Sn4l/K8Rf4MQM43a1tMMZya34ZTrnGhkK9EQ/82aR0/aLUHCLUTf4Y11+L/s+UQItBQCLSJASLqHkHPHgStQrN+XcJ94WrcT9Z4dBZd3d6NwzyV6FgBH6ktOj4THxFMo0nc5ivZfYZwtIELAc3aEngNQqOdSOL69U4REtBBxIeBzY+A44hcUG7hS8vkEzzd+Rwj+GXgtOAu3kfv1FGOHIRvhzXxnhNnaIu3SdovAmSXtEGifsL1y1VF/9o/AnEGhGFLSbxMYXjbxxHCaCTGMYsFBxEDNhSICrMPCLDxmuC8RcO56MgYGjkSF4y3U/j0t8psaNK3xXlQDeWvnVyKfr35BFQCeM6vihWZFUWpZHbzUxhHukyuh6AAPlP+2IeoGdVeTIfeJFfF8kyIoubQ2XmzpAO+PaqL4yLIot6o+XCdUlC9jFVTc1ExFQ6UNTfFcvULwmlcdDkLsi/RzR+1TUj5nAqQs55FlDBEgdWIYRUDx98ui6EAp8zsp078L8rdzhOPQEvKlryLlFdOZi5daO+gsAGch7mbmwx7cKan8seZYGPPFbecIfBKzCl5HG6BXwFtqXpVR3ZMgAq5fv64iYAZPJ926FZGRkXeFmJgoxMRG631UVBQC5MuzYsUKzJo1yxIBFhQmGVy/bh0KFy6M4cOH64m1PL144IAB6Natm/aZSepJ3EnWOWrP/uQBWCbR5iFXzMs+DsPpb8bhlS9whjM/koKDf/55y9+FMxIE08fIlXGZjjDLpRkR8+Y9SQXT88qyWR7jxUlYmN3hXRb+AvvkkYoAPxEBQl5dbKPnOpovzxzBpmmLjuRzlF+u3CaURNYYfediWfFX8m8QX5P8m3bwSoKZnuY1JNEiBvJU7Y7snvXxbP034L0wEV5zY/F8s5HI7uGDPNX7gmcGuI4/gTzVeiFvzf7i1wt5KnWTPAPkd30FcpduiRd8BiOnCAaHwT/Ca1IAnq3UHfnqvIK8lbrihSbvoOTcBBTstgjZvRsjX4PXkLNkE/mt/kJExwUUe3kFcng2RB7JO3PR0ijQdhJKLL0Eh9e/Q66SLeW3X+JL3vlbT9AZA3OLUm0j202Rw9F8mxiicOIsAfuMfaFE3wYKBFM8MZ4uhJZ7Xc8gz9witRhFwAKaA1kiwMLjhfsSAZvP/qQmLmqLnwbpTQspMwHDSqrtvsMbJZXEu0+ujIJdiqP8moYouaQWKqxrgkLdXVBtd0s0OttX4naG83tlUaCTEafEopqo9mtrOL1dSk14OCtAMs+ZglKf1VWi/pxPAZT5sh5KfVoHZVc20FF/riegMCj6uhcaS740OaJpUqUNTaR+nVB6uQ8K9XWH94IaUh9nuI6riDJf10fpz+ui0rbm8gLzRM1DHTTdvxUBnA3gbkFtTg9MmQ0w6emnsavhKSKgh4qAeJtvxnNPggigDf+GDRswbdo0LFq0CMuWLfvX+Pzzz/Hpp59i3rx5OhNw+PBhW+6WCHiawf4gcZ4yeTLc3d2VWCclnVOCSDLtd+pUSlyGrfj6K3Ts2AFNmzTBa6+9hv379mk8vpj52VopIpN5dejQQft8/Lhx+PGHH1LEAsn7bhEZI0eOxNEjR7Dv998xccIEveeLneX+IPG7du2qL/hePXtimwhfk9izvh+OHYvmzZujRYsW+llm2QzjdbYI3FatWqFZs2Z45513cODAAYt0pIFHLQK2+l1U23kX2r9zxNs0sSGRJYklkbcRfY5062JhuVczGIHa7HO2gERX0xjkX/fxp3kRw4X0KkGeEYbcQtRfbD1OybzLh0fgMvaomgG91GoM8lbtiZILzuGlZqORs2xbTeMlaXKUaILCvT/G80Lwc5VrLzwgVupI86BAOL25BZkLl4bTe7/J73MC3D48Co9Z4XAatgOu7x+QuKEiDrqImOiDEguSkbt8e/ndno7SK4AX207A8w3fhsecKCH+zVGg/TThB4ko9voPyOpYCcXf2wPv2THaHzwJ2XWW0TcURykzBGyftJ0g8dd+4MyHkHzWUc8roFCQMHNhNcWB7hYk/kUnBqPWglAEx1trAiw8XrgvETA8ZLLOApDcpkV600I9rgmYVRVO75ZGo6R+KCOku9hrXqi0qZmS+BILahqmP3vayJezipoGuY4tryj/Q2MUljhcTOwytgKq/95GzYBKflYHDeP6oGD34shT8XnUOtxeyyo6yBPuUyrBbXIllBYxwEXBXBtA8fBSeyc4jyiDYq966YxE7WMdNS5nCQr3ljJmV4PX/BpwfLOklFdDhQuFRuE+7qj+R7t7EgGEzgZIn61J2GjrRcNZIiD9cScRcPXqVZ0B4Ag+idb8+fPvGXPmzMHcuXN1jYHpLBHw9MIkgz/++CPy58+Pt4cNw5FDh5SsUxyY5J0zSYsXL4azkxMGvfIKZs6YgZo1aqBW7drwlc8SFxLXqVNHTXs6d+mMVwYOVEHQrGlTJeycjWJ5/Bu8OXQovLy8dIR/1aqVKFKkCH795RckJiTg66++goODAzoIaZgwfjwaNGwIL09P7PntNy2jp4iC0qVLY7yEvf/++3B2dsaIESNwPjlZRbKLiwvGjBmDCSIsqlatqqLZnElI3fanGY9aBGzxu6CE3dwdiKPWxnaWQmqF8JL8k8h72kxYdGRfyCvNf1QUKPEl0ZfnScaiWhUD9CMhlqvayYu4cJsZgZzl2qHoq9/g2Vr9ldgX6f05nqs/BMX6fyUCoTNKzE3UEf2sxSpKnAGKHC61ULDXYriOPohcZdsgh1cjvNBkONzHnwBP7X2+6Uhkc/dBnsrd4PD6j/L7mwDXD/bjuQZDkadqL2QqVh75JB/vhefxQvMPkLfWyyIS1ougaIf8bSfCZZwvMhUprQIhX81XpB5ddLbC+d3duq6ApxurILLZ8+v6BraP/SNtZtuNtQNyZTyNQxMgwz9lsTGfbSJJ08o9zYHqLAq3ZgIsPHa4ZxEQcCUEzfz6ovoJLshNm/CmCf8uSsKr7GypMwFc8FthQ1M1v6m4oYkS8TJf1zP2//frglJC8EnMuUagfkh3nSEwSL2P5scRf+7sw0W9VbY3R/m1DeBzuosS/hriz7ReC2qg+r62xg4/QtxJ4Kvuagn3qVV0kXKNP9rCx7YI2H1aFZRaVlfzrnuqC0p+Ulv9Km9tjtq+nTRO7eOd7npRcGpQMFE4vRkyHhdvXLb1piUCHgTuJALoQoSUcT3AwYMHcUJepPcCX19f/PHHfh0dTUz8ax2HJQKebtAshyPtM6ZPVxLtIsS6Ro3qGCtkmiP0FAOn5PNTvlw5HcHXwypu3tBZAhL2xR99pCS8hogCEvTgkGDEx8fhrHzGPl6yBEWF5HP0nySeaUqVKoVRo0bhyqVLSvo9PTywT8goSWnlSpV0FuDc2bNIOndO67do4UIcP3YMa1avVsHwy+7d+relW7Bggc5g8IeBswbVqlXDOUknHwAVMBQoqdtrIQOYA3F3ICGo3B2IdutKXEnaSWQ54k3iL36mqZCSVx3R5iJigxBz603uqU/TF92Zh3nJM/OgoNAR8ulh8JgViVylW8FpyEYU7vsZ8lTpirzV+8DhlTVwGLgauSp0QIl5Z8W/J56t1gduQs6Lj/4Dxd/9Ba7jj8NLCHmJ6ZFwGfkL8pTvgGdr9IP3vHh4z42Hh8Qt2GU2srlUh8uIPchdpg1eaDYSbnOi8ELrD/FsnVdQ4qPLKDpgFbJ71UfeGn1QoMMMnVVwH3tER/4L9/kUHh8eh6ukdx75GzwmnlETKLaV/aDknm1SIh+qIogigOcVcK0EzX0oAhiHoknXC9juSwi0f+hnmyVgvxSbGIwa1sJgC48h7lkErDu7E9V926H2iY5pkt2/Q13/rilnA5Boc9tN+nOU3keIvo6y6yFg4sddgkK6/UXgJa5PSA8jDvM6Y+wIpGFc+GuO0DNvKYfigEhN2jUuy7KF0aRJzw9g3iIIzEPMfIJZvsThFqXiV5d1tYXdCygCqvq2RWv/AQi/GmXrTUsEPAj8nQig4wJhk9zeq7sp5C11HpYIsEAhQNLMXXo+XrpU1wM4OTnBp25dfemSeBcoUACNGjbEq4MGoX+/fujbty9y586t5jymCBgwcICO6JPsczbhhJBwL29vjBk9GlcuX8by5cuVDOzatUtFwgr5+3ARMsslihUrhuWff4642FjNw6wXn8eNG4d8+fKhn5TL8lmPpk2b4oUXXsCB/fuxacMGuLm6qhAYOmQIfvjuO03LPNJq89OMRy4CTnFNAA8LEzLLPe4FauJCsk/ia5Jg9RPiqsTWeFbyb4JxBcahYUZ6Ix+DBHNhsMfMCGT3bACHASvhMTkQzxTwRNbCZeA5IwqFen6MHCWbwntOAor2Xobsxauj6CurUGzIeuStM1CEwM/I32kGXmr0rpD8XcaaASH2zsN/VsHgOHi9pPsUWSWd0/DdyOHdGC+0GY/iH+xFTvd6yOpWG15Sfv4WHyKbVz0U6r4ARaRM19F/6i5E+Wq+jFyVOsPx3R0o1HU+nm84DB6TTsNdhAtNoPT8APYJ+4Iknv3Adk022sowc/tUYyaAfSRtt/WPzgLwnmspJEwPDBO/otL3ek6AtUWohccM9ywC5kctR0XflrqwNi2y+69A0m5eTdiHKVIdBmYf5+/87xT3TmEsx97PjGP6pY5/D6h1spNuGfr7+YO23rREwIPAP4mAB+UsEfB0g4SQhJ2kkAtpOfJ/4XwyduzYgZdeekn77tdff9X7Lp076yg+TXqGDRuGcR9+iJ9++kkX8taWl/LgNwbrLAD7mfkmxMWp+VClihVVHHTu1AktW7RQcs40NBnycHfXxcG//75XZxZWrlypf6tTNhHAevEsgffee08XL9PW/+2339Y6DJfr/HnzdKaAQuE3qeeId99VsVJMyO2kiRO1rLTa/TTjkYsAvwtK9F2UsJLghsLFJgS8SFxJ4k1iK/EIHc2WMF0XwBkAXrmWQM1lgo1Rb/HT7UYZpmZCknZmGAq0nwrnYdvhPf8sXuwwBQXaTUXJeefgOGQDCnFkfmoovEQUFOy2ELnKt0Oecu3xQttJak7k8NYW5K3WA7nLtEbe2v3hPPZPIeJn8GKTEbqGgOsFivb5FN7zElF00Brkludn6wxCgd5L8WzjYSg6cCVeaDgceSp3x/MNhiJnhXbIJuKAZkYekwPwfP2hyF26DfJW7goHSe89MxKuM8K0jaaZkx4wxlkAtktEkfaF3OvhYRLPlf0kz0r8KYxI/CWdseOSXOWeaYxwzgQEovqiMARaIsDCY4Z7FgETIxagwvGWaZLc+wZH3P1vHXHnaP29muBkRHC70I3ndtl60xIBDwIpIuDqQxYB5y0R8LSCZJCmQCTeS5cuVSJNcp6clIQgedG6urqq/b+/vx8cHR0xd84c7ddLFy8qDh08qD/sJNpcE0ARkGAnAiIjIrBp40Z4eXjgo0WLULJkSb2yDJoHqQiQMC4w5svdzc0NI0eM0FkD1oVxln32mZbDdBQJ/n6ntA7XrlzRfP7Yv1/T8sp6XLsqxEb+/iOGD4e75McZBYt43IpHLQK4JoAj3a4c8bcRWFddE2Ds/qN27iS8EqYj+hJPST6fbeRWFwsT8kw/mslwBsCVhNmWluJBCfScaHhND1OB4cEFvrNjDFMi+s2KEoJMcRGCUrNjDdI8JQCec+OkHuHwnh2t24TysDFu+eklJJ3bgXrMS4DL9EA9Zdib5j0k33NiJB8h6ULuPRYkwmvxRTgMWYcsxSrA5f1f4f1RFJxH7USWgiVQ9PUf4L0gCSVmxejoP+vizXu2X6AChiKA5F3KYDm6Q5AKArZb4jCutIltZH8xnoZpGpoQMZzrA8SffSfPRLGJQqIWhlkzARYeO9yzCOABYRV8H4wIqCswTgQ2TIboZzz/JQJon88TgFOeT3S6ZZcihmsc+3C7Z+arzxQcNnGREicdRvv/CZV92+D7xK223gQ+j/sG3scaotuZoYi+GmfzzXjucRQBV68YG7KSxz5wSDkXrZmApxYkg9FCtEn0OdLPHX9WrVqFtd98g04dO8JRSPfPP/2kNvqDBw9GESGMtNHfvn27mviUKV0au3bu1JF6jvYPHDgQCQnxKf1srjdo3aoVns2bF1UqV8axo0f1JU6CzzUBFBdcGMwyOLNAu/9ZM2dg544dGP72OxrOcwTOSF255sDHx0d3HKK4aNWype5ExLx69+6NBvKj8O3atdi2ZYv+QDRu3FjLskyCbsUjFwEnLyiBL24j9UpgeRWC6kXzIO6II8RWSb5thJ9hFAq6A47cG6ZCBgnmYlfGoTjggmIzL82DYkDERYlJ4if+euaAPJsE2bz3krRKqmdFwHOmkH+J58V8hNQzjvtM8edV0tA+n+sOXOdGSpjEtZnZKBmfFS7xRCRIfbxmSPjUAOSr8ypyeDdE7uo9dNehF5t/oOHMj4uiPSVvD0ljknia/rD+rBf99MRg5s+yzTbJswoG3pt+QvY5W6BxmL+N/HOmQOsmefMwtmLSFzVoDmStCbDwmOGeRcDo8FmomN4zAUK+SfxrHmyPIn3cUe6bhmqzT/t/t3Gi/N8ra9joB3RD/bCeevqwzhD4d9XzB+qJH9cHMA8+M445g6DP4RJf1yJ00jwbRPbURcS1j3bQdMyPaZj/gxYClXxbY03CBltvAsvj1tqJgFibb8Zz9yoCGN8eacV5IBDCGxNyDbFh1xATmgr0Sy/Y5RkZePXht/PfwBIBDxQkyMHyw7xg3jxUr1YNnp6eirp16yqh5uh6SJCxPeeQIUPg7e2NkqVK6WFi3GmK23MSAwYMwJQpU3R0niSTeZuzAV8sX67xufiYhJ1hzHfjhg3oKGKDo/gkpawHhUDpMqVRQsphmiVLlmjcSAmnMOD2pNxdiPUgyecWoixz3Y8/oknTpihZwlvDuF7gp127VISY9bFg4JGLgFMXlJw6C4k1RvGF5HIEXogrCTe39VQCPoUn65IYGwKAxJcknnGV2MqzmsbY8vGgSZEQXT0zQO714DCOzHMEnaTYFpd5u88QSB5qUjTNNuIu/ioIRHgYO+uIH/PjugSKB7kynISaJx1r2ayzxCOZV1IuYUrmWR5nG0jwBU4jdsPhjfVwHrlHDw/zEqFBwq6kn+ScYoPPWlcjL4oB9g1P+VUhJPXUqzzr2gi2j/GmiSAh8Ze2GOZSRp8aYsE4Qdlb40l+ksZpQhBqLAxHoCUCLDxmuGcRMDZ89gMRARzxr/F7G2RzzqV78teP6oVaRzsiV/nnkb+tkz7z5F7PGVVRYnENJfQ1D3fQg8M8xI/bhtY80B5e84xtPXlPUeE9X57nVkP1vW1RT4RExc1N5ctcBU7vlEKFHxqpOOB5Ap7iV+2X1lqPW9YhpDNoDrQ2YZOtN59sERDhfx0xQfgLgUDoqatpxn0QIOENOs563EBMABB9Bgg5cRWBxwx/E8EC+oWduoFYqSfjmGmDfY18wv1uIvI0UtIYYJrrmm+UIFrKeNht/Fc4ZdTZEgEPBiSEfLGyf/gDvXfPHt2txxytN+OQ6JNsHzl8WA8UO3nyJKKjo1REMPzvRtuZL+OkRQDob15ZDx4QxsPsdu/+WU15WKZZBokrSf3vUkduGxoqdaIfwyg2wsIk7Pe9tjDjQLHU5Vl49CJgs99FHbV2FaLNEXUlsiS6JN5yVTJNkHzLM8kuSWxJJeZCmOXqPkWIONMI6VXiS2IvJFdnFgQk5a7i/xchp7/4sSwzf8ZlONOqPwWBQejN3Yg0fynPINUk31I/igzGIeEniZd7bx3VpyDgzkTiL+kYjwLDS+rqNTtOTwj2tJkOGXGlDjayrrv82MpgXblwWsugH59VhEhZvBd/11lhxgwA68285J7biXKhMPtR20ORICgh8XXHIcmTfeUwPhA15lvmQBYeP9yzCJgQMT/91wTYRuhJwgt2dkbBrsWV4Jf/rhFeaF5MT/mlICg2yAueM6vA4Q1v+TJXhtv4irrXv3lImNOwkhJWQk8WrvZbG1Rc10S+5FXgKPGdhpXSE4qL9PfQ8ILdXFBpU1P5skt+Q0rIy6YKCvVyU+HgQ3OktOqZDqAI2HB2p603n2QRcE0IdBJ8DwTjyN7TOPL7aRz9PQCBx89rWNppDBij6ZfvECb+tjrwPsL/phL3tONfRWKYEHffs/ht+yEc/M0fcSEGWbdvh+Zz+hoO7QnF6uXbceZoMsL8DCJvhv2xOxDb1h0Ugm9fDtuYjBN/pNXGvxcCzDftOtvC7O4jTv/VxuCTf6W5U/o7whIBDwU6IyAvVxLnCI7+C8G2DzdJuo7KC+HmYmL7cKY1yb69P8F0JO+pw1mmfTkMox/jkqSyjNTiguUwjODMwR3D5N4+zMJfeNQiYAtFgBBVt4lCWElUhbCS0JNg09SGRFjJsJBXd4oEuVdyK886U6CEXeLaiDGJOkm1jtKTfMu9sUaABN0A75XISzrNR8G4Rh6sA3cTUpMgmiRRBKiZj0GyOfLO+CooGDZZ7mcaRDxlRkLLNtpD8q8CQ8rUPf8nB4q/3LMeGo9l8Gqrj62+KjwodiSdmj/Z4qs/+0Di6XoB6Ted2ZC0rA9FEmc1eK99YxMInCFgPK2LxKXAcZgQhNo8LMwSARYeM9yzCJgZ9Ynud58Wwb1nUAQEdUPVn3iUeEk4vVtGiHot+aJVQfH3ysJ1THlU/LEx8tXOL19UIe2DS8BZ4pT+uh54iJjHzKpK3kt9UhtFX/bQmYBaRzqIEGit5wGQ+Bfu6aLnFDgM9kaFHxqj6CueKLe6AfJ3dEJRERcekyvJvTOq7GqpdXkQswE8MKzaiXb4OXmfrTefTBFAAh0TdBNjRs5Azer10aldH7Ru3gWd2/fF3p2nkSDE/C+SfBnh/jcUJLUcRY8OhJLesFNCsm1+4f7XFbHBQGTATa1HVMANHN0Xhe3rD+tMA8myWYdQyT9O4q5cthGN6rdGkwZtUa9OM7zceygO7w1F5Bkjv3C/65IOSI4Cfli1Ey2bdhYyHy1+N7R8CoarCcDsqUvQpWNf8b+o9Qnzu6blvzd8irSxwV9t7NAf+34KRLyIDbMut7dR8pU2ss63t/GGtjHqDNt4Wa43pD4R2LH+kLYn/PR19Wed+Rwp8f4q5x9giQALFtIVGUEEkKQWJ6nl6bZCUo2FrCTCQmJTCCvDDNKvpjMkvuLPMGOkmyPbEiakmSSXeZK8G2Y2BvlVO3rmI1clzcxDwkm4SZyVkBMk4xQJtmcl4kK2lYSTyAuYF2cSWAc+m/HN/HQEXsg/22CIB0OUsB0cgacwUTFja6sKFNaZkHudFdF7G7kXsI6mqRAFAG361fafokHCDFFiqyOv+sx6GH1AkyitH9NJ/bh+wXF8IGpyYbB1YrCFxwz3LAK+Sdik+93fyzkBd4RNBFTZ1UIJeflvjRkApzdLocyXPnB8q6Qe1vVSawdUXNcYFb5tjIrrm6D6/rZ6+JfTO6V1BqDGn+1QaVtzzYPCgWLCY2oVHfkv3MtNF/8WHeiJQt1cUOaremoKVKi7i3ypq6DKjhYou7K+zjg8iN2IeE4AD1jjQWsBl4Uh2tyTKQKuCZG9hg5teuLVl9/EsQO+2LPzKH7fdQwnD8YLcY9U0mvG9TuUKH4xQmhvCLm9gu3rDmDTt/ukrAtCtIHTR5LhfzgRpw7G4sfVv+GP3UFKoik2xr0/Cy2adMBPm49JHtGaH+sYKyJk49o9KF2qCubN+FiItC92bdqLzkLW58/4AvGhwIk/E3Dm6Dn8tt0PB38NkXKSsHfXGQQev6jlhpy8iI1Sj2P7ArBw1lJ07/yykPQLBmEX8RAVcAVtW3bFkFeH49gfx7Fnh7TxJ2njn9LG36Mk/V9tPHUwEcf2x6hwCJd+3Prjn9j83X4tg0SeZfsfPitpY6SNv+LAL8EqEiggxo6aLuKkA37ddkJFDwXS4T3h+G7Fz9j38xmpy13OCFgiwIKFdMUjFwEnbScGKzk1yKpC7k0SrmYy4qej8uKvBFeIrJrf8N5GeklqdWSe5FqIsQoEIdk07THyNEbBOQOgRJhlMF+Bl+2e8XgliWdeKib4LOl0tF6gaw7EzyTVmpZhUqaxpaktvfibIkbjiZ8Sc7MevCeBZ11YrpTFPE1RoOTfVh+tk6YVf7k368krxQTXR5izCLpmQfLSdBJfy2afiL+3mgEZwoAzHY7SZzUX0RzIWhNg4fHCPYuAU5cC0NSvtxDa9mmS3XsCRUBAN1Td3QrOw0srWS/Q0Rles6qhspD64iPLoI4QdpexFeAoZN9paEmUXd0AJZfU0pH9Yq95qt0/R/0ZXnSAB0ovqwuvOdXhOKQkir9XDgU6F0fZVQ2E9Lui2KteOpNQaWMTPaWYswnOb5eC+6RKKQuK06znfYAigGZUg0PG4MKNi7beBL6I+xYlRAR0PTPkiRIBMUHX0K3Ty5g2/iPgEpAUCZyPks+PiIAOrXtgw9pfcTaco/dX8PqAd7Fg5nJJcwmDB41Ap7a90Kldb/TtOVjyOoedG/9A2xbdMGjAO+ja8WXUrt4Q69f+gsN7A/TeoVhxJehff7YJUYHGLAFnG3p3H4QBfd/AlQSj/JvJcpU6hAmJjw68hlFvT0L7Vt2FyHfHjImLRUgcwoA+byLg2Hkh5OfQvVN/NKrfRvzeQgOf5ujTY5AQdtuovYiAyDNX0KV9X8yZ+ikgf1LOJrCNvn/EoL20cesPv2sbw/0vYWC/YVg872sp9wJeGzBcZw46tZU29noDEf7J2LZuP9q06IpB/YehS8d+qF2zETZ/vwd//uqHmtXqw8HBBb26DcJ3K3/CJhEP7aTefaU+LZp0wverfv4bkyg7WCLAgoV0xaMWATwsjIS0OMkwibEQUx21l3uOtithVqIsZFb8jdFteSY551XJrUFw1Z/xhGwzL91RhxA/wiDRHMHnvUGQTVA4KPGWfJU0m+GSnldvgYoOIenqJ3FcufiYpFvK46i91tVWLwXjU3AQLHsyR/+NexU2vEpeFBpK9jWNPLM+tjawbKNcW3ulDHMWhHkwzBABkkbSsq9UKDC+xHOdxRkFQwRwxoDhakLEuDND4SAioPbCMIRYMwEWHjPcswi4evOaEtmKx1spsU2L8N4LuD0ot/6sdbA96p6S66H2KgZqH++k93p+gJDzCuubovKW5sbzic6osKEJKm5uoqP6jFthXWMVDnrCr+RZcUNTERetldi7iogoIoSfi4SLve6tswL1I3qhyk8tUf6HxsYsgO0U4tT1Sw+UP95CSb+9+zr+B5Q61hidzwxG5NUYm2/Gc/9KBJy6hviQm0JaX0HZUpWF2I9C9y4DMXvKMiSEXhVSPRSDXn4bVxOBPTtOonrVevjj56NYPHe5muNQRBBNGrYTv0+xe+sBFCnshBWfb8J56aIRb41H1w79cPUsMG/65+jYrheCfC8ILmn9SNK5GLhB3RaYO+1TXBRtteWHPzFl3EeYOflTbPvxkJDzm5JHXzRt2AonD0YgJvASvl+5DQ19Wkj68xj/wVy0bNYBgccTpU3n0KxRax31p3hg/ip0Aq+LKOmP8mWraBu7dRkg9VmOxLAr6C8CZuir7+HaOWD3liOoWqkuDv7mi3kzPkFrIfumuU8Dn5b4ZOEX2Llhn7TREd98uUPbOOyN0egpfXZN2jh7yicqikJPXZJ+vS59Nwydpf2X4oDj+wNwaE+QmhJZIsCChYeLRz4TQBEgBLa4kG6OmHvRlp2EWEisScCN0W8hwrwnSSbBlXudEVDSy3gc4TbvzfhCdDnqzbzoNy1IBYC5VkDJM/NkOhs519kDAWca9JReknWCZVFsaN7GiD3rbQgQCWedJG+tO2cs5KpCQMk485R78TMPNdNtRafJPevIujK+1tGoJwWMEnW9ip+2wciTZlElpE4608BwG/Fn/Yw22PqFQobh2ib2K/0lHcPE30vydJwYhDoLwxFszQRYeMxwzyKAbm3iJlTybZUm0b1ncJtQERVKwuWZZwPoiPwpmx+JudzXC+mu24dqHD5zK1E+M70ZHmSEE/osAoHbgOqag6El4fxOWTgNL41KG5vqtqKchajHbUdtwsJMm15gu6r4tlFTIP9LgbZeNNwTKQKEIMcF30APIbEd2/YWYvsjPl6wBhvW/q4LdX9c9TNqVW+AEL8ozJj0ETq376dkt2/3V1ClQi0MfW20EN3hKg7mTFuC7ev+QMP6rRFw/AIuSBctnbcSbZp3xXVJs2TeV0rEab5D8UHzGRUBp20iYOrHuBwPfLviF7z/7lQd0e/WqT/ORlwSkj0Ak8bMx2XOFESxXtvRomkH+B8OQ7fOL2PW1E91dJ/p58/4WOrZR8SFsSbAMAe6hi4iJLp27KdtXLpgNTZ9t0/yhjxv11mKUP9oER/z0avrq1pOz64vo1rlOnhz8BgM6v8Oqlb2wfyZn2Hz93vRuEEr7T+2ceHs5dp3V6TsRbO/0FkVLmqmidC2dX+iSaM2Ikp6YObEeQg4lmSJAAsWHgEetQjYJCLARUip4ySDnLtPDtZnFyGpbkJYXeSZB4m5TQ7SdQPFhci6CsmlaCgucVwmSRy51/i8lzi01XelH/ORdNwZyFX83SYHqtmRy8RAjcsFyFysyzD6M436y5U777hJ2YTmI2A83cVIwDLdJgXK1fDniccuUi/G46wGy3QRgs36sF2u0j6tK8MlrrMQ+eJTJI3mJ+GTjbJdbe2lP/NmXPqxfXrPvBiHV5Yp927SHpaj/SBp3SWtp5YtcSRP94kSZ0qo1lFnWAjGk2shnhhsbRFq4THEfYmABGFfPQPe0q1CfdJxNkBhknB7Mm5/r4d62S3a5b39c5rhxlXPCjjVGdX3tkEtiZdyLgDBdGaaB4Byx5tjVtQneqiUvXtSRUBM0FV07zQAc6d9pulvJhlkmltoBvueQ/MmHbBozjIht/3wycJv1FSnV9eB6CHke9/uk9i2fq/azQceS9QFuy2adoLf4XNqXrNw1nIlwBQO82cuU7FB4kyCzPqRDCdKvD7dB6Fvj1dx/RyQHM1KAJM/nI0ObbpL+AX0lrCp4xYpaU8IFRGweoeKgIBjkUq6J46ZhxuSFueZbo6Q8p6IPH0pRQTQNKiziICP5nxltFHaYLaROxI1bdgOH81djk7te+OLj3/EtUSoYKGZ0v5fTmLr+t+1jQHHz+Lbr7ehZbPOuv4hSerDGQyO9jO/udM+EfHwipo1caEyFw6HnJQ0q7eiVfMOeG3gu4iT+qf1t7gFlgiwYCFd8ahFwAYRAc5CVB2EqJK0kjiTuJJsFydpFjiTLMvVScKdhfQ60U8IrxPvJb6j+DsJwXWSNLxX4SD+jOvMZyHgThKf5FwJ+gQhzeJnknDG0XgSX+MIOXbkvcAMd5G4rJfLBNaLYXJPSBjr4TzJIOSsc3EScMYdHyjlGnkyD60D60LxkFIHiS/50J95G3mJv5Bzrb9A2z1NRAPvbe3lvVmWm6RzlPY7iAjRvrO1nfGcKRDEz036l+11Emj9mU5QYFwgqiwIQ6C1O5CFxwz3JQLo1p3bgconWqPmiQ7pahb0QEGy79dFZwbMGYcHDfYNtwVt6z8QIVeE3aVyT6oIiA3iwuBe6Nt9AH7euQdbfvhJ8DNOHozDeSHks6d8DBdnDzSq3xL+R84qEf9YxEDNGvWxY9PPIgQOYPibY/H7rqNY/812+NRuBr9D59S2f970z9QWnqT688Xfo0bVOtj8/S7s/8lfCPo13V4zNvgmNn63F95e5TBFiP+eXX9gw9rtqFKxNtq37i5E+5LOCEwYPVfzpLj4bsVmKacJwuSHde70ZahaqZaIkV3YvW0PypWuguaN2wnBN8yB7BcGD+jzWkobt/64W9c9sI3TJn4El+KeaNKgtQiLZJyTNi6a/TVqVa+HnVt3Y89Pf2D40LHY97OvCJ1tqFe3hYoAzj7MkLRcI0AR8OlHa1GzWl3sWPcTDv4WqCZNMyctxNFDJ/H6q2+oqRCFAeuV1t8jBZYIsGAhXfGoRUDouWtYfeQ8Vh0+r9fVh5OxRt4ha+R+jdx/cyhJ/ARHJc4xI3zV0WSJK5B7vdru1zCupPvGTEd/ict8mB/zWCN5MZzPehXQ38hDytBrkuQlV1u+zFPTM77Wx4iv9ROsYnrGs7VhjeYnV1t9NC7zYv1tZRl1+gsaj+3UfOhn1E/9GEfrbjyvYt62PMzwlba8U9qkeQps/fAN49nqtZptk2fGW3EwCeuOn0fy5Ru2v8iDdZYIsJBeuG8RcPnmFbwXPgNljzVNk/xaMARADRFJlY+3xveJW209d6t7EkUAyShHw6eMW6Qkv3vHAejYtpfuzLNr4zElw8f2RaCNEGiKAZq5cM/9iNPXMfnDBWjeqANaNeuMN1//AEG+sdi9+QhGvT1ZCPJ5jfvt17sw7v3Zug0ndxYa0PdN1K3VRAj2CjULohBgPRh39fKtaNqondSjNV7pPwzjPpiNWZM/QXTgRUyf8BG++nSTbrVJEv3TpkMYOWyinhMQ4X9JRMh41BdiPqj/cPGfgOkTF+vOPmwfTY+4fSdnC9jGbrY2Uljs2nRMRc2hvaFo1bwz5s9crrsRsV7h/tc0TbPG7dGyWRcMe2OMiJZ4SXMIo96ZrCZPbNeq5VswXgQK23DqYAL69x4qbWyKZR/9gB9X/4LWLbqgVdNO6CgCYMeGI9Iebj+a9t8jBZYIsGAhXfGoRYDlni6XHiLgtIUnCmn9je8G9y0C6MKuRqFHwJsof7z54zMb8JDA/uC5ADQDmhq5GNeQNvF6EkWAAdrlXxTiGSvENgKBxyMR6Bsp6S9oeLgf99m/gMgzxug18+UMAs1yTh+OhO+BEB3N597/PKArknnZ8g3zk/T+FyUNy2CcSxI/WARDkobb14H5hfkn4eg++cCfPKukmrv18MAx5hHmx0O7rursActhXjQnMs8kOPlnCAKOximJj/BPbXPP8mkeZNdGQfAJqZuEMw+jjUb7zHyZl9/hCJw4EIp4KYPrF0K0bPs2XkK41uWK+Nva+EeQtPGcigS26cjvAQj1S04xg7q1bmngaRYB/jakFWYhw+D0Y/Y3skSA5R6mux8RcPq0PwJOn0Ho6SBBsIUnAkH6N70XMZAuIoDu2CU/tPN/BRWE7PqcNHbkedpBAVDrREeUOd4UI0KnIul6sq23bncr49epCOh05nWEX6XhesZ0/14EGKQ+Qvf+F/Aq4Ci6mQcJsTlqb4Lh3Dc/8oyx0Jdx6UfRYB+HeZvPSrYZ387PHgYZJ4lneWZaufobuxCZ8Yyw63rPchmm6aT+oX63lmmCfre0kXEln79v45WUNqr5kq2Nt9flr2ceIsYdhUw/lsM282rG+Uc8xSIgMMgfIREWMjJCBcGht5+SnJFhiQDLPUx3vzMBfqf9cMz/mOC4hccex3Bc4C9/07T+1v+EdBMBdMcv+qPLmTdQzre5jn4/zbMC3OqUZyiU922B98NmIJGrUv/GrYpfj9LHmqDDmdd0ZiWjunsRARYyGJ5SERAcchonDgZg55fB2LRI8JGFDAf5u2z7NBiHdgciSP5eZ87c/nfMiLBEgOUeprtXEcBZgPDTodjpvxtdTr2ODqcGyXUwOsu9hccT/Bv2PPUmdvv/irDTIfo3TutvfyekqwigC70SiRFh03QRLFGbu/GoGHjyBQHbSXCRdAXflvA51RVLYlbg0o3Ltt65s7NEgIWHhqdMBNC0hCPLf2wNwtK+4ZjVLAJz20RiblsBrxYyBmx/j5nNIjG/QwR2fRWCwGD5Gz4GQuBBiIDkGxfxRfwOrD+3D9dv20/Ock+zux8REHk6HJv8t6HKyTYof7KFXitbeGxR/qQx6L7NfxciROA9chFAd+3mVXybuBldzwxGpeOt9SyBWic7qpmQQsixz6kuTwakPfWkPST/NU6019OAKQKGho7D/guHbT3yz84SARYeGp4mESACICjYH8cPBGCJCICPukZjz+pkHP/lEo7vvojjP1vIMJC/h+/uS9j//XksezUGc9pEYP/mIASH+auQS/Pvm0GQ3iLgzJVIvBm2FCV9B6Ge30iEXMm468Qs9/Dd/YmAMGz23yGcpStqKC8zBi8tPJ6ocbIDGp/shR3+P+ssT4YQAabjAtcVcT9iYNAoPf23om9LBWcIqijaPOagwGmtxJ/Xxn69MCpsOnYm78Wlm/88+m/vLBFg4aHhKRIBAYIQIZE7lgdjVvMI7FmVjJjwawgPuIoICxkPZ64iJuyaiLSLmN8hCms/DBURJ3/HgIy9RiA9RcCOpMNoHTAeZU68jsonh2J0xJc4f+OiLdRylksfEUDrjOpCIGm6nJZlg4XHA9VPtkejkz0zpggwHe3h9184gs9i12Bk2DT0DhyGrmeG6PqBxxWsPzEgcCQmRMzH2oRNOHnpDK7ctD8s5O6ncC0RYOGh4WmaCThzWkeS188JwcKO0Ti59xLChWjy82shY4IL5nld/noslg+RHzU/+aEKfPJFwMUbV7Agdh1qnnoHFU6+gbp+IzAjei1ir53DBQlLEiFg4cnHOUHyjUu48Tf8IUOIAPvDWy08MjwWIsDeXb95XW3kz9+4IB/25McWyTfOy4v5Ii7Ly/lmOthrmiKgo4iAcEsEWHiQeFpFQCcRAb9zy9V/OEzNwiNFqJ/xfvliSCw+f+PpEAEkfSPDlyn5r+Y3DDX93kED/1HoFzwHLwfPRa+gmeht4alAl4CpGBa2FFHXEmyfjtvdQxMBaRF98avLw1YDuqHuqS4PXgyc6JS2f3qAdTfhK+XcZ1k+p7s+nD6xw2MnAiyXtuNMQtnjzdDu9CCEpnGicEZxlgh4AvA0iwDOBFgiIEMjRQS88fSIgMArUajrPwLlTgxGHb93UctvuKL8ySHwPjEIJSw8NXA51g8N/d9D0JU7bxX+IERAXf8uqBfc3SCXJLGnOqN+aA/UFWJrEmWfwG5K/usc74Saf7ZHbV8j7d2C4oHlpBV2G1jema5oENFTr+lNrFmX+mE9/gLLCZa2pRH3blHzcAfpkwcoWtKAJQKeEPdtwmYVAW1Pv4IQSwRYeJCwREDa/XIXMM57sETEP0HPzZC+Sivsn/A0ioBrN69j47k/0PT0ByoEqp8ahkan38esmO/w49nf8WX8TnyZYOFpwLL4bfgucQ/OXb/zOpD0FAEk13WFZFfa2gxec6sr+a97ugtqHekIj+lVUXVXKyX+FABlvvBB+W8bosrOFijQyQlVf2mN+iTOfmkQVCHZCvtnKYskmQS8DkfM6c/yKAzkmhL3RCcts9LmZnAcUhJVdrTQ8lPCU9KKqLAvIxVUdKQemWd7pX3Vf28Dl/fLothrXij2uhcc3yqFiuuboh7LSUtwsH5mHRkubTYFDYUS83u+UWGU/qKuiqeUdOyb1HW05c/0Wn+zPF7ZJvqnqre2JQ0BZYmAJ8RZIsDCQ4MlAm7pD57gHOZ3FecigbigtE9dDtUTqLmW4Lzgkt6njvOwwXryoLmkKB6Ad1PbYfpHB4q/tIdk/P+39x2AVRVb19+rivTQS3pPbkLoPaGFEHrvvQkiHQEFAaXX0IuIBQuKgIiIAtIUpIr0EiA9kNB7x/Xvtc+9IfLwKf9TBDLLt989Z87MnpmTS7LWzJ6Zx/lvlW1gfTx1O/HoVUl7tPfE8hlRBDhw6GYCXkqYpUKgzJF+6Bo/Hfuvyw/TwCAd/tCZACGa4ULkSy6PRLbiuVFhS0PUSO0ghLgW/vb83+E7sjQiTndAVSHHeWq5IXBKeZQVUp6tVB6ECvGNSOmgI+g6is6ZASGv4UntUC2OwqE1wjmbIOSZI+2BIiq8hxa3ynCGQYgtR+FJyqvFt0V4wv2ZiOrJ7eD2sg1/e+4fcO9fRO8dJJyCgHk5c8E6qie3V5JMgUG/TA9PlGciJLQtMelmEigw5HmJZTWQyT0rPMS33+hSKNzOF9mK5EbplTUtvxQ+J+yCQMyaBbH8hMex7jZK/qsnWTMVlfY1Q8g7lVD+u/oqqhxt1HK8lvY4+kYyz3LMF54g7ZP6GI5Ef3xfVeyfLMd3yjysk/n5HlQM2PtjRMAzAiMCjD02MyLgF++DpzWfOHAV0ye+j6+WbENqzM9pz/g9V3J99LbmGzxgNFYu2Ywz8UDcIYt0P8y0nH7+Mk9aerq0/3iWroySan4+kE47deIutnx7BJPHvo1920/h5HES/pvS/rvYvPYIosa/g4M7z0j6Xct3mv+H1KnX6et9WNr9tjjS7ue1yD/Fx8VkYOH8FejSrjfiD13X2ZP0ZdP7VJNycZJ26sQ9nBYRxu8nfWVEEUBcuHsVUaeX62xAwKFuqHV8OJLvnLU/NTD448OBSJzD9jRFzor5UeSdKqh5pQsCJpYRAv53FG7tg+qn2utId47y+VD6m9oqAnJVKQTbtPJwe8mGQu19UUpEA4kqRUDIe1VRuKMfCrXyQpH5YUpiS34uIiPECVmCcsC9TzCKfxquRJuzDYXa+MC5qz9KfBYhbeF6g9aouLMxcoUXhHu/IshdrRBCdzaxRulFCATPC0Oxj8NVUBRo5gn/CWU0neSdMxXBUmfgrIoo0NxL6gqStjcWQu0Ia7KLgMXhyF46r17XudMNkec7wSm0AHxGlECNc50Q8m4VFP8kXPokZF/Id5H3Klv3IipKr64N124BKCjt9nuztAoAEvLgt8JQ4YeGct1C21h8UTjcpK+cNSn6fhVLWByTdkhe//FlpN/ecJX3V+7bekr6GWLlJX0q2Nob7r2CdHaG6SW/qAkXeT+FWd/YMqi0v3narIARAc8IjAgw9tjMiIC0d0HyeS4R+PKz7/Hcc5lQt2ZTJEdfFeJ8T8nqyeM/42z8z0iJsfLVqtEE78z5DFdTIH9M76kP5kuKvisE2BIPJMKn4+5K2RsqFpJEPPDfS0oMcEZI7qkTN3E69o7mc5Bjkt/TcXdwSuo5m8ARfCuUhuVTYlhWrkmQ7SPrLHdJfk3MmvI+/u///g/jR87WmQw+u5AEdGrXU9M3fXNQfZw68bOUvydtui79gfZP/bM9Uif9n7a3h+1MlfY52s/wJ84osFzKA23nDAnbnhp7U3zdxtovd+GnH2Lxw/qjeH/eFyICSO7ZN+a5q323fDoEi1XXuYSb2L0lBqtX7JT676nAyqgiwIGvL/+IRjGj0TtxngiDK/ZUA4M/WgRYZLKaEPiCLbzg0T8ENc52RKG2vijY0ktDXCrtaYbiiyOEJOfX0fbym+ojk0c2FGjogSJCdgu18kbOsALqp+y6eshb2wW+Y0rDf2I5ZCuRC6VW1hRy3Ai5qhZSoREwsaz6CJpdETkr5EMRIdyeA0PgPayE+qiR2l5Dk/LUcEZlIbxOYQURPDcMESJGKBByVS2IzP454PtGSfiPLY3MwTnhOaSYihef4SXwXMFMSv4DplZAnurOyFfXTfxaI+06W0CxsCwCWWw5EPJ2FZReUVPaWhb5GrijnLSLMxUFmntqqFDE6fY6il9QBA3FSxURBLmqFoCHiJPg+ZXh3MlfRREPxs1WIrcKBY7gZwvJBadKBRE4vYLOZGQt4oQy6+qK7/ZC8IORp7YrQt6vCteeQcgdXljKt4TngBDkqeWCYiIeXLv7o8jblVRg5JB35DW0GIJF2Dh39tc2UlAYEfAMwYgAY4/NjAhIexf8Hp9PBvq8/Cq6duyD+rWbYeWS75Xwkzgf+vEMhgwciw5temD21A9RR0TC5x+vxzfLf8D7b30heUhs7+HgrtOYOv4dRO89j7Urf0Svl4agbcvumBX1AZKP3RaxcRXvzl2GD97+Av17jUDn9r2wdsVuJdMkxWtW7EKPF19Bh7Y9MHPKQiHBV5V0L/1oHbp16i9t64fPPlgr+S2hQQJ9UX5NzJn6Abw9/dGkfhtJvyHt/llJeLUqdeDjHYj1q/ZpWNC+bScxdOA4dGzzMka9Pg3H911UUfDJe1+ja4c+eLFjXyxeuFrr3Lz2MPq+PBSd2vbElHHzpa4biD14GTMnf6BpPboMEL97VTSkCmFf/MFqvNipH17q0h+N6rfG92v3Yu+2ZPG9WkXG159vxXvzlmHi6Dlo3aKrCJcPkBh9W/uybeMxqes19O4+GI0btFZRQxHD7+dHGVwEECl3LuDi3av2OwMDC3+GCGCYifew4sjfxFNHpEnYS39ZU0ipM4p9Wl1HoAs2dtfQIMbqZ/LJjhJLa6D2nW460p69ZB6UWVUbVU+0QdhPTVFpfzMU+6gaMrllUUJf+1Z3eAwqCpeuAahxvjMiL3QSn6WRo3RelBV/VmiMEFuGCCW20xF+HxEFddFDQ3Y4al6NIT5CsJ2qFIJLF38dsa95uTOC5oRq/STrPm+WRNZiuVE1uqU864KK2xojqxDyYouqax8dIqCUEP/nXF4QkeOidWUvkwe5qhVE+Q31UP1UOxRq56P1RoggoV/nDr7wfCVE28cZBO8RJVVYOEJ+2GeKpBKLq2tfWKf/+LKoda2LhkZx5iR4fiWE7WuOzH45UESuOStR5tu6IkZyougHVeHeNxj5RByE7mqiYodipPwPDZG1qPiaUFaFhoZXHWc4kLUA2YiAZwTLz68xIsDY4zEjAvQ9MISFoT8HdqagSmgkvl9zVMj7a3ilzxs6yp4ac0tJb5MGbfDJh8swqO8wFCrghm9XbMXyT1ahYrlqQv5TcP0MhOy/j4b1miPm4Dkl+RPGTMXnS75GaIVqWPLRelxIvIPyZSqjVo1GWPLpl+jfcxAiq9dHUvRVbFl3GBXLV8OoEZNFKCwSIdIc61buxOrlOxARXhsff7gU7y9YhGqVa4pw2KEzBRwp58j/tInz0apZFzSo20ratAF3LlIYLFKyTz/frtyNlJjLaC15Bg0cgm++2oiWzdvgzaFRUu8BVAqNwIfvL8U7cz/C5DELwJCihnVb4s3XJ+DL5WtEOIzB0Z8uYPUXO0UIvYQli7/E0FffQN2azeT93MCGr/egUlgNzJvxIYa88iYa1WsjQuIyFr69XGdNrp0GRr4+CZ4e/ipY3p37McqUqohli9aKYLmN+lLXoH5vSvqnqFq5Btat2q1CxMwEGBj8Ov7ocCAVAUntlLRz9D1wannkreWqpNn1xQAlvxzx9nq1GCKFWFMcOFXMryPS1YWoVtjcEDnL5VdxUPlAc7hIGYqHQq29kdnmpCQ98lJnJbmF2/vo+gKGs1Q+2EJ9c3YgZ2hBBEaV17UDFbY2QiavbMjfyF3FR776bnjBOztCf2yqoUW5qxeGTdpIUcDR/VIra6kIqCzCw3dUKSH1XkrOqxxtgUrSnlzVJP/0ijqT4BABDD3KXjy3iIRGqCKkmsTdc3BR5BHf1WJawVlEBkUA28MwI/bfQ9pf40xHlBBRlDvSGTnK5tMQndBdjaUvze+LAOmbU4X8KC7X4VKehJ3vlcS/3KYGeK5wZnm/LsjfwB15arsgd4QzSsk75ag/Q6sYdpVH0jirwFCsou/Lz0Xutb7O/vIeRCScMOFAzxRWXPwWJQ7WRcPj3RB3K8me+uTBiIBnwIwI0PfAUKArKcCCmYuE1AphPfczPvvwS0RUrYuUE7ewbf0BVChbDT9+fwy3r0BEwxUl/osXrsLFpJsIr1IPC+cvVxHQpEE7IeTviHi4hxP7L+C7b3/EzKnz4OsdgHnTF+F84g0h+uGYL3XhHrB32zGppw5++uEAhg0ehy4deuPuZWuR7/H9F0UcXEZXSatfpylWfrEWSz5ZgbDQ6nhj6GRcTQVi5efHEf7JY+eg78uvY9irk9Cv5zDpzx0NBXpr+mI0rt8am77ZjzVfbkeQrTjemvO+EvsB/YegRng9bFq9S4XFG8NHYdeWQyouTsfeRcumXdChXVesXrURyfJvnbMViUdviFhKxPKlX6NThy4oUbQcko5exHvzlqNBnRbADeDIT7EIq1ADB3cek3f0lYiQlioCXh88Gs0atcXNc5JNrGvH3pgwagYSj1wTYVQV+7dLBbeBRg1ai1D4UGc4Yg/eMDMBBga/gj9DBHC0mvHsJKQ5yuXT0BSOpAfPDRWCnxc5hdRSJERe7KSj6CoCNooISO2A8psbaBmKAsbUO1UqoGsDqie1VcIeNKsial3tCveeNiHTfog810lj7SkYuKiXcfZB8yrpiDgJLgl7lsCc8B5STIRHUY39f8EvB4LnhCkJz1W5IDyFoNNPjXMdUXRhFWQvkUf7wJkAp/L5lehHSN7Qn5oie6k8KPpBNSX0aSJACDqFAxfk1jjdETWlfSTt2Yrm0q0+XaSdFAG1rr2oRJyiyL13sM4K6NalpzoglOsWqhbSdQscuc8Zms8SASIqnCoWQDGuIZCyXIuQV0QAQ5q41uEF6RvXVuhiZxL5HY1FAFgj+/RLQeI1qKiuUaAwoAix1mU0FnGRT95HMXln1kLjUCMCng18eXEdSh6spyIg/gkXATzRM+YAiaSxp9IOyc9v302cT8nAIkBEbGL0HV3EyhFuX58gvPRibzQXslownws2r92HDV9vRuXQSETvOYnTMVZce4O6LZX4/iyiYNirE9Djxb7YvmkPKkm+PVvjkRx9E316vIYmDdtgzBvTULVSTbw141Mh0ldQM6Ihln+yRsnwD+sO6f2uzbvRs9sA9cV0joCzTRzlb96onQiF2hgycLQQ/SEY3H8kvv58p4bRMJ+KgDEiAnq+itUr1qFhvdZYtewHtGnZRcRFkvhvgO/XHsLSj9bDFhCCfr2GYGDvEejfaxhmTl6ooTqbVu/DS537okpYpPgZilMifo7vOy/CZDzqRDaW/rbAvm2nsG7lLtSv1Qy9XxqMAb2Gqog4vjcFx/ZeQCOpt02LTmjauC0G9hspQugWFr613BIBIliGvzZO2j9YZ1eSj99AN6lvzIhpuHn2Z7zWf4zU0wDdO/fSGZfdWxKREntP1xKYmQADg4fjzxABHL0mic5Xx1XXE3HhbYQQfI6U/9Pp38jkkkUJOsOBdCehErk1Fr663Jf/vr6GrJTdUE/XAuSgQPi2LgKmlse/8j2v23zSl9+oUkK8cyOEI+Lr6uri2AJNPVVUcMQ/R5m8ujsRR825RoChPtWFdNe81BluvYKQu6azEnmOimfyyCqiIFSFSY6yeTXOPvJKF/iOLo1/535eBUTJZTVQqLWPLizmjADJ9f2ZgOrI5JoVAVMqIGRhVSXoOSsUgHMHP+2j7/ASKiw4Y2CbXgH/yp8JnoOKIXR3U+SVdxQwqZyO3uesVEjXMlAYMD8XA3N2Iqu8n6LSNpJ37vCTW4RLQFR5FS2cqchXzw0lpXzglLIo2NRDFz7zPXHBMcOjXLoF6gxI2TV1dU0D21BC3jv76id91F2EjAh4dvC0iIC7d6AjyGdP3sW5U8aeVjubfAfXLlnE/vfgWRMBnMliLP7O746hXJnKmDphDj5ftAarPl+Pxg1aYmD/YTi8Nx6lSlTAyiUbAPm9uGPTEY2z//idr3DjLGPnjwgZro+WTTsJOR6Cm+eBLz7diFLFKyL2YCquXbiHKpUiMG/aJziXeB0R1eph6cercPsCsHX9QVSvWleEwyFMHvsWIiPq43zibR05/3DBl/hu9V68NmA0OrTvhOsXf9YZi3VfbRdynyh/xO+kiYBJo+cIqe6NU7FnhYh3R4Vy1TD+zalC5q+oMNn0zT5s+fYAypephM0bdwLXgf07Y0Xg7MOeH05h67oDwFWrbyWKlRcRsRnbNx6U9t7RPkZWb4AZIhh6dhuM7l3663dgycdfoGypUCQevSztT9L1CCNfn47PP/lOZxNYbsGsJahXq7mKgGGvjkGPbv21vVxg3aVDL4wWEcC+9uz2mvpe+NZKRIugYB7uxMSfjxEBvx+Jl+7is/1X8dm+q1gsxs8lYkv3XtZPGtM0j8P2XVFzPFuy1/rUdHmu5fZfw5ID17BU811R3+l9pZXltd7f90dbrPXQrPJLpD1WvZImz+iXdr9NUp88oy3lvdStfvdKPrZP81jPNZ3PtYxVb1q6/Vrz2suxLezPZ+JryR6apMv1Z0xLK8f0y1gmllZenrOslnek2W2p3RaJr5VHruHKrd//O/V/wZ8hAmgccQ6eXVF36yHhJ2muIuKAswIM2yG5Zfw7R/y9Xitu7bqT0FZj2BlKU3FrIyXbrj1syFPTRUfwOQvg0tnPPtrNEXZf5AotoCFCjNdn2E2u8EJKrIt/GoHK+5rDvW8Iyq6ta60RYBy8iJMyq2rpyDxJfP6G7nB7KVAJcy4h+J4Di+qOOTWEvHsPL6lChqPlJP+FWvlonD99WLsDieCRflG4FGrrg/wN3FCwiQfyN/KQPhXTXZL4HvjJOiz/IfAfVwYh71XW/jNciuFOTtWd9XyBygdaaLu8pXxZET9cN0BfZdfWUWHFWH4uYi6xNEJDkvi+3OQdcZaERJ8LgHVnIyH5BZt7Ilf1QijQwkvfAdvKurl2IVd4YfXLMCqzO9AzhqdFBBhkTDxrIoC72nDEfdLY+ahbqynOJ91Ron37EoTMfitkuqoQ0asY+8Z0lCkVht49XsOLHfrBFlAUSz5co4tXGbveoXV3ZM+aE6s/36ZhQT/9EI+a4Q3RtUNfDHllPCqKn5ZNOmDftmNaz7KPv04TARQQ2zfKH/FD59GkYTs0qtcWXdr3RnjlWti85pCUSVbh0LZFNyHOfXRRMnfdOR33s4bLcLZg0tg5Uqan+owa9zYyvZBViT/XGlStVAvffL5diPXPGNR3FKpVqq0hQ/Q5e+rHIg6O6lqILu37SBs7iYjohgM7TqJDm5d1jcHLLw6WMtIWETtvz16C0PLhGK6hS30RbCuBdyRtx8ZoFC1SCi2kfIfWL+si4wM7k/HRO6tQr04Laybg1bF4ufsAbS93InqxYx95rzM0rImhRJwt6d55AFo07ohPF65FqvTPzAQ8Gr6W76rzmDgUHBWHwqNiUXBsPFzl3v3NGDiPjtNnhUfHwnlkDAqPidVnrpLXdWQsXMT46fqm9eky1srvLtfu4stFyrlKOaYVEnPW55JOH2IFmSa+tB4xF7l24aeUKyzPXEZa9+qbbeAzaRefuYp/pvPa2f6c7XBmGZZlulgh1jk6Xvogn2y3lGfdzuMTrDJS1nmM9Fn8MT/7pD7ok2lSnj5c5L04j4vXNFphuS7Ee61b8si1s/jTZ1q3XEsZ1luIZelbnrmJ6fsbFQN3yZ9rRCxKTE9EzLnb9p/In4s/SwSQIJPkOvbdV9LMrTcT21kx9g4SLc9IWqs6DrTi2QD2e92nX/LyNGH1lWQtnKV/hslwf32SZBUUMdxn3xrRZh6tQ67p6xenBMsn/eoJxifaaIx/0MxQRJ7tZOXn3vl6FkE7XbdQsIW3bvmpz8QniXiaL7s/9oH++Fwtsa3Vb6nn/p79Vnu0bQwD4jO+D6mPbecz9s9ByPUdPHhtr1fv7b7ZN4ZAqW+eZeCoR9rJNQ8sEx5vPyeAYVXsH98H65ZyVbnNqN2vEQHPCIwIMHiS8SyuCeCuPVu+jRZCfkyurRCb+MN3EHPgOr5ZvhPH9l1Caix3v1mDSWPmY6OQ6x/WRwtRThWSfRtcRPvj5gQ9W4A76CQdva3ba27feBxThJAv+ehbHNx5Ep99sE7LfLf6IA7tOo2UE3dwXHxvWHUAx/ZeVDHBEJz5MxdjsoiSbRuE6HPXILF92xMxa8qHmD7pfezYdEz9O9bjsP0MnyGZP3XiNg7vPovVK3bpM+4etGHVPhzZfV7K3JE//LekHWswYfQ8fL5ovbSfW3fexabVe6WtCzA76iNpa4q2Zd/2BMyb/qn0+S0NF2LYEOvi7kSTx72jxH/z2gP4aulWvNz1FYwcPgk/rPsRa7/crjMHPbu9itgDl7W/fEc7v4uzv+M7Gkq4ee1R6Xcq5kx7D+1FRG1YtRPrVu3SmY/yZSvjxIELevjZB72NCPi9WBt9DQET4uA1IR4Bk+LhNzkB/pOta/9JCQjQa0mTe6YF8lPyBEp+pgXqM7HxceJHnk2UNDHbBCsPTdOkDub3mWLlt7Eeezk+Yx2ab3IiAiWPo37bxAQECQnnPcsETRQ/kk/bxk8xPrMswWo/2ybpvvTPtjKftpd+Ld8BU6x2qdl9+Ujd/lIf8/nxMyoJAVGSJj60bZJuY37WIW30ox+mSx/8piTKdQJ85Zkf+yjp2j97fbznuwiWvOpD0oKk324iRsLmJiHuwh37T+TPxZ8mAv4Is5NTJaqOe4oFIbD/+cyKg+e9JSis+18zPTVXRAC38rRNq2iRf7tY4eg4Q4U44l6wnY8Se32m9f53v2nG9tnb+J9ttafrtYgEae9Dn/0es9ej5cUPZwqY7vh8MF3rY98doiJdfUYEPCMwIsDgScazuCaAZJqkmoRbF0zbjXvinxMybO2PfxfnE6HGNQEMIUo+xjMErPLc5/6CPLP2vWd57qMvafJPmHm5qPacfd9/i0zzZF+pQ/KTcDOdC5TZjvNShsZ6uHMR28JrptHfg+2kH25jynRe80wDttNxloDVVuugsJPyqf0QP9z+NFn6yDxsA30znW1g+9knR1v4nPn0nUg5GvtEX+cS7+nORO1adce6lVtEXGxErYhGGPfGLB31Z39ZN/1a5wpY74fnBlw/y5mL+Rq+xN2TvvliM3p1H6yhVdx4IOnoXXxoRMDvxuro60r0vUnESZjtJJZkluLAJsTVJoQ1kOSbz0h8JwlxJ7GVe4eR1NrGk8Q70oQUk8zb71UYCEkm4ed1EK/lk/5IioOZTrP7Jam2BIY8lzYwL+ugfxUg9nuScAep1rqYR3wHUEzwmnnpj88kzU/6arWBfhIQLGWZzyfK3je5Z35fknqpn0Rd/Ws+R3/Ej+R1GOtU/2wvRZOKGDGpm+3QtlHs2Nvp+LSJeYyJRdicRBEBT/lMwJNuJPRi5b9rYIUrkeQ7npFUyz3Djrhb0S+ePcNmRMAzgpUX16sIaCAi4EneHcggY+JZnAl4mozhSw9L/yuNh3rt256MIQPGaChQp3a9MHfahyIYeHiaJTJ+zbgom58zJ7+vZyNwK9bXB49Vf1wYbLYIfTSsPnJVSay3neiSXCux5b1jdF/uLUIrJFfIsT6T68ApSWkEnUTaJsQ3kOSZeYU86ywCBQVH00mKxWwiJkiqgzgiTv8kzFKGooDlSaaZj7MBtkmJ4t8SH2pyTwJOIaBtElNCr210+Jc0En31Kyb3bLPmZX06kyD+JZ31B7EuHe1nPovIsx3Mz9kDllHSzjrF+MyfgoHtGx9r+dNnkl/8WO2Qa0lTAcL82k7xIb4obqy+sA0JcBsTJyIgGfHnjQh4HMZQHN0r/8Fn9tH1aies8KOMYEYEPCP45uJGlD5UH/WiuyLmZoI91cDgyYARAcYeNI7sc9aAayt4YBpnLXjNsB+GIz2sjMP4nPmYn+VSpPwluaY/bmFL30YE/H58c/Qa/MfFwVcIKsm9RVot8qzkV0fVSa4t4qxkWj8lTYiwjtwroRWCzWd6zXIcoRcCbc/jINIk2krS5d4xK8A6SOxtFA1SPojPJJ+fkGqbvayKE8nD53ov1yTi2j5JI9FnKBFDhtgGjvhTMCjhVtLOezF5piRdTAXCVLkXP0HyDpSos2555if5dBZE/Cuhd5i9LvaFoUmO2Qp9R2wDhYBcaz1Snm32ZTuZxvooZOTTmmFJ0HUDleaKCMgI4UDpQlEe2RyhLP+LD9pvlX8U//9rWx5mf4bPXzEjAp4RfC0ioJSIgPoiAmJvJtpTDQyeDBgR8PQZifZvkfH/1eifYVMnj9/T0CMr7eF5f81YjuXph2UTo40IeFSspggQMuotpFTJqZ0Mk6wHTIhFwPhY+E2Mhf+EGCXPSrxJriUPCTgJMtM5ss/RfJJvzSM+gySPhubINUfdGQ9PwswRcxUDzDM5Scm6Q1yQHDtCcNSPEHgl6zQ7kVayTsIvZVSciB/Wy3wk9CTxAUK2mY/iJJDhS3Z/loCwl+dz8ek31SLuFumXNCnvEBxp4T3yybKaRv98ribX0p/A8Wx3rLYnWPxYhN8q6yt94LX6lbwqMOR5kNy7jYlFpTnP2poAa6Rd49IdseliXKzqWPz6X+1BIiw+uCBWD9/i9pa6BuCBPH+WHWqByvxkiJCjP1I3Q4Yci5b/MKNf6acuAv5f+idluePQQ5+lMyMCnhH8mSKA9O332cP/e1jO38LDSvy2Pbv//bKnTx+MCPhzjCSaoS+O+7hDNzQtfZ7/H6MPrl1g/P3Dnj/JZkTAo2NN9HUhpknwEtLMsBwluhqCk4ygmZdgm3MFwXOuwTb7opDdJCXeXDTrS4LLvGIc0df1ABxttxNtK0zHPrtAoi7EmCP8rIMj40zXkKFxJ+ykXfKRVJNwyzVHya3Fw0y3nlmfFAoW8VdjfVGnEDzjgpShoGA+8cE2TE1B4KxL2m4SbkdbVTDQ7PdsE4UIZy5U6Ihfts0SEMwrdYhp+JKUUYEgfdI+MN0uHhgapKFQIpx8mc/eFzXWQ7/2elmeMwfuY2MRNptrAp5yEUACK+ScO9lYu+a00y0tua++43n5LQ0Rtr+ZReLTl33AVCgwhp/39BvTGmG7m6Lowqp6LgCJedrzP8vsJJw76uguQXYR4iD+lfY003MJNO8f1BZdl7Ctke77r4udH5LH8X4frJM7J3GnIL53ni/gOAuA/dAQKO4QZO+Tw4wIeEZAEcBwoPrHuiLpVoo91eBJQ3pi/1v/3Utn6VPTpz/4nE+t//7z2e/5zypj/XdX7I7aXbvdwW273ZL/V/v5Fm7a7cbPN+XzppZ9EEYE/Dl26vjPOBN3T3cL4o46Z+PvITmai3ktIUAy/Gsj67+ebsXk79+Rgq0bonWE/f6zh5f7b/U8bjMi4NGhMwFCXH05ki2EVsNqhFT7vLoF+WoOQu7wPshdrTcKNp0Ev/HRsE09KSTZIvc2EQq2KclCloXcSnkr1EbIrZBx26RkIbwcYbcTegqBqJPwn54i5JgEPRXu/VcjZ5lW8B25D4EzzigJ11AhlpH8QRzNF+KtpFzqCZC6lZCTULOt4t9/Rio8Bm9EvohB8B66HQHTUy3hMP003AetR57aQ+Azcq8lCKQcfdqmnhJ/SWlihaIhUPpCU6JuJ+66JmGKtFlEhB9nJOiXgkHKF5kkbWG/7T5UmEyWvGwj+8J3w5kUioQoyzeFhPpXESAm9+5jYlFtVhISzj/FIsBO1LnXv0sPGwq19kahdj5w6eKvJ+mSSFfa2wz5Grmj1BeRqBYnJPaQRXp15NsxOyDEtmp0S4Tuaqz3uhWokO6KPzRE3nquuoe/a9cAhO5orFtuMoafeazdgextoQ/ei+mIOsmymtyzvnT5WW+1h60PENOR/hOtYJsZivyNPZC3risKd/BF6a9q6eFlRT8Ml38Tnjri7iDYbLv6f2C2g77+4z4diXe0i9t5uvUIhN8YHugl7ygdaec2puwzDzJz7xus5VkPLUwEiUf/EBRsZb33QtLOkHerWORfzDYrFEXmV7p/3oHdpxEBzwhWXlyHYgdqoU50J2y/+hNO3T6tC4RjxWJuJaiduBWP4zfjcexmHKJvxuLozRixEzhy8zgO3TiGQ9eP4eD1aLUDYvuvHxU7gn1ie68fVttz7ZDaT9cOYve1A2o/iu26th87r+7Djqt709keacsebJX2bL26Gz9c/RFb1HZh85Vd+P7KDnwntunKdmy8vA0bxNZf3ir2A9Zd3oJvL29WW3v5e6y59B1Wi31zaRNWXdqIVSJ6vrq4QRdEs+8rLn6r9sXFtVh+cQ2WX1iNZedp32Dp+a/VPju/CovPfyW2Ep/Qzn2JRedW4GOxj84tx4dnaZ/jA7GFZ5fh/bNL8d7ZJXj37GdqC858hrfPfCr2CeaLvXV6kdjHmCc29/SHmCM2O/UDzEpdqDYz5X3MEJue8h6mpbyLqWJRKQswhXbqbUxSe0tt4sl5GH9yrtgcjBMbc3K22Kw0G31yJkadnIGRYm+enI43k2nTMCJ5qtpwtSgMS5qi9rrY0KTJdpuEIYkT8VqS3eT61cQJGJw4Xm1Q4ji1gWKvJI7BALXR6J8wGv0SRqFvwki1PvFvir2B3vLZWz57xo9Qezl+uNgwdIsbiu5xQ/R78iCMCPjjjdtnRu85j4F9R+jputwzf+jAsTj603l7XL21sw535OHOPw6S7gi9YSw9dweyQmnu++WOQ5dToIt0uXMP07h7EY27/XDXICv0xgoXomDgIV/05zioy+HrrzAjAh4dq49eR8A4IcIMAxKSS8IdNOMCXNrNx78L2ZCvyTgUbBGFrIHhcArtAt/pJ4VQn0TwjPMIHBcDm1jQ9LNCaIWwS9ki084KAU4UwSDPZl5Q4k/iHTz1LPwljekBM8+pD5Jzt5eXwn/sMQROS0UgBYWICRUSIkQCScIpNqZLfkn3mxgjYuGcReBFiLAetsOl3dt6Um2+esOtOjkyP/sinMK64m//ziKkaQ2Cp59XQh8g4sBvnNQnhD1wxmkVAPTvL4Tdb/wJaZv0RYh+cJS0R4g72xbMtk2WOsVssy6oCLJRJLDfFAwMB5J2+VMcTTsFj95fwvfVzbBNS0HArHOaN4DvY5a8M/FhzQpQZMTDc3QcqsxOeroXBh9uoUS/5Bc18bxXNnjZD/oiWc0alAullkcq8c5eKg9KfBquswMkpBzRDuNpvDFtdM97FRLbGyFfAzeUXWcd0sWzAGxR5eW7l1/DiyofbK4zAUznlp+VuL2nXLM801mPjopzm08h+LwnUeYIOcl6JbZV6uc+/zzMjO3XkXVHX+zGNnoNLqbt9xtZWg/lchZynUP6UHFHI4QsrIac5fNpe+g3XMQK/fDAs2qx9nMCGDok9WsYlEN42O81vEiEULgIItbFfkSe76xE3mNAEd3CNI2wyyfLVPiuITK5ZcG/C7+Akitqah3sd4UtjZDZLwfc+gQjaHZFPRQsi81JTzKucaETCjb3hnNXf52Z0TbZ+2hEwDOCNUKUq8o/yspHWqDOsU6od6wr6kZ3UVFQW6xWdEfUjO6ASLEa0e0RcZTWFhFH5B/CEfniHhG1LeXpw/HlYAwc/VWiHW6GMLuFilU83BQVDzVBBbXGKC9W7lBDlH2oNUizMnYrnWb179vB+iilVu8/jDsflTxYV63Er1hxtTp2q61W7AErmt5ENNFCfmE1f2FF0iwSwQ+1Gpbtr4Egu9n2R/zCAtOs+q9YuFpAmlWD/39YuNr9PP9p9JX++j/sQHXYaOnapnbgv5n0ST5paX1V++V74Ptx1LFWhNuDMCLgjzWGAHELzlf6DEO92g3x7crNWLzwa7zUdQC+W31ACPnPStZP7L+Irev3I+HojfvbbB6+pgtxD+8+JYLhHGIPXVXRYPnm501NO7DzjO7Pz3RuTcqtSvdujcWerTFK+kn+ORNBvzs3HcGBHUma7ojNT9/ex2lGBDw61thnAnS/fpLVyfEoMvMiCreeg2ylmiF43nWUWgR49VuN5woHw3fMQQQJiXfu9A5ylmmLnCVboFDHBQicnipE+wzcX/5cyFFbIXzNka/+m0K4o0UknIFLh3eRo0wbZC/ZEoU6vK0+vEb8iMJt5yJg5EHkazgKnkO3iDg4BdvU03Dp8iGc289H8OzLcOu2GE4VOgoBa4ECzaKUnDOEiTMHFB2u4vufBfyRtVgD+AjBD5p2Bn5v7MULgdXxb5ei8OjzFULmXof3m3uRq+ZAZC/dCrkq9YD3iF1CmkTwdFuEHOXbS3pLFGw5FUFTU+H72hbkqtJD6pR+RL4iguUguLNPweZR0u/WyF6mpZT7WNqbojMnhTu9i+zlWoufdsgWUheegzZqKFVh8Z3T7rtAqxnyfikmEnTWhOFO7lwYPCsJcU/1TIBFxEsui5R+5tUtOBmSEkkC2tILzp39lKzmKJ8fJT6rrgdrlVlTB27dA5TwF27viwqbGyjJd37RH3/P/k8RdK7wHlZcw39yRxRGJo+sOhIfOK2C1sUZhgLNvSSfGzxfKaKj4Uwvt6G+fJfLwndUKflOuaPk55EiTiJFdJWDz4iSenpugDznibrOnfyRt7aLEnxHmI8SbiHlpb+ujRe8s6PEkhp6eJgKDSHsIe9Vkf41Rsj7VeU7VFBFAEfwKV54km9+aQ9PEy71VS09gIzbjvqOLKlbj5K0h+6U+zdL6ValfA9Md2E76rjCb7S0ua6biij6dIgAzjaQwPtIuYKthdB39NOTlZmHh4TRR7aSeVDm27qocbojIi92hnv/EO1rjbMd5d+R5H8p0IiAZxWX7l7WkXKSeZJfkmquEXCQbouMNxKiTrNIO63CYSHxYkrqxULVLKLvIP2WNRchQKMgsEwXyqQzCggKifsmSliMIiPiKE1Ex9F2qCECJFKMooRWS6y2iBQKlrrRneWzswoYChmGN9U/9qKef0BrJNb4eHe7vYQmx3ugqViz4y+j2YmeaK7WCy3FWpzojVYn+qi1PtEXbWJo/dA2pj/aibWPGaDWIeYVtY4xA9FJrHPMYHSJtaxr7Kt4Me41sSH6aY12W9Yjbpjay2I9dTR8uI6M9xLrnfCG2JvoI9Y3YZSOqNP6J4xR42j7K4ljMVDMMRI/OGk8Xk2aoMYR+yHJk9LZZAxLniIWpcaRf84AWDMC0zFSbFTyDLGZGE07OQtjk2dj7KnZGHdqDsafmosJp+apTeTMg85AzMdkMc5McIaCNlWMsxbTUmnvYUbq+5jJWQ2x2ac/EPtQjTMfc+2zIDSdGTnzsdgixNz6zzUpRgT8scYReO7P37hhawzsNwy4JS/3ivwv1SL6FABLP/4WTRu0RfMmHdCiSUfs2BQthP0e+vcegR4vDtQThHm4GA/n2rqOz34WcXALQwaOwyfvf4G1X/6AN4ZOVcFAYj+o75uoHdkENas3Qu+XXpV6ruP4vgtSfpCeWFxX/E2f+J76SR9C9LjNiIBHx5oj14QUxelsAMN2GMdedOYFOLebj0y+leDaazm8Bm1A7ur9lOAGzTwPty4fI0tQJNz7roR7ny+Q2b+yELG18Hr1ezzvWVaI3wwhRMuQo2RzeIp4cO+9AlltNeDR/2u49f4CL4hfj76r4TV4M17wCUPAxFjkKNtKSMtAJf0Mk3khIBwuXT+Ez6ubkUXIvOtLi6Uda5AloDpc2r8Nf84mjI9FkelnUaj1LOSs0AFZSzSGS/dPUHTBPRRqOV3SOiJ78UZwlz7Qb/aKHZCnen/4jfgOeWsMRM6KHeE3ch9e8KwgouMDuPf7GoVazdJZjRylWyBnRF/4DPsOhZpNga8IFt/hPyJX1V7w6LdKiOt8KVcWAWOPw2vAemTyLKcCyLnZVGQNqoWAKafgJv4ys+09l8H9tdXaJ9dO78M246wKLooAbhEaOitRRMDTPRNgiYAaKgLC9jQV8tkJ4SfbI09NZ7j3tN0XAUsiEJHSAZ6Di8r7sokYqI1CbbzlvXtboSszK8p3Ipse3FVc8pJcu/cJQtaQXCLYQlFuvfAbEQbZiuaCl4iEYp+Eax30wTAdEv5/5Xle7n3kZ1AOFbc1VF/PFc4sgq28hsVk9s2B3FULIWRBZSHcxZClqBMq/NBISb4eHHaqgwjEknCqVABVGUIjfXQstOVof4Q8Dxbh4FS5oMV/jrXScKUCTT1F5ETI9yhYxG4eje8v/4MQ9BK5pM2RiDjXEeU21kO24rlRemUtJfB5Ip1RoLE7ii2qrqE+zxXIJN/JUr+YCbBCk1ojV7iz1FsZxT+tDid5l5bwaYvy3zfU+squryfCq7MKAecOfsjfwB2R5zqpyDIi4BnHnZ/vYNOVbRpCs+HyVg2v2XR5O76/vAObr+7UMByG5DA0Z9vVnzRcZ8e1vRrKw5Ce3dcOapgPw332XqdZoUAMCzogduh6tBU2dPO4hhBZ4UQMK4rVECOGGpEAprdYMYYlOSz+VjISbp1US7x9CklqKWrJt1Nx0m4MZ3JYitoZtVS1s5bdOYvTaXZO7UyanVc7m2YXcO4XdhHn7963C2qX0uyiiKr0dunulV/YZbWraldo966l2dU0u652LZ1dv3fjF3bj3s37pjH192PsGW9/3xh/b9lt+Tk/aPzZW3Y3ze7S9D9HlH/6/x6+XoCrFv4MGBHwxxpFwJm4n7Fi8XcoWawC6tVqijeGTMK2DcdxJQXYvSUO4ZVr48MFS+Udx2JA3yHo2OYl3VKzVMlQtGzaEZu/5YnAp9CicXsMe3U8bp3jiP4JlClVCTu+34u357yPerVb4OppYOKoOQivWhtbNxzAptV7MKD3MOzfcQpDXhmj+/QfPXwCq1asRcVy1UQ87BYRwvCjP3dnoV8zIwIeHaujr0EPvRIRwDAcLpoNmiUioOtC/NPJHdlLtcALfpWQyaO0EOG9sM27hhzl2iJLcE24dv9UjWSYI+j56g5HrrCuKPL2HdhmXdZYeY6U56jYWYhxDbj1XAKXFz9CJq/yKNBonJC4nchsC4f/lCS4CYHO7FcFgdPPwE1I+wuB4Qiadhr5ar2GF7xD4dL5Ay1P8ZGr8kvWQmARL0EzzqNQ8yjkqtYb+RuPh1N4HwTNvYKcZVvDue08EQGN4dF7FfzePIB/FwyUPOPg2uMTDR3K5FEKPkO3IYcIhdyVusOr91c6ExE065IQrn7Sx1oiRBYiYMxRFRtBXNMwar8Qqk+lvp54Lr8P/MYcEpK/XPMWeesWAkYewgteFeE3Nhq5aryCzD7Sdumzi7T9hYCqktYfgfJ+GQoUxIXBY+JRiecEPM0Lg4VYciFqKSG2mdyz6ui/W+8g5KnnhpxCVjnqzVF+x0yAI/wm7MemOuKet76rhtYwZIcLbnNWLKCj2zXOdBTB0FFH3/PUctGR88hLneVnEqDrDiIvdkLNq11Q7rv6yBbiJGS4AUqvqo0s/jmkzvoWIRYx4v1qUeSpIeVFfHCUPE9tV429r3OnG8L2NUP2cnlRcmkNHVnXkf2U9lb7a7ugmiNUiDH8QsoZzsN2BIuAcKpUUEOW2KesQuwria+aV7og4rSIzQhn+LxRStc35AzNL6S/JiKkP2xrzor5RczUQ8nPa4ggyIOwn5pKP7pq/blCC4iYLiYigITdercUWCp8RGCxDgqqnBXy63uJEMJPAZPFP6eSfndpd4GmHiI88qgo40wABZGbEQEGBgZ/BYwI+HOM8f47NsVg0uhZaNagHYoXKYvv1+wScbAGXh4BQtLHYvSI6WjVrDMiqzfQeP+IqnWw6N1VuH4GGvu/cP4KVK1UG5dO3sa0ifPRqH5b3L4IzJm6EK2bd8G5hLsiMppj1pSFuHHWOnmYoUjxhy9KuVpoUKclJoyeg9cHT0BwUAl8+PZKPRE4/iHtfRxmRMCjY/Wx6xoO5Dc2FrrbzsR4FBGCXajdPGQLqq2x7L7jjiFrkXoo3Go2gt+6gRwlmwrpjUSBBmOQr+YQ5Gs4Gt6v7xRy3gP5ar+GInOvWQtfZ19E4JyryCZCgiKABDxP5GDkr/cmfF/bCs/BG5BZ0n3HHhUBkihEJhxufb/SPHkjByFk/h0h5z2Q2TsM+aWOfLWGIn/dEXDvY5F1PchLCHXB1tORO6ybkL0tQsYaw6XX5yoCvIfvQJaQukLuv4GPtO+5AgHIW/tV5K0zTNo5BIXbzIaNMfrSv3x1hksfayN76ebwHXNYxMhZFGo7V9reEi/4VoZX39Xwfu0HZA2pJwKgFwq0jBKCH6b9CIhKFoLWHNmLNUK2Yg1FDL0u70CEiAiizFKWoU556gwRsjtSF0P7Sdu5bWiwCC6PsUKiRAQ87eFAKgK+rCk/q+waFuP9egn4jy2jO+iQxIb91Aw5hLgyjIdklKP0uaoU0lFqhu1wNJ/ktqLkz1EuH8p8XceKtRdhEDQnFLmrF1ZSzLUHXKjrNaiojshzQS2JfI4y+XTtAUfYnYRIMwxHF9tKXV4iAgq39tHRdaaRJPuPLa0Eme3LKfkZypQmAk520NkDJxEjHK1nHzlDoAt4RQRwTYElAqznwdI+zgpwRoCx/hQbzh39RbQGIXRHIziFiQiwLyguv7mBrm8ot6GejurnknKMrmC5CKm3sIgbT+lb+pkAlqMw+Gfe5+EiZN69TzCec86scf4USlw4ndXmpKP/PsNKwHdkKV1TUS1O3l98G/kem5kAAwODvwhGBPw5dmLfFR3dvyGE/o4Q9x5d+qFbp9744tMNKBpcEm/PWoT5M5dgwezPsP6rXRqmExleH0s/Wq+LfLko+OieMwivWhdLP16NDm26Yc60Rfj5CjAr6j20adFF8t1B3ZrNMG/6Ig034iLjM3HA8X1nUbVyTbz84gB8/M4XeGvmZ/j0/a9wcFcqktLWGDx+MyLg0UERoFtkMhxIxAAX3AbPvCAEeQ6yBtfR0faiQsYLNZksRD4SwbMvCUkfJEStHULm3tBYe7feK+E9/qiQ8RnIYotQMaHrCtrMgme/tUrcGUcfMv82gkQgePZcAf9RB+Hx2kYNl/EdfVCI1BUUFKKfOaC6jqozjIgiIH8zqVeINxfhsh1efUXkvvq9tQsPBcvs8yjYajqcyraFbeZ55KzUHc+5FEH+puO1HVlsNaR9X+qOQZm9KsCj91co+j7gP+YIPHqthN/w3fo8SPriOz0Fz3uUgmunhfCUevwmxiFE8mYv0wq5IgciX+MxyFayOUI+gpDc7cjkXBT+w/ciYPQhERv1UFBEDmcxbFNTte0FhPxnK95QhUqRt27Dvd83KiSCRDTouQEUAaPjEDo3GbFP+UyAFQ4UiexlrdFqLnIlSWcYS7VjQtR/airPhNyvq4tKQrRf8M8h77YK6qGHhgA5hRfSEfYK3zfQBcTlNzXQkXOSfoYB5anurKSYhNi1eyAKNPNQEl/zcheU/bauhgtVEDLM3YecwgpqKE56EcBwo/AkLhYWEdDYE36j04mAivl17YAlAlooseeahRd8sqPYh1V1TUBEakddiOzaLQAlV0Si6AdV4VSloKS3R4llNZC1aC6E7Wqi7SGB50yA/7gyCP2xqQoU+qtzt7uKlMw+2aR/DGuK1LCmitsbaznW6yRt8X6NMwHSFi50jmmtsyi5pC5HiFOgGNcEZCuRW/NU3NZYR/7ps+Ylvvf2CI+1dhfirIsRAQYGBn8ZjAj4Y41kPvn4HSHgg/DGkMk4/GM8ovckonnjthjU700c+vEUQstVw4rF63Hh9HUs/3Q9Fr37JVJj76ByaE18unCtLuKlr/OJP+tsQZGgkqhbq6mS+OtngZmT30bjem1wTYj/G0OjUCeysTxLwE9bTqBnt8G6aLhvz6Ho1rkPLiRfweGfkjB90nvYt/2kigsuMH6w3Y/DjAh4dOhMwJQE3SKUpJnk1DZLCHyHt5G9ZFPwkDCGB/m+vg1Z/KvCa9h2+I49jGxCerOFNEC2Us2RpVh9eL+5B/5Cbhn6kyWoppRthiwB4fAe8gMCxkUjq+TJFlIfOUq1FMJUDz6j9sPrtc2a5ickmrvreL2+E//K7Yac5YTQC5HmNqL+44/DqUwby6cQ/cyBEXAbuA6B062dfYKkXOFWs4T4dUERESS6SDinMzwGfyeEKVnrdX/5C4S8dVPI0Gy8IELAqXx7ZAkMR4Em4+EvAiRzkTo6gs++cDE0RUmeiFd0BiJXhQ7S72oiClbBa8BavOBXGbmqvSQE8CXxVQ4F6oyAz9AdeN69lPTL7qNEU3gN+k53HMoq9/SfvWxrEVE14Tl4o4iAFN0hiGswPLgweHbiU787kGNNQLZiuZSMkmxrHL0QUceWmE6hBeH2cpCSdaewAvB4JQTFFoUjFxf+emfT0XL6y1kuPwp39AMXAfNcgSLz5Ocg+emPpL7MN7VVKHj0DUbw/EpKkEnOSeqLfxqOHCI2KmxNJwIGF0WB5p4aP88dg/LVd9OR/hrnOqkI4DoGDQc62c46g0DaQPLsI3ky+2WX8iHalnx13XXEn21i6FPmgJwInhuKKuKzoPjPW9sVRRZUhnPXAJ1d4FamJPEMRSrQxANF3quii5mfc35BFyazjny13URUuyD4rUrwlPfxr9zPw2d4CWsm4FBLaXN73e4zS3BOhO1uooKkhgghzjpwbQF3AGIIVdYiTroegtuC6g5KnEVwiIAWZncgAwODvwhGBPzxlhJzD0s+WofI8HqoES5/TKrUQevmXbFnazIungQWzF6C6pLWqH4r1KrRCMsWfYvTcffQpUNfrFq2XXcQstYWANs2RKNU8fIYM2KmLio+nwx8+M4X6NdzGFJif0bMgasqOGpFNESNavXR66XXkBx9Rwl/i6adUadmY9SMaIBX+oxA7MEretDYw9r8OMyIgEfHWi4MnpgAH4bvUAxwu0vuvz/qELyH7dT1AiSrnC3wFiHgL4SdsfqMk3ft9glcO38A/5H7dQ9/butJcuv+0hI4d3wP/m/sEfIkhJe77Yw7CpcXF8G1ywfweXMvArgF6JhoqWO7bq3JbT/9pF5vEQbeI/mcI/1xCOZ++2Nj4NpjKQp3eg++Q3dK+1hPPPzluf+kRCXt3q/v0p13/CeegPfQrdbZBdJmr2E7EDD6CALpf+Zp+LyyCS7tF8C13yrrBOHpqfCS9hd+8SPpy0L4jTmIgBmn4Sfix+3l5XBu97YKGe4YZJuaAs9Xv4NzhwXwFL9+b+4XfxuQs2In5BdB4TfqAHxH7UHOMs3hVK4disy5KiLmhLT9MxTuuhA+I37SnYQYxqTnB9gXBlec97TvDmQdSMVQFx393t1USGrrNLJJY6hP0Q+qoWBLb5TdWB+lv6ll7XTzoj+Kf1Zdd8xhWA0P5Cq+OAL5G3nA9SWbLjJmaEtgVAVUtgsK3b3ny1q6q06BJp7yfSqpI/jcfaec+OZOQCTGmje2jS6kLSIku9qJNpoWPCdMBQsJcuhPTTV/+c0NtY0Okqxl49qgyLuVtc15G7jqgl/OMLAc++wzrCRcX7ZpKA/PQeBi53yNpd3dA3SRLtcLsH4S/sLtfHUkP1gETdDMivbdgtqpP91VqLG7/Fspr7MeXBBN8WC9V2n/J9VFEJdXUaOCyv6++b44I0FxxLMFGBbEswT43PFzYUgVF0PzoLVq9tkBx8/EiAADA4M/HUYE/DlGAp9w+Aa+X7MXP3x7QIj5bd37nySY+/Yf2pWC9V/txJHdZ619/CWdZwvEHbyebgcfft7W7UJJ9nkeQIJYzIFreggZfVmnB9/DD+sPqvGaIoAnCvOMge9X78H2jUdVmPAMApZ5sK2Py55mEbB969a/RASsOSJEVUi+t5B3nuhrHWjFve+ThUQL2ea9GE/J5cJY7t2vC375ycWyYoyr14O3JI+Ozk89rXvvk9grUR8fq8KC24LqPv9K1ulDSPhUqcM+A8HtSTlKzrMFfFlO6mE+ioPAmWcQzPLik+KAoUtcxKwHg0kaDyejmPCbKr4pPEQA+E1NFAEi/tkOhjyxj1NOSpvP6WFibKsatxudIf2Ydkba6eiLtFf6ETztrJAz8cH2SjrbZ5sl7eABYOIreMZF5K7cA9mK1kfhzgtQqMNcZA6OROHmU1FkqvijrxnyqW23Qpj0VGHpM89A4MLgivOe8nAgB+EUgqoEOd1BWOmf6/75+lwItpBbPf2WRFmM+/aTMDP0hZ/Mp3v7i08KCi33C1/WGQJM5ydj9fWcAD0TwKrDkZeEmnUoAWbZuLZpJJttZTsc5DqtDjX7mQKOepKlnmPWTkGOtQGWX2u9AEft0/IJ+WZftD7pK/un+dln1iftVD+craD/eOm/lNVzAxxtc/RVxMsv+i9G3+pP3gPv+Vz7kC6PGsvbxciD/TMiwMDA4E+HQwR88sknyJUrF+bPf8uIgD/AOJJP0s3QHo7gJwl5T78rT0rMz7p42BIGVvrJ43cl3/0+WAt4LfHAvf9JoJmX18ka1mPdUzSwDhqJP9Mc+bR+igzx46jnr7KnVQScOnkSWzZvhouz818wE3BVSamPElOSapJTnn7LkXaLZFtkW9K5G48Q6bRTb3kiLg/IkjwkzUzjzAEJM7f99JN7JcHMK0bSGyCCICBKiDdH6hmCRH+SruXEbPLcIv9WOY70W2UpUuQZ01mffLIdutWm5LfJMytNfNmfMcyJIsJXiD596EJitllMRYikUUyo0BEfvuqDfZQ0MR6Gxm1IKU60XkljXf7MJ2m8DpogdYyLRr7mE5G76svIU7UXnDu/p2IliEJC8jjqU8HCuqRs0Ng4BIs/t/EJCJvDmYDHEw7UrFkzuLm54dDBg0rgHvadfJj9pghw2ANE8xfGZ47njms1iyw//Fm6NIef9Hl4bQ/h+cWz9PcPpj3MV/r79MZnh+zX/PxvfhzteFg+x/2vPaOxfPpn6e1h6Y5yv/bcYenzpbM/QgTQKlSogBo1auDGjRv2b9nDYUSAgUEGhEMELF68GDly5MCMGdNx7uwZIwL+AHOQ8YeR74c9e1i+X0t/MO1BX7+V/lfY0yoCUkQEfLt2LQoUKIDXX39d/708LqyJvqYk2JenBssnR/w5iq4n9QpR1xF6Elm9FiHAexUFJOUWMWY6y+gMgqT5CcnnwVok4To7EGURefrnPYm35Vvy2cm4EnutR3zwmnklj20iw5MsEm8tXJZ01im+bdIO3jvq9RdRQdKth5+xrfRrr0eFBf1TrNCHCgK5Vz+SJmV4WjJnDFQUsDzbIZ8sYwkiKSfPtb2Sh2KB9dmikmGbcQ7BUacRPPUMgnjqsNYj+SQPfbMt2g77e2L9RSTdbWw8Ks5NRtxjmglo3rw58uTJg/379iEhPl6/fw/7Xj5ov1sEGHtq7H8VAZxJ4t/xoiEhqFOnDu7c+e/fYSMCDAwyIBwi4JtvvkG2bNkwdMgQnD3z9IiAlVMtEXB0+5MnAoz90lQEyKeKgN5Pjwg4nZqKTxYtgpOTE6ZNnar/Xh4XdGGwkFMvklSSdn6SgJPgclReCT9DgITIKjEmIRcyK/lsJN9ijG3nSD3vdbSbJmkqBEQA+KkIEKHBkfkoEnMpxzr4XP1b/pTIS1nOPJB8B4lRHPAZZwp09F0+VZTIJwl4MEk4yzOv5Esz8a8zAWLaDnuf/Eno1b+Y9s/Kw/ZwpoP3bCuvWQf98pPPNe9Ue5gR06Uekn3WFyQCREUH/do/KaisGQ8RHFz3oP2Rfsk9nwVKve5j4xDKLUIfkwho164d/v73v2Pb1q1ISpR/I0YEZFj7X0UAReS+vXuRL18+nWH6LRgRYGCQgXH48GEVARyJSk1JeegvlSfNKAJWz0vA9PqnsHftNaQm3VGimWTsiTOGKZ2Kv42YvTcxv30qFg1OREzMcbEnXwScO3sWkydNwr///W98/vnn9n8xjwdrjlonBms4EMkxCaxcK7EVYq+j4iTJJK+aTvJLQswRc4vsph+NZ37OEDiEgJJqIerWSDpH3iWP+OMCZGv2QEi6pDOciAtvA6elio8kS3SwjNTBumz0z7rYBj4T09F6aYsKBXsbHfXrKchMZz00PpO8OnuhpNwSESo85LmKBvaXZbU/Vn4VJ3KtsxH2Nuhovj3dIvr32xMwmTMbFtl3vE9te5T1/piHgoEhSn5TE+A6jrsDJSH+MS0MHj58OP7xj39g+fLlOgP1ewdj7ouAdah0pDnKH2min2HGnlorf6Qxqh9pi3XHNj2yCODvreSkJGz+/nv87W9/Q/fu3e3fsF+HEQEGBhkYt27ehC0wEMWLF0fMiRMaj/p7R6H+EjsmIiDxGHZtiMP0hiexaMBZHNt1A8knhHQeN/YkWtyBm/hq8nlMqXkSGz5KQHzyky0AaPy3wJmAjh074p///CcOHDhg/xfzeLA2+poSdW+SaxJdO6lVwu24J0knEZY8Gh4k1zrqLfcMobHCg+RTnnFWgNe6jkBMY/1JfiW/jujzuaRrOJBc+5GITz2FYO449OY++L25F8FTUmDjouTxMSIMTtkXD0s+KaezAEreuThYPlmvXHNxb8C0M9oGCg1dvEwhYK+LZFwJPPuk7WCbJY/k40yBih27b8esgqbxkyZCgTMASuo5ki95HH3Wd8NPto/9E8LPT/WhoidR83K2hPlUPNjrdBkXh0pzKAIez5qAJUuW6GDMuLFjH2lG1hIBySoCwo40Q9kjjZRIhsq1safTysnPsPqRNioCTj6iCOD35oz83lqwYIEOXsybN8/+Dft1GBFgYJDB8fLLL+viYMY/p5w69WSLANqJY4iNP4a1CxIxte5JzG2Zio/6nzX2BNrHItLe7nhaBMApLB2VhOPRJxDDUCARcw/92T4hlpiQgKNHjqBYsWIoWbLkby6u+6OxJvo6fIW8egthDRKyzNAaDd8hsSWJ5T0JrhBfElkrnMZOhikKhMg6iD7JsYOY64wB8zOfw4+O1ss1yTV90O+kJPiPO448Ef2QNbimWC04lW+n25EGzr4AH25Tym1BZ3IXIilD/1OSEczdfKJSpH7xL/eB40/Ac9BGIeJyPTXFIuNyTRHAMCTWo7vz2AWJbXoqbPQpZblWgCPzNmkPQ3VUBIhxJoD12YSoUxAxfIf1WcKAfZT28xn7zvxaD8k9Sb8VHkU/unCZgoR9F3MIEfpzGx+PynOT//SZAEdY5gkRnfnz59eFnNyViiL0Yd/Lh1nc8RjsPbYfS499ic+OrdBPY0+vLZGf4fJjK7H/2AHEys/2UWcCKAI6tG+PvHnzYvfu3fr9cnzPHgYjAgwMMjhWrVqF//u//9PFj2fPnn3oL5cnyY4LgWRISVz8cWz9Mh6LX0/EO93Futk/jT05Jj+TjwYkYsPCBBUAFG/8+T3s5/okGWcBli5Zgn/9858YMWLEf/0j+mdgNcOBJjIcyCKpSmxJVpXoShrJtBDZtJFsJcZWPg21kXRLBFAASBrJMEmx/Zoj3taMgkV+gykU6FvuSZCDZl9E/vpvIHNgODyHboHn4E3IE/kqvPp8rWQ+R1hX5KrWGz6jD8B/bDRCpqQiYOwxeA5YA9839iBoWiqChNC7dfkIWQIjJH0tAt44CO5C5Dv2KHyEaHPbUL/xx+E3OlraJXVGnYLv8J3w7L9WBUgQhQBnGqQfJOvcIUhFilxTFLCvumDa/l7YX/ZF+yHPVSTJe9FwHwoBPuO19tsSAQw90ncmfjWPXNukTlcRETwx+HGtCSBq166t2zVzXQB3pnqU2QCSxdTjJ3H6+Cn9NPY02ymkyOf/jwBISkjAwQMHdKepsLAw3L792zNZRgQYGGRwnDt3DjabTUOCoo8e1YVFD/sl80QZhQAXCSceR2ycXD8sj7EnwijY+HN6GmYAaByF5YxY+/bt8XymTPjxxx/t/1IeH1ZHX9MtNXlOAGcAGMqiIT+SpqPfdvLKkW+KAmuEXO4lj4b28J6k2E5+lfTzPq2MpNuJNAWDlrULBl0HMOsSclXtg2zFG8v1BRSdfw/F5txAyLSzesjWP/N64znnInoisPfQH+DVdzWyFKmL7GVaImtIHbj1XCb+YpC9eFP8I2t+8dMQhdrNFzHwLZwqd4OfCIHgmRdRsP1c5IschJCZl1Go9UxkK9lErBlylG2NgJH7dZZAFyVL+1ToaNutWQQVRxQsfBdiKn5I8MdLOsm+PKMgUOLP8pJf+8n3J59WCJXlw9odSMqO5buMh6uIktB5Jx9LOJBDYH700Uc6GDNq1Chdj/KoM7IkjMaeHXvYz/i/Gb8v586cwexZs3Q9wIwZM/R79VsDGEYEGBgYIGrKFP0DxF8gPC/giQ8JSme60DTW2BNr/PmIYHvYz+5JM37vOQq77ttvkTlzZjRr2hTXr1+3/yt5fLBmAkQEcAcgklMhvT46wm8PcSG5JSEm4SexFRKsBJjEVwisQySQ0OtuPFKOo+csp+E/UlZH15lGf+rTes78DOnxGbJNiH1tZPapBKfQbnDvsQyB007rIuFclbohd40B6td/6km49f4CHr2+QNCci8gV0QfZSzRG8KzLeqJwFlsN+AzdjsDpZ+D28jJklnvf0Ydhe+sa8jYZDacKHRA8/Txe8KqIgiIEbHOvwOPVTfAddUj6Lv2nyKE4obGd0k9fIe0k9+yDigT2UdJtfD/sA9+LPS9nQHy1f3biL3n1vAVey3OHELLKMI1bhMYh7DHPBJw/fx5+fn7w9fPVrUK5S9DDvqPGjD3MGMLIzxIlSqBAwYI4deqU/Zv132FEgIGBgf7C8PHxgbu7Ow7IHyDuMPDEbxdqzNgfaBQAPGSHIqB+/fp47rnndJ0M8bjDgbg7EMk9dwfSGH25JvHVfe5JVklkJU1DeuyEX/fGJ6kloZUyLG+N/FvlNUxGTEfR7WkkyCTQOlNgT3OIBp7Uy8PFXLp+gFzhffBc4SAUbjkDIfNuIY/c563zOmyzL+lpvzzsq7AQeKdqvfG8R2lkK9YYtnnX4frKGmQVIeFP0j/3Klx7LUe2kLrwG3MEgSIC8jebYImAeTdQsOlEZPavBqeqL8FNBEUATxi2b4PK9lIApX0ybIkCRownFzPdj/n4jtgfO8nn+yDBt4SP/Z3Y35+GRdnfJ+tgGfUr9x5jrDUBcY9pdyAH5s6dq4MxgwYN0sGYR1kbYCxjG2ePxo8fr9+fyZMn279Rvw0jAgwMDBTvvPuu/gLhoiJuF8pDR56mGQFjxv5Xu3D+PKKmTNZ/B506dcLdu3ft/zoeL1YfvaqHa3lztF/IrBJ2+8h/YFQi/KYJOSbBZTpH9EmMhdj6cq98El4+YzmOgPOT5UiA5VrJLvPb00mGSYw1zp5pWk8ivEft1+1Biyy4h5CPgUItpiBLYDiC5l5Brmo9kb/uCBR9+xaCZp5DrtCuyF62LXyGbkG+JhOQo0xr2BbcgnP/r5A1uDZsY08geP5tOPdcJqKgjtSTqH7pI2f5drDNvKiHenm/vgOFWk1FJo8ycO2yEMEiRNJ2G5K2pSfxJOxK4uU9pW1/SmPf+V7kWgUTy07hMyudMwgOUeB4J5wpYBr7z5kW93HxGg70OGcCCIZmli9fHv/61790TcpTcXaLsb/U+P3gGibOXnKHqXLlyuKMfG9+L4wIMDAwUHARUdOmTa2RhEmTlBBxZNQIAWPPuvE7fl4I2Ndfr9Kdsriw7rik/1XQmQAho94krkJ2SYQpCpS4kuROSbIILGcBJJ3EV/f4Z37aBCG18ulnFw4qHphf8jgEgXWCsJDkieKbI+j8lDI8LCxIyHeeWq8hW9lW8Bq8Cd7DdyJ76RZwqtgJwQtuI3f1/shesjl8R+zQUf0sAdVQoNFYBE6LQ3YRAJm8yiFgWio8X/1OCH1ZuPdYCv+R+3WnoOfdSsJVxIDP8F3I5FYKOSgCpqYir9Tn0fsr+I/Zi8wB4SjYeCyKiMDgAl+uc9BzBkjy2U++B2mrzojIOwiWd6BrBuQ5PznroWsj2D/55LWGU4kY0HUP8lzXCtCHPOOMQZAY73ntOebxHhaWHhs3bsS/RQQE+PvrehQOyBghYOxhxu8FZy6PHD6MsmXK4Pnnn8emTRvt36TfByMCDAwM0sDR/+DgYGTNkgULF76vxMhMSRt7lo0CgKEXPGDH09MTWbNmxZo1a+z/Iv4arI6+ruEuvgx34ci/EFMNd5kQa42GC1lVck9CK8ZwHpsQ4CIUBfLMiv+3ynD3IBJofjrEgBrJNX2JKam2k2JuTUoC7/XaZmQv2waZA6sjsy1CyHobIe4/InjWJSXzmUNq69ahXBTs1n0JstgikbNCZ+St/4YKBtfun8A245yuHXjBuyLy1xuO4KhTyF9/JDL7V4FT2IvIXa0PCjSfguCpZ5C/7nBkDo5EluDacArtAr9RBxAo+TXciX1SwcNZAUsUqZDhO2BfxfxF+FAUOdZH8PwAEnxu+cn+6QyJHg5mzy/PVPzI+6UAUJEhFiT+3UfHImxW4mM7J+BB8LwADsaEhoXh8KFDT8fWzcYeq/H7cCpZhKr8za5fr55+XyZNmmT/Bv1+GBFgYGDwC+zYsQOFCxdGpkyZ8M477+D8+XO6Y5D5I2TsWTJ+nylwL4jQXb9+PXx9ffUP6e85YOfPhs4ECFn1Gytkl2SVhF3uSdA13p2ElWSd1ySyQpKD5TnJMhcDW3HxYlKOxJaLiCkSNP6fYkCudctNIf6OMBrdZchOoJVoT+ci4NPweeMn+A7bKYT8JAKnplqEenoq/MYdhd+QndKWWARKXu/RB+EtIiFArnVWYdQR+E/joWLJ8HrjR/hKfj11WASGzwjxOfKAzgBwhiNwvJDvqDPwHnVQ6toh18mwiQDQ04K1rVKn9o/ixRr95z3XN1AQpM0E8FNM9/+X96KzJpKfMwNBLGe/1gPTKAr4jvj+7Pn4HigCPEbHodLsv04EcFa2d+/e+n0MD6+GvXv2aGiQ43v74HfZWMYxx8+fIUDHo6PRtEkT/Z7wdOA7dx595sqIAAMDg/8AR0IZFsGtxkaPHq0LhTktzV9A5o+QsafZ+P3lNDq/01xMt+jjj+Hi4oK///3viIqKsv8L+GvBw8IYyuJNMisEVUethZzqoVj8JClWUss0En+L3DKWnzHtSnLtRJek1sZtM+W5Ff5DUWCV07h6+hBzEOGAKCvUiEQ+aEqSEPJU2IS4K4EfH6siQH1MOWk9Y51CxG2ThbSLaNBZCREMtknJ4LkALGfjrkJcQDxO7vmc9zw8TPz78/kkIfIk6FEpCBafPFzMsbjXiv+3959rHrhdKvvMtrKMXAdTLEibKA70PVAIUCiwX5InTRxw5yTtG/vgmA1wvDsrH2dRPDgTMCcJcX+RCCBu3ryJvn37KsErVaoU1qxejfPyfeWp7vz+mt/DGc+4hTdH/jlDv2XzZlSrVk2/H9zO+MqVK/ZvzqPBiAADA4OHYsuWLXp+AH/JNGnSBD/IPUkTT7TkLyTzR8jY02jcSo9/RBlHO3DgQN0FiIc0vfvuu/Zv/l+PNUeu6ki+rgkgQbWTYWtxq5hjG1CS2Cgr7IVkn8RYyTLJrDxniAsPAtO8doKsxJf56E+uAyYKKZd0DZtx1Md0sbT8QsgpOIJ4Eq+QZ8d6AiuuXp6xjHwqWRfTuHze28k3n9M4Qq8+2Uapy5Gm4Ur2e9avpJz3HM0Xo7DgGgeWYz4Sf6tdIgokr84QUDRImqMNjrrUL/svn5whoQ9tMz/t7yVI3ifz6nkEU+LhIf0Mm5v42HcHehC3bt3CsGHD8I9//ENPgJ04YQLihQTy9zDFgPkd/Owbf8Y0kv+zp08jOTFRd5HiTn7829yzZ09cunTJ/o15dBgRYGBg8KuIkz80nTt31l82efLk0a3rtm/bpkKAMwPcy5p/jLiAmKEVZv2AsSfBHN9Ffi/5x5PEn3HV/M4e2L8fU6Oi4O/vr9/r6tWrY5t8p58k8JwAkmQvkmwh3UpkSW6FuDLdIrZ2oixpJLBKoB2HiskzBwG2RINcCykOmCQEXtJUBEg+xyFc9MNQI/XB8moWeeaoPwWDEnYSenlGokyyHSRlScT9o5Is8i3PdQEu80l9StIlXcNy6Iej71JeCTzbRmEi+RjOwzrTL36myNA+2+tnOfp09Nvhh9faXsmjn/KcokW3TFVfVpqKG74faR93UdIZAEnXE4XFOFuifZbnblJP5TlJSDj3180EpMeKFSsQFBSk39cKFSrg/ffeS9sVhgtDGa7J77n5Pfx0m+NnR3P83mLcP39vMe3TRYsQERGhM/QeHh744IMP/ucdzIwIMDAw+K+4d+8eFi9eDJv8Efq7/PLJljUrWrZsiQXvvIMd27frLyv+IXKQLP5hMmbsrzR+D9XkO8k/pHv37sXiTz9Fr549NfSHZKpAgQK6n/a1a9fs3/QnB6uPcE1AvIoAhuvoKDYJsZ3oKjF2EGESXbnWUB+SYN6T0JKgS7qO1mt++aQPJb0iBuz5WZ4CwJeEX+5Jih0j8oHcZUjumUcX4cpzDathmA9JPvPRH31LXY4zCDSdn1JG1yWwrGM0nzMJko/+NJ+9LEm8r5B0btdppVOw2MOV7D5J7u8Tf7bfbswv6brol/n5nO2Wa/affdZF0mwr89rfjZJ+zSN94TPxQeHhMZYi4PGfE/DfkCLf5wEDBsDJyUm/v0E2G4a89hpWfPEFDh44oAMy+jvY/B5+as3xe4s/R4Yrcrbym6+/xhsjRqBkiRL6c8+ePTu6dOmCBPm99kfAiAADA4PfhXPnz+Pt+fMRGRmp+xHzF1JBIVLh4eFo0aKF7qveu1cvDOjf35ixv9T69OmDrl27onWrVqhdu7YehMfv69//8XcdSR0zZgxiYmLs3+wnD2uirymx9xXCGiTkWOP6hZzaohjzL0Sc12LBei0m5NlGAk5jHiG0DO/hqDZJvc4cSB5NI9F1+OOIuZByrg2wwmKYLmlirIf+mJ/hOmxHsOaPR7CQaKu85YP+NBxJ8tAf28JnrP/BOjU8iJ8sK77U5Jrt9p+aZKVr/dYMiCNUyAp3svugf17Tv6Nfcq/vivdyrQulNa+8D/nkuyrCusUXSX8Re59YnmVsko+7BAWLeYjAqTLvr9ki9Lewe/duDBw0EEWKFNHvNI07uvGAuzZt2qDbiy/qWgIKhof92zD25Fr/fv3wUvfuaNu2LRo2aIBixYppKBh/xgEBAbpYfOvWrfZvwh8DIwIMDAx+E+lPTGWcKn8R8XTCevXq6cgqD7dx/EEyZuxJMS72zZc3L6pUqYLXX38dq1d/gwsXLti/yU8uVh25BvcxcXAdHQ/3sdZuNZ5jYjVW3X1sHDwkzW1cvO5n7yZprpLmJs+Z5irmNjpWP10nJMCNz+SaZZmfB2HxmYeWtfzQp+co+hUf4+WZvQx985pl3McnwIVpvBdTH5KX7fIcFaP+tG1CoD3kmSv9y70n28xn0ibm8RwZA1fJ467tlnzqg+2Xcsyj9dmNaaPs/dLrGH0f9Mv63aV/rJN9d5F0rYcmfjylnKuIFRch+2yjl7xDN8njIn5d6ItpzDtO3pH0La2cWL43YlFqZhJi/8KFwQ/iwTOrk5OTsWTJEvQT4li6TJm0GQJjz4blyJEDJUqU0Jj/Tz75BPHx8fafvIU/6hRzIwIMDAz+v3H9+nWkpqbi0KFDupCYtnnzZmPG/nLjd3Hf3r0aqnbl8mX7N/Y+/qg/on8Gki7dxecHrmL5/qv6+bl8Lt9/xUoT+0LvrWfLDl7T58uYz55XP+3GfMzDzy/2WT4+P+gofw3LDlnleb/8wBX1r8+kTJpPGtO0jFWXPrOnLXf4FXO0TfOwzfYyy6Uu/UyXl6btp+nz+8+WSxv12l5+Gf0y3Z5G/8u1X6zjSlofea33zMO+aV+lX3wm11a7LJ9sq1W3fO5jWdoVfLb3Cr4+fA1Xb96z/0SeHDzse3vx4kUkJSVh165dumuM+T38dJr+7MR27tyJhIR4HbB48Of9R//eMiLAwMDAwMDAwMDAIIPBiAADAwMDAwMDAwODDAYjAgwMDAwMDAwMDAwyGIwIMDAwMDAwMDAwMMhgMCLAwMDAwMDAwMDAIIPBiAADAwMDAwMDAwODDAYjAgwMDAwMDAwMDAwyGIwIMDAwMDAwMDAwMMhgMCLAwMDAwMDAwMDAIIPBiAADAwMDAwMDAwODDAYjAgwMDAwMDAwMDAwyGIwIMDAwMDAwMDAwMMhgMCLAwMDAwMDAwMDAIIPBiAADAwMDAwMDAwODDAYjAgwMDAwMDAwMDAwyGIwIMDAwMDAwMDAwMMhgMCLAwMDAwMDAwMDAIIPBiAADAwMDAwMDAwODDAYjAgwMDAwMDAwMDAwyGIwIMDAwMDAwMDAwMMhgMCLAwMDAwMDAwMDAIIPBiAADAwMDAwMDAwODDAYjAgwMDAwMDAwMDAwyGIwIMDAwMDAwMDAwMMhgMCLAwMDAwMDAwMDAIIPBiAADAwMDAwMDAwODDAYjAgwMDAwMDAwMDAwyGIwIMDAwMDAwMDAwMMhgMCLAwMDAwMDAwMDAIIPBiAADAwMDAwMDAwODDAYjAgwMDAwMDAwMDAwyGIwIMDAwMDAwMDAwMMhgMCLAwMDAwMDAwMDAIIPBiAADAwMDAwMDAwODDAYjAgwMDAwMDAwMDAwyGIwIMDAwMDAwMDAwMMhgMCLAwMDAwMDAwMDAIIPBiAADAwMDAwMDAwODDAYjAgwMDAwMDAwMDAwyGIwIMDAwMDAwMDAwMMhgMCLAwMDAwMDAwMDAIIPBiAADAwMDAwMDAwODDAYjAgwMDAwMDAwMDAwyGIwIMDAwMDAwMDAwMMhgMCLAwMDAwMDAwMDAIIPBiAADAwMDAwMDAwODDAYjAgwMDAwMDAwMDAwyGIwIMDAwMDAwMDAwMMhgMCLAwMDAwMDAwMDAIIPBiAADAwMDAwMDAwODDAYjAgwMDAwMDAwMDAwyFID/B3mzb6NN68ntAAAAAElFTkSuQmCC;" parent="1" vertex="1">
          <mxGeometry x="41" y="80" width="769" height="429" as="geometry" />
        </mxCell>
        <mxCell id="naRv0cA1vl7b-i_oqYkt-2" value="" style="shape=image;verticalLabelPosition=bottom;labelBackgroundColor=default;verticalAlign=top;aspect=fixed;imageAspect=0;image=data:image/png,iVBORw0KGgoAAAANSUhEUgAAADkAAAAcCAYAAADbeRcAAAAAAXNSR0IArs4c6QAAAARnQU1BAACxjwv8YQUAAAAJcEhZcwAAEnQAABJ0Ad5mH3gAAABASURBVFhH7c8xEcAwDMBAN/whuliapSj+9ItmPe/uN7jzl9akoklFk4omFU0qmlQ0qWhS0aSiSUWTiiYVTRpmLnGLA8yve0WTAAAAAElFTkSuQmCC;" parent="1" vertex="1">
          <mxGeometry x="308" y="357" width="57" height="28" as="geometry" />
        </mxCell>
        <mxCell id="naRv0cA1vl7b-i_oqYkt-3" value="" style="image;aspect=fixed;html=1;points=[];align=center;fontSize=12;image=img/lib/azure2/compute/Function_Apps.svg;" parent="1" vertex="1">
          <mxGeometry x="-339" y="139" width="68" height="60" as="geometry" />
        </mxCell>
        <mxCell id="naRv0cA1vl7b-i_oqYkt-4" value="" style="image;aspect=fixed;html=1;points=[];align=center;fontSize=12;image=img/lib/azure2/databases/Azure_Database_PostgreSQL_Server.svg;" parent="1" vertex="1">
          <mxGeometry x="-148" y="320" width="48" height="64" as="geometry" />
        </mxCell>
        <mxCell id="naRv0cA1vl7b-i_oqYkt-5" value="" style="image;aspect=fixed;html=1;points=[];align=center;fontSize=12;image=img/lib/azure2/compute/Function_Apps.svg;" parent="1" vertex="1">
          <mxGeometry x="-590" y="139" width="68" height="60" as="geometry" />
        </mxCell>
        <mxCell id="naRv0cA1vl7b-i_oqYkt-6" value="Order Batch Processor" style="text;html=1;align=center;verticalAlign=middle;whiteSpace=wrap;rounded=0;fontStyle=1" parent="1" vertex="1">
          <mxGeometry x="-620" y="199" width="110" height="30" as="geometry" />
        </mxCell>
        <mxCell id="naRv0cA1vl7b-i_oqYkt-10" value="Order Blob Processor Function" style="text;html=1;align=center;verticalAlign=middle;whiteSpace=wrap;rounded=0;fontStyle=1" parent="1" vertex="1">
          <mxGeometry x="-340" y="207" width="70" height="30" as="geometry" />
        </mxCell>
        <mxCell id="naRv0cA1vl7b-i_oqYkt-11" value="" style="image;aspect=fixed;html=1;points=[];align=center;fontSize=12;image=img/lib/azure2/storage/Storage_Accounts.svg;" parent="1" vertex="1">
          <mxGeometry x="-450" y="20" width="65" height="52" as="geometry" />
        </mxCell>
        <mxCell id="naRv0cA1vl7b-i_oqYkt-12" value="Order&lt;div&gt;BLOB Storage&lt;/div&gt;" style="text;html=1;align=center;verticalAlign=middle;whiteSpace=wrap;rounded=0;fontStyle=1" parent="1" vertex="1">
          <mxGeometry x="-449" y="84" width="60" height="30" as="geometry" />
        </mxCell>
        <mxCell id="naRv0cA1vl7b-i_oqYkt-13" value="" style="image;aspect=fixed;html=1;points=[];align=center;fontSize=12;image=img/lib/azure2/compute/Function_Apps.svg;" parent="1" vertex="1">
          <mxGeometry x="-158" y="139" width="68" height="60" as="geometry" />
        </mxCell>
        <mxCell id="naRv0cA1vl7b-i_oqYkt-14" value="Non-Digital&lt;div&gt;Order Processor&lt;/div&gt;" style="text;html=1;align=center;verticalAlign=middle;whiteSpace=wrap;rounded=0;fontStyle=1" parent="1" vertex="1">
          <mxGeometry x="-170" y="199" width="100" height="30" as="geometry" />
        </mxCell>
        <mxCell id="naRv0cA1vl7b-i_oqYkt-16" value="" style="endArrow=classic;html=1;rounded=0;entryX=-0.029;entryY=0.507;entryDx=0;entryDy=0;entryPerimeter=0;strokeWidth=2;strokeColor=#007FFF;" parent="1" target="naRv0cA1vl7b-i_oqYkt-11" edge="1">
          <mxGeometry width="50" height="50" relative="1" as="geometry">
            <mxPoint x="-540" y="140" as="sourcePoint" />
            <mxPoint x="-471" y="160" as="targetPoint" />
          </mxGeometry>
        </mxCell>
        <mxCell id="naRv0cA1vl7b-i_oqYkt-18" value="" style="endArrow=classic;html=1;rounded=0;exitX=1.003;exitY=0.527;exitDx=0;exitDy=0;exitPerimeter=0;entryX=0.132;entryY=0.183;entryDx=0;entryDy=0;entryPerimeter=0;strokeWidth=2;strokeColor=#007FFF;" parent="1" source="naRv0cA1vl7b-i_oqYkt-11" target="naRv0cA1vl7b-i_oqYkt-3" edge="1">
          <mxGeometry width="50" height="50" relative="1" as="geometry">
            <mxPoint x="-370" y="230" as="sourcePoint" />
            <mxPoint x="-300" y="130" as="targetPoint" />
          </mxGeometry>
        </mxCell>
        <mxCell id="naRv0cA1vl7b-i_oqYkt-19" value="" style="endArrow=classic;html=1;rounded=0;exitX=0.996;exitY=0.469;exitDx=0;exitDy=0;exitPerimeter=0;strokeWidth=2;strokeColor=#007FFF;" parent="1" edge="1">
          <mxGeometry width="50" height="50" relative="1" as="geometry">
            <mxPoint x="-266.27199999999993" y="159.14" as="sourcePoint" />
            <mxPoint x="-165" y="159" as="targetPoint" />
          </mxGeometry>
        </mxCell>
        <mxCell id="naRv0cA1vl7b-i_oqYkt-20" value="" style="endArrow=classic;html=1;rounded=0;exitX=1;exitY=0.413;exitDx=0;exitDy=0;exitPerimeter=0;strokeWidth=2;strokeColor=#007FFF;" parent="1" edge="1">
          <mxGeometry width="50" height="50" relative="1" as="geometry">
            <mxPoint x="-86" y="159.7800000000001" as="sourcePoint" />
            <mxPoint x="95" y="160" as="targetPoint" />
          </mxGeometry>
        </mxCell>
        <mxCell id="naRv0cA1vl7b-i_oqYkt-21" value="order_header&#xa;(delivery_location_lat, delivery_location_lng" style="text;whiteSpace=wrap;align=center;fontStyle=1" parent="1" vertex="1">
          <mxGeometry x="-270" y="382" width="267" height="40" as="geometry" />
        </mxCell>
        <mxCell id="naRv0cA1vl7b-i_oqYkt-22" value="" style="endArrow=classic;html=1;rounded=0;exitX=0.5;exitY=1;exitDx=0;exitDy=0;entryX=0.68;entryY=0.017;entryDx=0;entryDy=0;entryPerimeter=0;strokeWidth=2;strokeColor=#007FFF;" parent="1" edge="1">
          <mxGeometry width="50" height="50" relative="1" as="geometry">
            <mxPoint x="-134.14" y="230" as="sourcePoint" />
            <mxPoint x="-134.3599999999999" y="321.08799999999997" as="targetPoint" />
          </mxGeometry>
        </mxCell>
        <mxCell id="naRv0cA1vl7b-i_oqYkt-23" value="" style="endArrow=classic;html=1;rounded=0;entryX=0.655;entryY=0.991;entryDx=0;entryDy=0;entryPerimeter=0;strokeWidth=2;strokeColor=#00CC00;" parent="1" edge="1">
          <mxGeometry width="50" height="50" relative="1" as="geometry">
            <mxPoint x="-109" y="319.5" as="sourcePoint" />
            <mxPoint x="-108.74000000000001" y="228.73000000000002" as="targetPoint" />
          </mxGeometry>
        </mxCell>
        <mxCell id="naRv0cA1vl7b-i_oqYkt-24" value="" style="endArrow=classic;html=1;rounded=0;entryX=0.985;entryY=0.797;entryDx=0;entryDy=0;entryPerimeter=0;fontColor=#00FF00;strokeColor=#00CC00;strokeWidth=2;" parent="1" edge="1">
          <mxGeometry width="50" height="50" relative="1" as="geometry">
            <mxPoint x="90" y="182" as="sourcePoint" />
            <mxPoint x="-91.01999999999998" y="181.81999999999994" as="targetPoint" />
          </mxGeometry>
        </mxCell>
        <mxCell id="naRv0cA1vl7b-i_oqYkt-25" value="" style="endArrow=classic;html=1;rounded=0;entryX=0.985;entryY=0.797;entryDx=0;entryDy=0;entryPerimeter=0;fontColor=#00FF00;strokeColor=#00CC00;strokeWidth=2;exitX=-0.018;exitY=0.68;exitDx=0;exitDy=0;exitPerimeter=0;" parent="1" source="naRv0cA1vl7b-i_oqYkt-13" edge="1">
          <mxGeometry width="50" height="50" relative="1" as="geometry">
            <mxPoint x="-83.97999999999999" y="180.18" as="sourcePoint" />
            <mxPoint x="-271" y="179.99999999999994" as="targetPoint" />
          </mxGeometry>
        </mxCell>
        <mxCell id="naRv0cA1vl7b-i_oqYkt-26" value="" style="endArrow=classic;html=1;rounded=0;entryX=0.985;entryY=0.797;entryDx=0;entryDy=0;entryPerimeter=0;fontColor=#00FF00;strokeColor=#00CC00;strokeWidth=2;" parent="1" edge="1">
          <mxGeometry width="50" height="50" relative="1" as="geometry">
            <mxPoint x="-340" y="168" as="sourcePoint" />
            <mxPoint x="-522" y="168.43999999999994" as="targetPoint" />
          </mxGeometry>
        </mxCell>
        <mxCell id="naRv0cA1vl7b-i_oqYkt-27" value="" style="shape=image;verticalLabelPosition=bottom;labelBackgroundColor=default;verticalAlign=top;aspect=fixed;imageAspect=0;image=https://nordicapis.com/wp-content/uploads/MuleSoft_logo_299C-240x71.png;" parent="1" vertex="1">
          <mxGeometry x="-955" y="130" width="240" height="71" as="geometry" />
        </mxCell>
        <mxCell id="naRv0cA1vl7b-i_oqYkt-28" value="" style="endArrow=classic;html=1;rounded=0;exitX=0.996;exitY=0.469;exitDx=0;exitDy=0;exitPerimeter=0;strokeWidth=2;strokeColor=#007FFF;" parent="1" edge="1">
          <mxGeometry width="50" height="50" relative="1" as="geometry">
            <mxPoint x="-705.2719999999999" y="157.80999999999997" as="sourcePoint" />
            <mxPoint x="-604" y="157.67" as="targetPoint" />
          </mxGeometry>
        </mxCell>
        <mxCell id="naRv0cA1vl7b-i_oqYkt-29" value="" style="endArrow=classic;html=1;rounded=0;entryX=0.985;entryY=0.797;entryDx=0;entryDy=0;entryPerimeter=0;fontColor=#00FF00;strokeColor=#00CC00;strokeWidth=2;exitX=-0.018;exitY=0.68;exitDx=0;exitDy=0;exitPerimeter=0;" parent="1" edge="1">
          <mxGeometry width="50" height="50" relative="1" as="geometry">
            <mxPoint x="-598" y="178.67" as="sourcePoint" />
            <mxPoint x="-710" y="178.66999999999993" as="targetPoint" />
          </mxGeometry>
        </mxCell>
        <mxCell id="naRv0cA1vl7b-i_oqYkt-30" value="iPaaS Order Orchestration" style="text;html=1;align=center;verticalAlign=middle;whiteSpace=wrap;rounded=0;fontStyle=1" parent="1" vertex="1">
          <mxGeometry x="-884" y="180" width="170" height="30" as="geometry" />
        </mxCell>
        <mxCell id="k7bckBG_RtDYrQezcNKC-1" value="Authentication" style="text;html=1;align=center;verticalAlign=middle;whiteSpace=wrap;rounded=0;fontStyle=1" parent="1" vertex="1">
          <mxGeometry x="-38" y="113" width="80" height="30" as="geometry" />
        </mxCell>
        <mxCell id="k7bckBG_RtDYrQezcNKC-2" value="Updated (delivery_location_lat, delivery_location_lng" style="text;html=1;align=center;verticalAlign=middle;whiteSpace=wrap;rounded=0;fontStyle=1" parent="1" vertex="1">
          <mxGeometry x="-54" y="192" width="130" height="30" as="geometry" />
        </mxCell>
        <mxCell id="k7bckBG_RtDYrQezcNKC-3" value="Location Request" style="text;html=1;align=center;verticalAlign=middle;whiteSpace=wrap;rounded=0;fontStyle=1" parent="1" vertex="1">
          <mxGeometry x="-48" y="132" width="107" height="30" as="geometry" />
        </mxCell>
        <mxCell id="BZYS89L6aoN4rrawujdk-2" value="ALMP Existing iPaaS Order Orchestration Layer" style="text;html=1;align=center;verticalAlign=middle;whiteSpace=wrap;rounded=0;fontStyle=5" vertex="1" parent="1">
          <mxGeometry x="-990" y="10" width="280" height="30" as="geometry" />
        </mxCell>
      </root>
    </mxGraphModel>
  </diagram>
</mxfile>
